<?xml version="1.0"?>
<svg xmlns="http://www.w3.org/2000/svg" xmlns:xlink="http://www.w3.org/1999/xlink" version="1.1" xml:space="preserve">
  <defs>
    <symbol id="email" width="100%" height="100%" viewBox="0 0 56 56" fill="none">
      <path d="M4.66675 28.0002C4.66675 19.2006 4.66675 14.8008 7.40042 12.0672C10.1341 9.3335 14.5339 9.3335 23.3334 9.3335H32.6667C41.4663 9.3335 45.8661 9.3335 48.5997 12.0672C51.3334 14.8008 51.3334 19.2006 51.3334 28.0002C51.3334 36.7997 51.3334 41.1995 48.5997 43.9332C45.8661 46.6668 41.4663 46.6668 32.6667 46.6668H23.3334C14.5339 46.6668 10.1341 46.6668 7.40042 43.9332C4.66675 41.1995 4.66675 36.7997 4.66675 28.0002Z" stroke="currentColor" stroke-width="2" />
      <path d="M14 18.6665L19.0374 22.8644C23.3229 26.4356 25.4657 28.2212 28 28.2212C30.5343 28.2212 32.6771 26.4356 36.9626 22.8644L42 18.6665" stroke="currentColor" stroke-width="2" stroke-linecap="round" />

    </symbol>
    <symbol id="phone" width="100%" height="100%" viewBox="0 0 24 25" fill="none">
      <path d="M15.5562 14.7977L15.1007 15.2772C15.1007 15.2772 14.0181 16.417 11.0631 13.3059C8.10812 10.1948 9.1907 9.05507 9.1907 9.05507L9.47752 8.75311C10.1841 8.00924 10.2507 6.81497 9.63424 5.9431L8.37326 4.15961C7.61028 3.0805 6.13596 2.93795 5.26145 3.85864L3.69185 5.51114C3.25823 5.96766 2.96765 6.55945 3.00289 7.21594C3.09304 8.89546 3.81071 12.509 7.81536 16.7252C12.0621 21.1962 16.0468 21.3739 17.6763 21.2131C18.1917 21.1622 18.6399 20.8843 19.0011 20.504L20.4217 19.0084C21.3806 17.9989 21.1102 16.2682 19.8833 15.562L17.9728 14.4623C17.1672 13.9986 16.1858 14.1348 15.5562 14.7977Z" fill="currentColor" />
      <path d="M13.2595 2.13008C13.3257 1.72119 13.7122 1.44381 14.1211 1.51001C14.1464 1.51485 14.2279 1.53007 14.2705 1.53958C14.3559 1.55858 14.4749 1.58784 14.6233 1.63106C14.9201 1.71751 15.3347 1.85991 15.8323 2.08805C16.8286 2.5448 18.1544 3.34381 19.5302 4.71961C20.906 6.09541 21.705 7.42122 22.1617 8.4175C22.3899 8.91511 22.5323 9.32972 22.6187 9.6265C22.6619 9.7749 22.6912 9.89393 22.7102 9.97926C22.7197 10.0219 22.7267 10.0562 22.7315 10.0815L22.7373 10.1127C22.8034 10.5216 22.5286 10.9241 22.1197 10.9903C21.712 11.0563 21.3279 10.7803 21.2601 10.3733C21.258 10.3624 21.2522 10.333 21.2461 10.3053C21.2337 10.2499 21.2124 10.1621 21.1786 10.046C21.1109 9.81363 20.9934 9.4683 20.7982 9.04262C20.4084 8.19232 19.7074 7.01813 18.4695 5.78027C17.2317 4.5424 16.0575 3.84141 15.2072 3.45158C14.7815 3.25642 14.4362 3.13889 14.2038 3.07122C14.0877 3.03739 13.9417 3.00387 13.8863 2.99154C13.4793 2.92372 13.1935 2.5378 13.2595 2.13008Z" fill="currentColor" />
      <path fill-rule="evenodd" clip-rule="evenodd" d="M13.4857 5.57954C13.5995 5.18126 14.0146 4.95065 14.4129 5.06444L14.2069 5.78558C14.4129 5.06444 14.4129 5.06444 14.4129 5.06444L14.4144 5.06485L14.4159 5.06529L14.4192 5.06627L14.427 5.06858L14.4468 5.07475C14.4618 5.07957 14.4807 5.08585 14.5031 5.09381C14.548 5.10975 14.6074 5.13242 14.6802 5.16362C14.8259 5.22605 15.0249 5.32248 15.2695 5.46719C15.7589 5.75687 16.4271 6.23805 17.2121 7.02302C17.9971 7.80799 18.4782 8.47618 18.7679 8.96564C18.9126 9.21015 19.009 9.40922 19.0715 9.5549C19.1027 9.62771 19.1254 9.68707 19.1413 9.73198C19.1493 9.75443 19.1555 9.77326 19.1604 9.78834L19.1665 9.80812L19.1688 9.81587L19.1698 9.81921L19.1702 9.82074C19.1702 9.82074 19.1707 9.82218 18.4495 10.0282L19.1707 9.82218C19.2845 10.2205 19.0538 10.6356 18.6556 10.7494C18.2607 10.8622 17.8492 10.6364 17.7313 10.2444L17.7276 10.2336C17.7223 10.2186 17.7113 10.189 17.6928 10.1458C17.6558 10.0594 17.5887 9.91821 17.4771 9.72962C17.2541 9.35288 16.8514 8.78363 16.1514 8.08368C15.4515 7.38373 14.8822 6.98102 14.5055 6.75805C14.3169 6.64644 14.1757 6.57934 14.0893 6.54234C14.0461 6.52382 14.0165 6.51279 14.0015 6.50746L13.9907 6.50376C13.5987 6.38588 13.3729 5.97443 13.4857 5.57954Z" fill="currentColor" />

    </symbol>
    <symbol id="menu" width="100%" height="100%" viewBox="0 0 24 25" fill="none">
      <path d="M20 7.25L4 7.25" stroke="currentColor" stroke-width="2" stroke-linecap="round" />
      <path d="M20 12.25L4 12.25" stroke="currentColor" stroke-width="2" stroke-linecap="round" />
      <path d="M20 17.25L4 17.25" stroke="currentColor" stroke-width="2" stroke-linecap="round" />

    </symbol>
    <symbol id="arrow-right" width="100%" height="100%" viewBox="0 0 20 20" fill="none">
      <path fill-rule="evenodd" clip-rule="evenodd" d="M11.2248 4.55806C11.4688 4.31398 11.8646 4.31398 12.1086 4.55806L17.1086 9.55806C17.3527 9.80214 17.3527 10.1979 17.1086 10.4419L12.1086 15.4419C11.8646 15.686 11.4688 15.686 11.2248 15.4419C10.9807 15.1979 10.9807 14.8021 11.2248 14.5581L15.1578 10.625H3.33337C2.9882 10.625 2.70837 10.3452 2.70837 10C2.70837 9.65482 2.9882 9.375 3.33337 9.375H15.1578L11.2248 5.44194C10.9807 5.19786 10.9807 4.80214 11.2248 4.55806Z" fill="currentColor" />

    </symbol>
    <symbol id="arrow-right-alt" width="100%" height="100%" viewBox="0 0 32 19" fill="none">
      <path fill-rule="evenodd" clip-rule="evenodd" d="M26.4833 9.93584H0V8.61106H26.4626C25.5887 8.19476 24.8301 7.67809 24.1629 7.05973C22.3987 5.42479 21.3458 3.14178 20.4255 0.361747L21.564 0C22.4707 2.73915 23.449 4.784 24.9854 6.2079C26.3522 7.47476 28.2191 8.30143 31.0311 8.61106H32V8.69484V9.86484V9.93584H31.1493C28.2707 10.2349 26.3707 11.0641 24.9849 12.3459C23.4489 13.7666 22.4707 15.8081 21.564 18.5471L20.4255 18.1853C21.3459 15.4051 22.3989 13.1251 24.1633 11.4933C24.8357 10.8714 25.6009 10.3528 26.4833 9.93584Z" fill="currentColor" />

    </symbol>
    <symbol id="arrow-left" width="100%" height="100%" viewBox="0 0 15 10" fill="none">
      <path d="M2 5L1.29289 4.29289L0.585786 5L1.29289 5.70711L2 5ZM14 6C14.5523 6 15 5.55228 15 5C15 4.44772 14.5523 4 14 4V6ZM5.29289 0.292893L1.29289 4.29289L2.70711 5.70711L6.70711 1.70711L5.29289 0.292893ZM1.29289 5.70711L5.29289 9.70711L6.70711 8.29289L2.70711 4.29289L1.29289 5.70711ZM2 6H14V4H2V6Z" fill="currentColor" />
    </symbol>
    <symbol id="arrow-left-alt" width="100%" height="100%" viewBox="0 0 32 19" fill="none">
      <path fill-rule="evenodd" clip-rule="evenodd" d="M5.51674 9.93584H32V8.61106H5.53737C6.41131 8.19476 7.16994 7.67809 7.83714 7.05973C9.60126 5.42479 10.6542 3.14178 11.5745 0.361747L10.436 0C9.52926 2.73915 8.55097 4.784 7.01463 6.2079C5.64777 7.47476 3.78091 8.30143 0.968855 8.61106H0V8.69484V9.86484V9.93584H0.850685C3.72931 10.2349 5.62931 11.0641 7.01514 12.3459C8.55114 13.7666 9.52926 15.8081 10.436 18.5471L11.5745 18.1853C10.6541 15.4051 9.60108 13.1251 7.83674 11.4933C7.16428 10.8714 6.39908 10.3528 5.51674 9.93584Z" fill="currentColor" />

    </symbol>
    <symbol id="gal-ochka" width="100%" height="100%" viewBox="0 0 12 10" fill="none">
      <path d="M6.23497 8.79946C5.9649 9.16602 5.54433 9.3913 5.0896 9.41369C4.63487 9.43632 4.19445 9.25304 3.88975 8.91464L1.15929 5.88456C0.725328 5.40328 0.763876 4.6614 1.24515 4.22744C1.72689 3.79348 2.46831 3.83226 2.90227 4.31377L4.83407 6.45771C4.8627 6.48956 4.90425 6.50664 4.94695 6.50456C4.98988 6.50249 5.02912 6.48102 5.05475 6.44686L9.02546 1.0614C9.40979 0.539728 10.1443 0.428699 10.6662 0.813259C11.1876 1.19782 11.2984 1.93232 10.9139 2.45376L6.23497 8.79946Z" fill="currentColor" />
    </symbol>
    <symbol id="to-right" width="100%" height="100%" viewBox="0 0 8 14" fill="none">
      <path d="M5.63663 7.00019L1.15148 2.51504C0.7935 2.15706 0.7935 1.57666 1.15148 1.21868C1.50946 0.8607 2.08986 0.8607 2.44784 1.21868L7.58118 6.35201C7.93916 6.70999 7.93916 7.29039 7.58118 7.64838L2.44784 12.7817C2.08986 13.1397 1.50946 13.1397 1.15148 12.7817C0.7935 12.4237 0.7935 11.8433 1.15148 11.4853L5.63663 7.00019Z" fill="currentColor" />
    </symbol>
    <symbol id="to-left" width="100%" height="100%" viewBox="0 0 8 14" fill="none">
      <path d="M2.36337 7.00019L6.84852 2.51504C7.2065 2.15706 7.2065 1.57666 6.84852 1.21868C6.49054 0.8607 5.91014 0.8607 5.55216 1.21868L0.418823 6.35201C0.0608425 6.70999 0.0608425 7.29039 0.418823 7.64838L5.55216 12.7817C5.91014 13.1397 6.49054 13.1397 6.84852 12.7817C7.2065 12.4237 7.2065 11.8433 6.84852 11.4853L2.36337 7.00019Z" fill="currentColor" />
    </symbol>
    <symbol id="play" width="100%" height="100%" viewBox="0 0 24 24" fill="none">
      <path d="M19.5761 9.35258C21.4746 10.5065 21.4746 13.4935 19.5761 14.6474L8.11276 21.6145C6.26758 22.736 4 21.2763 4 18.9671L4 5.0329C4 2.72368 6.26758 1.26402 8.11276 2.38548L19.5761 9.35258Z" fill="currentColor" />
    </symbol>
    <symbol id="cross" width="100%" height="100%" viewBox="0 0 16 16" fill="none">
      <path d="M1 15L15 1M1 1L15 15" fill="none" stroke="currentColor" stroke-width="2" stroke-linecap="round" stroke-linejoin="round" />
    </symbol>
    <symbol id="circle-cross" width="100%" height="100%" viewBox="0 0 24 25" fill="none">
      <circle cx="12" cy="12.25" r="10" stroke="currentColor" stroke-width="1.5" />
      <path d="M14.5 9.75002L9.5 14.75M9.49998 9.75L14.5 14.75" stroke="currentColor" stroke-width="1.5" stroke-linecap="round" />
    </symbol>
    <symbol id="calendar" width="100%" height="100%" viewBox="0 0 33 33" fill="none">
      <path d="M10.8332 3.83331C10.8332 3.28103 10.3855 2.83331 9.83317 2.83331C9.28089 2.83331 8.83317 3.28103 8.83317 3.83331V5.93899C6.91406 6.09266 5.6542 6.46981 4.7286 7.39541C3.803 8.32101 3.42585 9.58087 3.27218 11.5H29.7275C29.5738 9.58087 29.1967 8.32101 28.2711 7.39541C27.3455 6.46981 26.0856 6.09266 24.1665 5.93899V3.83331C24.1665 3.28103 23.7188 2.83331 23.1665 2.83331C22.6142 2.83331 22.1665 3.28103 22.1665 3.83331V5.85052C21.2795 5.83331 20.2852 5.83331 19.1665 5.83331H13.8332C12.7145 5.83331 11.7202 5.83331 10.8332 5.85052V3.83331Z" fill="currentColor" />
      <path fill-rule="evenodd" clip-rule="evenodd" d="M29.8332 16.5V19.1666C29.8332 24.195 29.8332 26.7091 28.2711 28.2712C26.709 29.8333 24.1948 29.8333 19.1665 29.8333H13.8332C8.80486 29.8333 6.2907 29.8333 4.7286 28.2712C3.1665 26.7091 3.1665 24.195 3.1665 19.1666V16.5C3.1665 15.3813 3.1665 14.387 3.18371 13.5H29.816C29.8332 14.387 29.8332 15.3813 29.8332 16.5ZM22.4998 24.5C23.6044 24.5 24.4998 23.6045 24.4998 22.5C24.4998 21.3954 23.6044 20.5 22.4998 20.5C21.3953 20.5 20.4998 21.3954 20.4998 22.5C20.4998 23.6045 21.3953 24.5 22.4998 24.5Z" fill="currentColor" />

    </symbol>
    <symbol id="anchor" width="100%" height="100%" viewBox="0 0 23 23" fill="none">
      <path d="M16.0833 14.25L17.5042 15.6708C16.6242 17.22 14.4517 18.4575 12.4167 18.76V10.5833H15.1667V8.74998H12.4167V7.66831C13.48 7.28331 14.25 6.27498 14.25 5.08331C14.25 3.57081 13.0125 2.33331 11.5 2.33331C9.9875 2.33331 8.75 3.57081 8.75 5.08331C8.75 6.27498 9.52 7.28331 10.5833 7.66831V8.74998H7.83333V10.5833H10.5833V18.76C8.54833 18.4575 6.37583 17.22 5.49583 15.6708L6.91667 14.25L3.25 11.5V14.25C3.25 17.8066 7.76 20.6666 11.5 20.6666C15.24 20.6666 19.75 17.8066 19.75 14.25V11.5L16.0833 14.25ZM11.5 4.16665C12.0042 4.16665 12.4167 4.57915 12.4167 5.08331C12.4167 5.58748 12.0042 5.99998 11.5 5.99998C10.9958 5.99998 10.5833 5.58748 10.5833 5.08331C10.5833 4.57915 10.9958 4.16665 11.5 4.16665Z" fill="currentColor" />

    </symbol>

    <!--  -->
    <!--  -->
    <!--  -->
  </defs>
</svg>