<?xml version="1.0"?>
<svg xmlns="http://www.w3.org/2000/svg" xmlns:xlink="http://www.w3.org/1999/xlink" version="1.1" xml:space="preserve">
	<defs>
		<symbol id="email" width="100%" height="100%" viewBox="0 0 24 24" fill="none">
			<path fill-rule="evenodd" clip-rule="evenodd" d="M3.17157 5.17157C2 6.34315 2 8.22876 2 12C2 15.7712 2 17.6569 3.17157 18.8284C4.34315 20 6.22876 20 10 20H14C17.7712 20 19.6569 20 20.8284 18.8284C22 17.6569 22 15.7712 22 12C22 8.22876 22 6.34315 20.8284 5.17157C19.6569 4 17.7712 4 14 4H10C6.22876 4 4.34315 4 3.17157 5.17157ZM18.5762 7.51986C18.8413 7.83807 18.7983 8.31099 18.4801 8.57617L16.2837 10.4066C15.3973 11.1452 14.6789 11.7439 14.0448 12.1517C13.3843 12.5765 12.7411 12.8449 12 12.8449C11.2589 12.8449 10.6157 12.5765 9.95518 12.1517C9.32112 11.7439 8.60271 11.1452 7.71636 10.4066L5.51986 8.57617C5.20165 8.31099 5.15866 7.83807 5.42383 7.51986C5.68901 7.20165 6.16193 7.15866 6.48014 7.42383L8.63903 9.22291C9.57199 10.0004 10.2197 10.5384 10.7666 10.8901C11.2959 11.2306 11.6549 11.3449 12 11.3449C12.3451 11.3449 12.7041 11.2306 13.2334 10.8901C13.7803 10.5384 14.428 10.0004 15.361 9.22291L17.5199 7.42383C17.8381 7.15866 18.311 7.20165 18.5762 7.51986Z" fill="currentColor" />
		</symbol>
		<symbol id="phone" width="100%" height="100%" viewBox="0 0 24 25" fill="none">
			<path d="M15.5562 14.7977L15.1007 15.2772C15.1007 15.2772 14.0181 16.417 11.0631 13.3059C8.10812 10.1948 9.1907 9.05507 9.1907 9.05507L9.47752 8.75311C10.1841 8.00924 10.2507 6.81497 9.63424 5.9431L8.37326 4.15961C7.61028 3.0805 6.13596 2.93795 5.26145 3.85864L3.69185 5.51114C3.25823 5.96766 2.96765 6.55945 3.00289 7.21594C3.09304 8.89546 3.81071 12.509 7.81536 16.7252C12.0621 21.1962 16.0468 21.3739 17.6763 21.2131C18.1917 21.1622 18.6399 20.8843 19.0011 20.504L20.4217 19.0084C21.3806 17.9989 21.1102 16.2682 19.8833 15.562L17.9728 14.4623C17.1672 13.9986 16.1858 14.1348 15.5562 14.7977Z" fill="currentColor" />
			<path d="M13.2595 2.13008C13.3257 1.72119 13.7122 1.44381 14.1211 1.51001C14.1464 1.51485 14.2279 1.53007 14.2705 1.53958C14.3559 1.55858 14.4749 1.58784 14.6233 1.63106C14.9201 1.71751 15.3347 1.85991 15.8323 2.08805C16.8286 2.5448 18.1544 3.34381 19.5302 4.71961C20.906 6.09541 21.705 7.42122 22.1617 8.4175C22.3899 8.91511 22.5323 9.32972 22.6187 9.6265C22.6619 9.7749 22.6912 9.89393 22.7102 9.97926C22.7197 10.0219 22.7267 10.0562 22.7315 10.0815L22.7373 10.1127C22.8034 10.5216 22.5286 10.9241 22.1197 10.9903C21.712 11.0563 21.3279 10.7803 21.2601 10.3733C21.258 10.3624 21.2522 10.333 21.2461 10.3053C21.2337 10.2499 21.2124 10.1621 21.1786 10.046C21.1109 9.81363 20.9934 9.4683 20.7982 9.04262C20.4084 8.19232 19.7074 7.01813 18.4695 5.78027C17.2317 4.5424 16.0575 3.84141 15.2072 3.45158C14.7815 3.25642 14.4362 3.13889 14.2038 3.07122C14.0877 3.03739 13.9417 3.00387 13.8863 2.99154C13.4793 2.92372 13.1935 2.5378 13.2595 2.13008Z" fill="currentColor" />
			<path fill-rule="evenodd" clip-rule="evenodd" d="M13.4857 5.57954C13.5995 5.18126 14.0146 4.95065 14.4129 5.06444L14.2069 5.78558C14.4129 5.06444 14.4129 5.06444 14.4129 5.06444L14.4144 5.06485L14.4159 5.06529L14.4192 5.06627L14.427 5.06858L14.4468 5.07475C14.4618 5.07957 14.4807 5.08585 14.5031 5.09381C14.548 5.10975 14.6074 5.13242 14.6802 5.16362C14.8259 5.22605 15.0249 5.32248 15.2695 5.46719C15.7589 5.75687 16.4271 6.23805 17.2121 7.02302C17.9971 7.80799 18.4782 8.47618 18.7679 8.96564C18.9126 9.21015 19.009 9.40922 19.0715 9.5549C19.1027 9.62771 19.1254 9.68707 19.1413 9.73198C19.1493 9.75443 19.1555 9.77326 19.1604 9.78834L19.1665 9.80812L19.1688 9.81587L19.1698 9.81921L19.1702 9.82074C19.1702 9.82074 19.1707 9.82218 18.4495 10.0282L19.1707 9.82218C19.2845 10.2205 19.0538 10.6356 18.6556 10.7494C18.2607 10.8622 17.8492 10.6364 17.7313 10.2444L17.7276 10.2336C17.7223 10.2186 17.7113 10.189 17.6928 10.1458C17.6558 10.0594 17.5887 9.91821 17.4771 9.72962C17.2541 9.35288 16.8514 8.78363 16.1514 8.08368C15.4515 7.38373 14.8822 6.98102 14.5055 6.75805C14.3169 6.64644 14.1757 6.57934 14.0893 6.54234C14.0461 6.52382 14.0165 6.51279 14.0015 6.50746L13.9907 6.50376C13.5987 6.38588 13.3729 5.97443 13.4857 5.57954Z" fill="currentColor" />
		</symbol>
		<symbol id="menu" width="100%" height="100%" viewBox="0 0 24 25" fill="none">
			<path d="M20 7.25L4 7.25" stroke="currentColor" stroke-width="2" stroke-linecap="round" />
			<path d="M20 12.25L4 12.25" stroke="currentColor" stroke-width="2" stroke-linecap="round" />
			<path d="M20 17.25L4 17.25" stroke="currentColor" stroke-width="2" stroke-linecap="round" />
		</symbol>
		<symbol id="arrow-right" width="100%" height="100%" viewBox="0 0 20 20" fill="none">
			<path fill-rule="evenodd" clip-rule="evenodd" d="M11.2248 4.55806C11.4688 4.31398 11.8646 4.31398 12.1086 4.55806L17.1086 9.55806C17.3527 9.80214 17.3527 10.1979 17.1086 10.4419L12.1086 15.4419C11.8646 15.686 11.4688 15.686 11.2248 15.4419C10.9807 15.1979 10.9807 14.8021 11.2248 14.5581L15.1578 10.625H3.33337C2.9882 10.625 2.70837 10.3452 2.70837 10C2.70837 9.65482 2.9882 9.375 3.33337 9.375H15.1578L11.2248 5.44194C10.9807 5.19786 10.9807 4.80214 11.2248 4.55806Z" fill="currentColor" />
		</symbol>
		<symbol id="arrow-right-alt" width="100%" height="100%" viewBox="0 0 32 19" fill="none">
			<path fill-rule="evenodd" clip-rule="evenodd" d="M26.4833 9.93584H0V8.61106H26.4626C25.5887 8.19476 24.8301 7.67809 24.1629 7.05973C22.3987 5.42479 21.3458 3.14178 20.4255 0.361747L21.564 0C22.4707 2.73915 23.449 4.784 24.9854 6.2079C26.3522 7.47476 28.2191 8.30143 31.0311 8.61106H32V8.69484V9.86484V9.93584H31.1493C28.2707 10.2349 26.3707 11.0641 24.9849 12.3459C23.4489 13.7666 22.4707 15.8081 21.564 18.5471L20.4255 18.1853C21.3459 15.4051 22.3989 13.1251 24.1633 11.4933C24.8357 10.8714 25.6009 10.3528 26.4833 9.93584Z" fill="currentColor" />
		</symbol>
		<symbol id="arrow-left" width="100%" height="100%" viewBox="0 0 15 10" fill="none">
			<path d="M2 5L1.29289 4.29289L0.585786 5L1.29289 5.70711L2 5ZM14 6C14.5523 6 15 5.55228 15 5C15 4.44772 14.5523 4 14 4V6ZM5.29289 0.292893L1.29289 4.29289L2.70711 5.70711L6.70711 1.70711L5.29289 0.292893ZM1.29289 5.70711L5.29289 9.70711L6.70711 8.29289L2.70711 4.29289L1.29289 5.70711ZM2 6H14V4H2V6Z" fill="currentColor" />
		</symbol>
		<symbol id="arrow-left-alt" width="100%" height="100%" viewBox="0 0 32 19" fill="none">
			<path fill-rule="evenodd" clip-rule="evenodd" d="M5.51674 9.93584H32V8.61106H5.53737C6.41131 8.19476 7.16994 7.67809 7.83714 7.05973C9.60126 5.42479 10.6542 3.14178 11.5745 0.361747L10.436 0C9.52926 2.73915 8.55097 4.784 7.01463 6.2079C5.64777 7.47476 3.78091 8.30143 0.968855 8.61106H0V8.69484V9.86484V9.93584H0.850685C3.72931 10.2349 5.62931 11.0641 7.01514 12.3459C8.55114 13.7666 9.52926 15.8081 10.436 18.5471L11.5745 18.1853C10.6541 15.4051 9.60108 13.1251 7.83674 11.4933C7.16428 10.8714 6.39908 10.3528 5.51674 9.93584Z" fill="currentColor" />
		</symbol>
		<symbol id="gal-ochka" width="100%" height="100%" viewBox="0 0 12 10" fill="none">
			<path d="M6.23497 8.79946C5.9649 9.16602 5.54433 9.3913 5.0896 9.41369C4.63487 9.43632 4.19445 9.25304 3.88975 8.91464L1.15929 5.88456C0.725328 5.40328 0.763876 4.6614 1.24515 4.22744C1.72689 3.79348 2.46831 3.83226 2.90227 4.31377L4.83407 6.45771C4.8627 6.48956 4.90425 6.50664 4.94695 6.50456C4.98988 6.50249 5.02912 6.48102 5.05475 6.44686L9.02546 1.0614C9.40979 0.539728 10.1443 0.428699 10.6662 0.813259C11.1876 1.19782 11.2984 1.93232 10.9139 2.45376L6.23497 8.79946Z" fill="currentColor" />
		</symbol>
		<symbol id="to-right" width="100%" height="100%" viewBox="0 0 24 24" fill="none">
			<path d="M14.2322 12L8.11612 5.88388C7.62796 5.39573 7.62796 4.60427 8.11612 4.11612C8.60427 3.62796 9.39573 3.62796 9.88388 4.11612L16.8839 11.1161C17.372 11.6043 17.372 12.3957 16.8839 12.8839L9.88388 19.8839C9.39573 20.372 8.60427 20.372 8.11612 19.8839C7.62796 19.3957 7.62796 18.6043 8.11612 18.1161L14.2322 12Z" fill="currentColor" />
		</symbol>
		<symbol id="to-left" width="100%" height="100%" viewBox="0 0 24 24" fill="none">
			<path d="M9.76777 12L15.8839 5.88388C16.372 5.39573 16.372 4.60427 15.8839 4.11612C15.3957 3.62796 14.6043 3.62796 14.1161 4.11612L7.11612 11.1161C6.62796 11.6043 6.62796 12.3957 7.11612 12.8839L14.1161 19.8839C14.6043 20.372 15.3957 20.372 15.8839 19.8839C16.372 19.3957 16.372 18.6043 15.8839 18.1161L9.76777 12Z" fill="currentColor" />
		</symbol>
		<symbol id="play" width="100%" height="100%" viewBox="0 0 24 24" fill="none">
			<path d="M19.5761 9.35258C21.4746 10.5065 21.4746 13.4935 19.5761 14.6474L8.11276 21.6145C6.26758 22.736 4 21.2763 4 18.9671L4 5.0329C4 2.72368 6.26758 1.26402 8.11276 2.38548L19.5761 9.35258Z" fill="currentColor" />
		</symbol>
		<symbol id="cross" width="100%" height="100%" viewBox="0 0 16 16" fill="none">
			<path d="M1 15L15 1M1 1L15 15" fill="none" stroke="currentColor" stroke-width="2" stroke-linecap="round" stroke-linejoin="round" />
		</symbol>
		<symbol id="circle-cross" width="100%" height="100%" viewBox="0 0 24 25" fill="none">
			<circle cx="12" cy="12.25" r="10" stroke="currentColor" stroke-width="1.5" />
			<path d="M14.5 9.75002L9.5 14.75M9.49998 9.75L14.5 14.75" stroke="currentColor" stroke-width="1.5" stroke-linecap="round" />
		</symbol>
		<symbol id="circle-check" width="100%" height="100%" viewBox="0 0 24 24" fill="none">
			<circle cx="12" cy="12" r="10" stroke="currentColor" stroke-width="2" />
			<path d="M8.5 12.5L10.5 14.5L15.5 9.5" stroke="currentColor" stroke-width="2" stroke-linecap="round" stroke-linejoin="round" />
		</symbol>
		<symbol id="calendar" width="100%" height="100%" viewBox="0 0 33 33" fill="none">
			<path d="M10.8332 3.83331C10.8332 3.28103 10.3855 2.83331 9.83317 2.83331C9.28089 2.83331 8.83317 3.28103 8.83317 3.83331V5.93899C6.91406 6.09266 5.6542 6.46981 4.7286 7.39541C3.803 8.32101 3.42585 9.58087 3.27218 11.5H29.7275C29.5738 9.58087 29.1967 8.32101 28.2711 7.39541C27.3455 6.46981 26.0856 6.09266 24.1665 5.93899V3.83331C24.1665 3.28103 23.7188 2.83331 23.1665 2.83331C22.6142 2.83331 22.1665 3.28103 22.1665 3.83331V5.85052C21.2795 5.83331 20.2852 5.83331 19.1665 5.83331H13.8332C12.7145 5.83331 11.7202 5.83331 10.8332 5.85052V3.83331Z" fill="currentColor" />
			<path fill-rule="evenodd" clip-rule="evenodd" d="M29.8332 16.5V19.1666C29.8332 24.195 29.8332 26.7091 28.2711 28.2712C26.709 29.8333 24.1948 29.8333 19.1665 29.8333H13.8332C8.80486 29.8333 6.2907 29.8333 4.7286 28.2712C3.1665 26.7091 3.1665 24.195 3.1665 19.1666V16.5C3.1665 15.3813 3.1665 14.387 3.18371 13.5H29.816C29.8332 14.387 29.8332 15.3813 29.8332 16.5ZM22.4998 24.5C23.6044 24.5 24.4998 23.6045 24.4998 22.5C24.4998 21.3954 23.6044 20.5 22.4998 20.5C21.3953 20.5 20.4998 21.3954 20.4998 22.5C20.4998 23.6045 21.3953 24.5 22.4998 24.5Z" fill="currentColor" />
		</symbol>
		<symbol id="anchor" width="100%" height="100%" viewBox="0 0 23 23" fill="none">
			<path d="M16.0833 14.25L17.5042 15.6708C16.6242 17.22 14.4517 18.4575 12.4167 18.76V10.5833H15.1667V8.74998H12.4167V7.66831C13.48 7.28331 14.25 6.27498 14.25 5.08331C14.25 3.57081 13.0125 2.33331 11.5 2.33331C9.9875 2.33331 8.75 3.57081 8.75 5.08331C8.75 6.27498 9.52 7.28331 10.5833 7.66831V8.74998H7.83333V10.5833H10.5833V18.76C8.54833 18.4575 6.37583 17.22 5.49583 15.6708L6.91667 14.25L3.25 11.5V14.25C3.25 17.8066 7.76 20.6666 11.5 20.6666C15.24 20.6666 19.75 17.8066 19.75 14.25V11.5L16.0833 14.25ZM11.5 4.16665C12.0042 4.16665 12.4167 4.57915 12.4167 5.08331C12.4167 5.58748 12.0042 5.99998 11.5 5.99998C10.9958 5.99998 10.5833 5.58748 10.5833 5.08331C10.5833 4.57915 10.9958 4.16665 11.5 4.16665Z" fill="currentColor" />
		</symbol>
		<symbol id="star" width="100%" height="100%" viewBox="0 0 24 24" fill="none">
			<path d="M9.15316 5.40838C10.4198 3.13613 11.0531 2 12 2C12.9469 2 13.5802 3.13612 14.8468 5.40837L15.1745 5.99623C15.5345 6.64193 15.7144 6.96479 15.9951 7.17781C16.2757 7.39083 16.6251 7.4699 17.3241 7.62805L17.9605 7.77203C20.4201 8.32856 21.65 8.60682 21.9426 9.54773C22.2352 10.4886 21.3968 11.4691 19.7199 13.4299L19.2861 13.9372C18.8096 14.4944 18.5713 14.773 18.4641 15.1177C18.357 15.4624 18.393 15.8341 18.465 16.5776L18.5306 17.2544C18.7841 19.8706 18.9109 21.1787 18.1449 21.7602C17.3788 22.3417 16.2273 21.8115 13.9243 20.7512L13.3285 20.4768C12.6741 20.1755 12.3469 20.0248 12 20.0248C11.6531 20.0248 11.3259 20.1755 10.6715 20.4768L10.0757 20.7512C7.77268 21.8115 6.62118 22.3417 5.85515 21.7602C5.08912 21.1787 5.21588 19.8706 5.4694 17.2544L5.53498 16.5776C5.60703 15.8341 5.64305 15.4624 5.53586 15.1177C5.42868 14.773 5.19043 14.4944 4.71392 13.9372L4.2801 13.4299C2.60325 11.4691 1.76482 10.4886 2.05742 9.54773C2.35002 8.60682 3.57986 8.32856 6.03954 7.77203L6.67589 7.62805C7.37485 7.4699 7.72433 7.39083 8.00494 7.17781C8.28555 6.96479 8.46553 6.64194 8.82547 5.99623L9.15316 5.40838Z" fill="currentColor" />
		</symbol>
		<symbol id="headphones" width="100%" height="100%" viewBox="0 0 24 24" fill="none">
			<path d="M22 17V12C22 6.47715 17.5228 2 12 2C6.47715 2 2 6.47715 2 12V18" stroke="currentColor" stroke-width="1.5" />
			<path d="M8 15.1871C8 14.6088 8 14.3196 7.93097 14.0899C7.77135 13.5588 7.35457 13.156 6.83579 13.0313C6.61143 12.9775 6.33578 13.0002 5.78447 13.0457C4.82772 13.1247 4.34935 13.1642 3.95934 13.3151C3.06004 13.6629 2.3739 14.4394 2.1131 15.4044C2 15.8229 2 16.3248 2 17.3285V17.514C2 18.5431 2 19.0577 2.12305 19.493C2.36454 20.3475 2.942 21.0543 3.71133 21.437C4.10333 21.632 4.58932 21.7123 5.56129 21.8728C6.20632 21.9793 6.52883 22.0326 6.78984 21.9788C7.30414 21.8729 7.72826 21.4938 7.90852 20.9791C8 20.7178 8 20.3763 8 19.6934V15.1871Z" stroke="currentColor" stroke-width="1.5" />
			<path d="M16 15.1871C16 14.6088 16 14.3196 16.069 14.0899C16.2286 13.5588 16.6454 13.156 17.1642 13.0313C17.3886 12.9775 17.6642 13.0002 18.2155 13.0457C19.1723 13.1247 19.6506 13.1642 20.0407 13.3151C20.94 13.6629 21.6261 14.4394 21.8869 15.4044C22 15.8229 22 16.3248 22 17.3285V17.514C22 18.5431 22 19.0577 21.877 19.493C21.6355 20.3475 21.058 21.0543 20.2887 21.437C19.8967 21.632 19.4107 21.7123 18.4387 21.8728C17.7937 21.9793 17.4712 22.0326 17.2102 21.9788C16.6959 21.8729 16.2717 21.4938 16.0915 20.9791C16 20.7178 16 20.3763 16 19.6934V15.1871Z" stroke="currentColor" stroke-width="1.5" />
			<path d="M12 6.5L12 11.5" stroke="currentColor" stroke-width="1.5" stroke-linecap="round" />
			<path d="M15 8L15 10" stroke="currentColor" stroke-width="1.5" stroke-linecap="round" />
			<path d="M9 8L9 10" stroke="currentColor" stroke-width="1.5" stroke-linecap="round" />
		</symbol>
		<symbol id="headphones" width="100%" height="100%" viewBox="0 0 24 24" fill="none">
			<path d="M22 17V12C22 6.47715 17.5228 2 12 2C6.47715 2 2 6.47715 2 12V18" stroke="currentColor" stroke-width="1.5" />
			<path d="M8 15.1871C8 14.6088 8 14.3196 7.93097 14.0899C7.77135 13.5588 7.35457 13.156 6.83579 13.0313C6.61143 12.9775 6.33578 13.0002 5.78447 13.0457C4.82772 13.1247 4.34935 13.1642 3.95934 13.3151C3.06004 13.6629 2.3739 14.4394 2.1131 15.4044C2 15.8229 2 16.3248 2 17.3285V17.514C2 18.5431 2 19.0577 2.12305 19.493C2.36454 20.3475 2.942 21.0543 3.71133 21.437C4.10333 21.632 4.58932 21.7123 5.56129 21.8728C6.20632 21.9793 6.52883 22.0326 6.78984 21.9788C7.30414 21.8729 7.72826 21.4938 7.90852 20.9791C8 20.7178 8 20.3763 8 19.6934V15.1871Z" stroke="currentColor" stroke-width="1.5" />
			<path d="M16 15.1871C16 14.6088 16 14.3196 16.069 14.0899C16.2286 13.5588 16.6454 13.156 17.1642 13.0313C17.3886 12.9775 17.6642 13.0002 18.2155 13.0457C19.1723 13.1247 19.6506 13.1642 20.0407 13.3151C20.94 13.6629 21.6261 14.4394 21.8869 15.4044C22 15.8229 22 16.3248 22 17.3285V17.514C22 18.5431 22 19.0577 21.877 19.493C21.6355 20.3475 21.058 21.0543 20.2887 21.437C19.8967 21.632 19.4107 21.7123 18.4387 21.8728C17.7937 21.9793 17.4712 22.0326 17.2102 21.9788C16.6959 21.8729 16.2717 21.4938 16.0915 20.9791C16 20.7178 16 20.3763 16 19.6934V15.1871Z" stroke="currentColor" stroke-width="1.5" />
			<path d="M12 6.5L12 11.5" stroke="currentColor" stroke-width="1.5" stroke-linecap="round" />
			<path d="M15 8L15 10" stroke="currentColor" stroke-width="1.5" stroke-linecap="round" />
			<path d="M9 8L9 10" stroke="currentColor" stroke-width="1.5" stroke-linecap="round" />
		</symbol>
		<symbol id="link" width="100%" height="100%" viewBox="0 0 24 24" fill="none">
			<path d="M10.0464 14C8.54044 12.4882 8.67609 9.90087 10.3494 8.22108L15.197 3.35462C16.8703 1.67483 19.4476 1.53865 20.9536 3.05046C22.4596 4.56228 22.3239 7.14956 20.6506 8.82935L18.2268 11.2626" stroke="currentColor" stroke-width="1.5" stroke-linecap="round" />
			<path d="M13.9536 10C15.4596 11.5118 15.3239 14.0991 13.6506 15.7789L11.2268 18.2121L8.80299 20.6454C7.12969 22.3252 4.55237 22.4613 3.0464 20.9495C1.54043 19.4377 1.67609 16.8504 3.34939 15.1706L5.77323 12.7373" stroke="currentColor" stroke-width="1.5" stroke-linecap="round" />
		</symbol>
		<symbol id="online" width="100%" height="100%" viewBox="0 0 24 24" fill="none">
			<path d="M5.63604 18.3642C2.12132 14.8494 2.12132 9.15095 5.63604 5.63623M18.364 5.63623C21.8787 9.15095 21.8787 14.8494 18.364 18.3642M8.46447 15.5357C6.51184 13.5831 6.51184 10.4173 8.46447 8.46466M15.5355 8.46466C17.4882 10.4173 17.4882 13.5831 15.5355 15.5357M13 12.0002C13 12.5525 12.5523 13.0002 12 13.0002C11.4477 13.0002 11 12.5525 11 12.0002C11 11.4479 11.4477 11.0002 12 11.0002C12.5523 11.0002 13 11.4479 13 12.0002Z" stroke="currentColor" stroke-width="1.5" stroke-linecap="round" stroke-linejoin="round" />
		</symbol>
		<symbol id="vk" width="100%" height="100%" viewBox="0 0 32 32" fill="none">
			<path d="M15.4167 30H16.5833C22.93 30 26.0917 30 28.0517 28.04C30 26.08 30 22.9067 30 16.5833V15.3933C30 9.09333 30 5.92 28.0517 3.96C26.0917 2 22.9183 2 16.5833 2H15.4167C9.07 2 5.90833 2 3.94833 3.96C2 5.92 2 9.09333 2 15.4167V16.6067C2 22.9067 2 26.08 3.96 28.04C5.92 30 9.09333 30 15.4167 30Z" fill="currentColor" />
			<path d="M16.8039 22C10.654 22 7.14616 17.8709 7 11H10.0806C10.1818 16.043 12.4528 18.1792 14.2517 18.6196V11H17.1524V15.3493C18.9288 15.1622 20.7951 13.1802 21.4247 11H24.3254C24.0882 12.1307 23.6152 13.2013 22.9362 14.1448C22.2572 15.0883 21.3867 15.8845 20.3791 16.4835C21.5038 17.0308 22.4972 17.8055 23.2937 18.7564C24.0902 19.7073 24.6718 20.8128 25 22H21.807C21.5124 20.9688 20.9135 20.0458 20.0855 19.3465C19.2575 18.6472 18.2372 18.2029 17.1524 18.0691V22H16.8039Z" fill="#002E65" />
		</symbol>
		<symbol id="whatsapp" width="100%" height="100%" viewBox="0 0 32 32" fill="none">
			<path d="M28 16C28 22.6274 22.6274 28 16 28C13.4722 28 11.1269 27.2184 9.19266 25.8837L5.09091 26.9091L6.16576 22.8784C4.80092 20.9307 4 18.5589 4 16C4 9.37258 9.37258 4 16 4C22.6274 4 28 9.37258 28 16Z" fill="currentColor" />
			<path fill-rule="evenodd" clip-rule="evenodd" d="M16 30C23.732 30 30 23.732 30 16C30 8.26801 23.732 2 16 2C8.26801 2 2 8.26801 2 16C2 18.5109 2.661 20.8674 3.81847 22.905L2 30L9.31486 28.3038C11.3014 29.3854 13.5789 30 16 30ZM16 27.8462C22.5425 27.8462 27.8462 22.5425 27.8462 16C27.8462 9.45755 22.5425 4.15385 16 4.15385C9.45755 4.15385 4.15385 9.45755 4.15385 16C4.15385 18.5261 4.9445 20.8675 6.29184 22.7902L5.23077 26.7692L9.27993 25.7569C11.1894 27.0746 13.5046 27.8462 16 27.8462Z" fill="currentColor" />
			<path d="M12.5 9.50038C12.1672 8.8318 11.6565 8.89099 11.1407 8.89099C10.2188 8.89099 8.78125 9.99527 8.78125 12.0504C8.78125 13.7348 9.52345 15.5785 12.0244 18.3366C14.438 20.9984 17.6094 22.3753 20.2422 22.3284C22.875 22.2816 23.4167 20.0159 23.4167 19.2508C23.4167 18.9117 23.2062 18.7425 23.0613 18.6965C22.1641 18.2659 20.5093 17.4636 20.1328 17.3129C19.7563 17.1622 19.5597 17.366 19.4375 17.477C19.0961 17.8023 18.4193 18.7613 18.1875 18.977C17.9558 19.1926 17.6103 19.0835 17.4665 19.0019C16.9374 18.7896 15.5029 18.1516 14.3595 17.0431C12.9453 15.6723 12.8623 15.2006 12.5959 14.7808C12.3828 14.4449 12.5392 14.2389 12.6172 14.1488C12.9219 13.7973 13.3426 13.2545 13.5313 12.9848C13.7199 12.715 13.5702 12.3055 13.4803 12.0504C13.0938 10.9535 12.7663 10.0352 12.5 9.50038Z" fill="#002E65" />
		</symbol>
		<symbol id="telegram" width="100%" height="100%" viewBox="0 0 32 32" fill="none">
			<circle cx="16" cy="16" r="14" fill="currentColor" />
			<path d="M22.9866 10.2088C23.1112 9.40332 22.3454 8.76755 21.6292 9.082L7.36482 15.3448C6.85123 15.5703 6.8888 16.3483 7.42147 16.5179L10.3631 17.4547C10.9246 17.6335 11.5325 17.541 12.0228 17.2023L18.655 12.6203C18.855 12.4821 19.073 12.7665 18.9021 12.9426L14.1281 17.8646C13.665 18.3421 13.7569 19.1512 14.314 19.5005L19.659 22.8523C20.2585 23.2282 21.0297 22.8506 21.1418 22.1261L22.9866 10.2088Z" fill="#002E65" />
		</symbol>
		<!--  -->
		<!--  -->
		<!--  -->
	</defs>
</svg>
