<svg width="60" height="43" viewBox="0 0 60 43" fill="none" xmlns="http://www.w3.org/2000/svg">
<path d="M37.344 4.27558C35.4048 5.05065 35.1064 7.06609 35.1064 7.06609L36.1879 9.08127C36.1879 9.08127 36.4116 6.63967 39.5816 6.32964C42.7517 6.01961 47.4133 7.14359 51.3664 8.32558C55.3195 9.50769 60 10.8641 60 10.8641V9.12003C60 9.12003 41.3345 2.49278 37.344 4.27558Z" fill="#002E65"/>
<path d="M40.1038 8.4225C37.2322 8.77128 37.3814 10.864 37.3814 10.864C37.3814 10.864 37.9781 11.5617 38.4256 12.3755C38.612 11.5617 39.358 10.1664 43.0873 10.2439C44.6002 10.2754 47.6689 10.9511 50.7822 11.7431C51.2059 11.0942 51.9213 10.6678 52.7328 10.6678C53.9609 10.6678 54.9685 11.6447 55.0777 12.8914C57.868 13.668 59.9999 14.3134 59.9999 14.3134V12.4142C47.0032 8.34499 42.9753 8.07372 40.1038 8.4225Z" fill="#002E65"/>
<path d="M52.9937 15.5484V16.027C54.0201 16.2587 54.7929 16.4351 55.0212 16.4837C55.7951 16.6485 60 17.6852 60 17.6852V15.9494C60 15.9494 57.2236 15.2337 54.6245 14.5707C54.2441 15.104 53.6619 15.4719 52.9937 15.5484Z" fill="#002E65"/>
<path d="M50.4104 13.5117C48.7519 13.1163 45.3256 12.2495 43.3204 12.24C41.2879 12.2302 40.6818 12.3465 39.8801 12.9861C39.6377 13.2282 39.3765 13.9065 39.3765 13.9065L40.3368 15.5439C40.3368 15.5439 40.4394 14.6622 41.3158 14.4393C42.1922 14.2164 43.0872 14.0905 45.1664 14.3909C46.5315 14.5881 50.0186 15.3575 52.4718 15.9093V15.5484C51.4199 15.4278 50.5791 14.5875 50.4104 13.5117Z" fill="#002E65"/>
<path d="M53.8249 19.7375C57.0315 20.4255 60 21.057 60 21.057V19.3323C60 19.3323 56.3622 18.5207 52.9937 17.7719V19.2094C53.3299 19.2756 53.6198 19.4693 53.8249 19.7375Z" fill="#002E65"/>
<path d="M52.4718 17.6559C50.8808 17.3023 49.3976 16.9734 48.4482 16.7647C45.4088 16.0962 41.9125 15.5535 41.2972 17.1813L42.1177 18.78C42.1177 18.78 42.4347 18.2569 43.4415 18.1794C44.4485 18.1018 46.2013 18.092 50.3223 18.9835C50.885 19.1052 51.4749 19.2324 52.0735 19.3613C52.1973 19.2919 52.3293 19.2375 52.4718 19.2094V17.6559Z" fill="#002E65"/>
<path d="M53.7099 22.8555H53.7101H54.1298H53.7099Z" fill="#002E65"/>
<path d="M53.5907 21.7876H54.1297C54.4116 21.7876 54.6409 22.026 54.6409 22.3189V22.6491C54.6409 22.7841 54.5883 22.9042 54.5082 22.9981C59.1854 23.7327 60 23.8571 60 23.8571V22.4489C60 22.4489 57.054 21.8536 53.9965 21.2573C53.9025 21.4637 53.7651 21.6467 53.5907 21.7876Z" fill="#002E65"/>
<path d="M51.3358 21.7876H51.8748C51.5667 21.5387 51.375 21.1603 51.3444 20.7464C49.8071 20.4549 48.4739 20.2126 47.7801 20.1106C45.4057 19.7618 43.0065 19.7232 42.9319 20.2915L43.5534 21.9063C43.5534 21.9063 43.5783 21.7514 44.3491 21.6996C44.9268 21.6609 47.5793 21.8763 50.8245 22.3674V22.3189C50.8245 22.026 51.0539 21.7876 51.3358 21.7876Z" fill="#002E65"/>
<path d="M49.6711 25.0232C49.6881 25.0232 49.7053 25.0247 49.7224 25.0276C49.8401 25.0479 49.9365 25.1362 49.9707 25.255C49.9933 25.3336 50.024 25.4103 50.0585 25.4854C50.6861 25.5544 51.3613 25.6289 52.055 25.7052V24.0283C48.2041 23.5874 44.3359 23.2118 44.0196 23.4404L44.2994 25.2717C44.2994 25.2717 44.6909 24.8938 48.383 25.3008C48.6608 25.3313 48.9649 25.3648 49.2853 25.4001C49.3516 25.2577 49.4085 25.1713 49.4167 25.1595C49.4759 25.0732 49.5712 25.0232 49.6711 25.0232Z" fill="#002E65"/>
<path d="M55.0492 26.0348C55.2273 25.8209 55.4098 25.5507 55.4948 25.255C55.5291 25.1362 55.6254 25.048 55.7431 25.0276C55.7603 25.0247 55.7774 25.0232 55.7943 25.0232C55.8943 25.0232 55.9896 25.0732 56.0489 25.1595C56.0673 25.1862 56.3312 25.5841 56.3955 26.1831C58.4464 26.4087 60 26.5797 60 26.5797V25.0101C60 25.0101 56.8889 24.5973 53.4105 24.1861V25.8544C53.9631 25.9153 54.514 25.9759 55.0492 26.0348Z" fill="#002E65"/>
<path d="M53.2426 29.069C53.4178 28.9468 53.6307 28.8272 53.8738 28.693C53.6306 28.8272 53.4178 28.9468 53.2426 29.069Z" fill="#002E65"/>
<path d="M51.8261 27.3972L51.2184 27.3564C51.3508 27.4208 51.4846 27.462 51.6138 27.462C51.6905 27.462 51.7609 27.4353 51.8261 27.3972Z" fill="#002E65"/>
<path d="M51.4968 28.6404C51.7316 28.7698 51.9339 28.8828 52.11 28.996C51.9338 28.8828 51.7316 28.7698 51.4968 28.6404Z" fill="#002E65"/>
<path d="M50.71 28.5641C50.2644 28.2992 49.9657 27.988 49.7681 27.7113C49.7421 27.7273 49.7135 27.7395 49.6829 27.7473C49.6582 27.7534 49.6335 27.7564 49.6089 27.7564C49.4942 27.7564 49.386 27.6905 49.3314 27.5809C49.2701 27.4577 49.2242 27.3378 49.1851 27.2198L44.4112 26.8994C44.4112 26.8994 44.3553 27.8101 44.0943 28.566C45.1757 28.5078 49.1102 28.7403 50.5087 28.876C50.7011 28.8946 51.0048 28.9185 51.3834 28.9457C51.3793 28.9435 51.3763 28.9417 51.3722 28.9395C51.1722 28.8294 50.9513 28.7075 50.71 28.5641Z" fill="#002E65"/>
<path d="M55.7826 27.7523C55.751 27.7443 55.7214 27.7316 55.6946 27.7151C55.4969 27.991 55.1989 28.3004 54.7554 28.5641C54.5142 28.7075 54.2933 28.8294 54.0932 28.9395C53.9863 28.9985 53.8919 29.0513 53.7997 29.1036C56.3321 29.259 59.3995 29.4257 59.9999 29.4379V27.9459L56.0536 27.6809C55.9973 27.7303 55.9276 27.7611 55.8535 27.7611C55.83 27.7611 55.8062 27.7583 55.7826 27.7523Z" fill="#002E65"/>
<path d="M43.5907 29.9805C43.5907 29.9805 42.6957 31.2982 42.1735 31.6664C43.6467 31.5695 45.1385 31.492 47.5625 31.6664C49.9866 31.8408 59.1422 32.3253 60 32.1509V30.6974C60 30.6974 48.5322 30.213 47.2082 30.155C45.8843 30.0967 43.8331 30.0774 43.5907 29.9805Z" fill="#002E65"/>
<path d="M41.6888 32.9647C39.9173 33.0229 38.6679 34.9607 38.6679 34.9607C39.1715 34.98 46.8353 34.8638 48.5322 34.8832C50.229 34.9025 59.9999 34.8444 59.9999 34.8444V33.4104C59.9999 33.4104 53.66 33.3329 51.8699 33.2748C50.0798 33.2166 43.4602 32.9066 41.6888 32.9647Z" fill="#002E65"/>
<path d="M38.295 36.2977C37.7543 36.8597 37.8289 37.4605 38.0527 38.2549C38.0527 38.2549 38.2391 37.2666 40.6818 37.2666C43.1246 37.2666 57.9861 37.4216 58.7693 37.4023C59.5524 37.383 59.9999 37.4023 59.9999 37.4023V36.0265C59.9999 36.0265 41.1852 35.8133 41.0921 35.8133C40.9988 35.8133 38.8358 35.7358 38.295 36.2977Z" fill="#002E65"/>
<path d="M46.1827 38.5069C44.001 38.5455 39.7308 38.4488 39.2087 38.8557C38.6866 39.2626 38.3137 39.6889 39.4697 40.8129C39.4697 40.8129 39.5443 40.0958 40.7378 40.0765C42.1363 39.999 57.5945 39.8634 58.5827 39.8826C59.5711 39.902 59.9999 39.8808 59.9999 39.8808V38.6038C59.9999 38.6038 48.3643 38.468 46.1827 38.5069Z" fill="#002E65"/>
<path d="M54.9625 41.0841C52.5915 41.0648 43.2737 41.0648 42.0058 41.1423C40.7378 41.2199 40.2903 41.3942 40.4581 41.6848C40.6259 41.9755 41.2412 42.3438 41.2412 42.3438H59.9999V41.0734C59.9999 41.0734 57.3335 41.1035 54.9625 41.0841Z" fill="#002E65"/>
<path d="M42.1736 0.564648C35.0132 -0.791853 33.2604 1.53361 33.0739 3.12251C32.8874 4.71153 34.0436 5.56411 34.0436 5.56411C34.0436 5.56411 33.9317 1.8824 40.9429 2.38619C47.9541 2.88999 59.9999 7.41754 59.9999 7.41754V5.56411C59.9999 5.56411 48.5508 1.8824 42.1736 0.564648Z" fill="#D7DF28"/>
<path d="M53.1327 29.1537C53.0462 29.2217 52.9663 29.2913 52.9005 29.3678C52.8544 29.4213 52.8135 29.4778 52.7778 29.5382C52.7572 29.5732 52.7083 29.5732 52.6877 29.5382C52.652 29.4778 52.6111 29.4213 52.565 29.3678C52.5189 29.3141 52.4677 29.2634 52.4114 29.2146C52.3243 29.1388 52.2212 29.0675 52.11 28.996C51.845 28.9783 51.6024 28.9614 51.3833 28.9457C51.9078 29.2347 52.2557 29.4276 52.4212 29.7081C52.4879 29.8215 52.6045 29.8894 52.7328 29.8894C52.861 29.8894 52.9776 29.8215 53.0445 29.7077C53.1775 29.4823 53.4335 29.3117 53.7997 29.1036C53.6105 29.0921 53.4247 29.0804 53.2426 29.069C53.2031 29.0966 53.1686 29.1253 53.1327 29.1537Z" fill="#002E65"/>
<path d="M53.1132 27.1614C53.1378 27.2864 53.1937 27.3984 53.2682 27.4939L54.5162 27.5777C54.5829 27.5376 54.6477 27.4947 54.709 27.4484C54.7852 27.3912 54.8571 27.3307 54.923 27.2699C54.971 27.2259 55.0159 27.1818 55.0575 27.139C55.0991 27.0962 55.1374 27.0546 55.1718 27.0156C55.2408 26.9378 55.2948 26.8701 55.3309 26.823C55.296 26.8111 55.2515 26.8041 55.2118 26.7946C55.093 26.766 54.9593 26.7451 54.7919 26.7451C54.7919 26.7451 54.8404 26.7067 54.9167 26.637C54.9931 26.5671 55.0973 26.4661 55.2086 26.3403C55.2642 26.2775 55.3215 26.2086 55.3781 26.1343C55.392 26.1159 55.405 26.0946 55.4189 26.0754C55.2964 26.0621 55.1736 26.0485 55.0492 26.0348C54.8242 26.3052 54.6063 26.4836 54.6024 26.4867C54.496 26.5715 54.453 26.7172 54.496 26.8491C54.5275 26.9456 54.5995 27.0191 54.6884 27.0516C54.4732 27.2447 54.1618 27.4621 53.8517 27.4621C53.6083 27.4621 53.4104 27.2563 53.4104 27.0035L53.4105 25.8544C53.3063 25.8429 53.2021 25.8315 53.0979 25.82V27.0035C53.0979 27.0576 53.1032 27.1105 53.1132 27.1614Z" fill="#002E65"/>
<path d="M53.7101 22.8555H53.0979V24.1494C53.2023 24.1616 53.3066 24.1739 53.4105 24.1861L53.4104 23.1804H54.1297C54.2817 23.1804 54.4145 23.1079 54.5082 22.9981C54.4127 22.9831 54.3182 22.9682 54.2194 22.9529C54.0493 22.9196 53.8796 22.8872 53.7101 22.8555Z" fill="#002E65"/>
<path d="M52.9937 20.044V20.1927C52.9937 20.2654 52.9654 20.3307 52.9205 20.3793C52.9312 20.3877 52.9443 20.3926 52.9538 20.4022C52.9383 20.3967 52.9203 20.398 52.9042 20.3936C52.8581 20.436 52.7991 20.464 52.7327 20.464C52.6663 20.464 52.6074 20.436 52.5613 20.3936C52.5452 20.398 52.5272 20.3967 52.5116 20.4022C52.5211 20.3926 52.5343 20.3877 52.545 20.3793C52.5001 20.3307 52.4718 20.2654 52.4718 20.1927V20.044C52.3662 20.0944 52.2755 20.1728 52.2111 20.2719C52.1659 20.3414 52.1332 20.4206 52.1165 20.5057C52.108 20.5482 52.1036 20.5922 52.1036 20.6375C52.1036 20.7322 52.1263 20.8207 52.1612 20.9021C52.2374 20.9166 52.3147 20.9315 52.3913 20.9464C52.4096 20.8911 52.4357 20.8401 52.4746 20.7997C52.5406 20.7311 52.6319 20.6886 52.7327 20.6886C52.8335 20.6886 52.9249 20.7311 52.9909 20.7997C53.0569 20.8685 53.0978 20.9634 53.0978 21.0681V21.0826C53.1236 21.0875 53.149 21.0925 53.1747 21.0975C53.2086 21.0623 53.2381 21.0235 53.2637 20.981C53.288 20.9406 53.3073 20.8976 53.3227 20.8519C53.3308 20.8279 53.3396 20.8045 53.345 20.7792C53.3549 20.7334 53.3618 20.6864 53.3618 20.6375C53.3618 20.4772 53.3043 20.3326 53.2122 20.2189C53.1526 20.1452 53.0789 20.0847 52.9937 20.044Z" fill="#002E65"/>
<path d="M51.6448 20.6374C51.6448 20.4813 51.6753 20.3326 51.7304 20.1974C51.7853 20.062 51.8651 19.9402 51.9635 19.838C52.0619 19.7357 52.1792 19.6528 52.3093 19.5957C52.3611 19.5729 52.4163 19.5574 52.4718 19.5433V19.4469C52.3387 19.4183 52.206 19.3898 52.0735 19.3613C51.6346 19.6072 51.3323 20.0839 51.3323 20.6374C51.3323 20.6747 51.3418 20.7096 51.3444 20.7464C51.4485 20.7661 51.552 20.7858 51.6577 20.8059C51.6498 20.7508 51.6448 20.6947 51.6448 20.6374Z" fill="#002E65"/>
<path d="M52.3676 22.8555H51.3357C51.2536 22.8555 51.1829 22.8035 51.1528 22.7293C51.1428 22.7047 51.1371 22.6776 51.1371 22.649V22.4154C51.0326 22.3993 50.928 22.3831 50.8245 22.3674L50.8246 22.649C50.8246 22.942 51.0539 23.1804 51.3357 23.1804H52.0551L52.055 24.0283C52.1592 24.0403 52.2635 24.0524 52.3677 24.0644L52.3676 22.8555Z" fill="#002E65"/>
<path d="M53.1562 19.5956C53.2864 19.6529 53.4035 19.7357 53.5021 19.8379C53.6005 19.9402 53.6801 20.0621 53.7352 20.1973C53.7902 20.3326 53.8206 20.4814 53.8206 20.6374C53.8206 20.7603 53.8018 20.8785 53.767 20.9892C53.7441 21.0618 53.7121 21.1296 53.6763 21.1949C53.7832 21.2158 53.8898 21.2364 53.9965 21.2573C54.0831 21.0669 54.1333 20.8568 54.1333 20.6374C54.1333 20.2961 54.0148 19.9861 53.8249 19.7375C53.5977 19.6888 53.3696 19.6399 53.1411 19.5908C53.146 19.5929 53.1514 19.5937 53.1562 19.5956Z" fill="#002E65"/>
<path d="M51.9259 27.3277C51.8968 27.3579 51.861 27.3768 51.8261 27.3972L52.2473 27.4254C52.2765 27.3782 52.2998 27.327 52.3188 27.2736C52.3488 27.1891 52.3676 27.099 52.3676 27.0036L52.3677 25.7396C52.263 25.7281 52.159 25.7166 52.0551 25.7051V27.0036C52.0551 27.126 52.0091 27.2411 51.9259 27.3277Z" fill="#002E65"/>
<path d="M49.4012 26.8105C49.3897 26.7451 49.3814 26.6812 49.3761 26.6188C49.3709 26.5564 49.3685 26.4957 49.3686 26.4365C49.3687 26.3775 49.3714 26.3202 49.3759 26.2648C49.3899 26.0986 49.422 25.9496 49.4602 25.8225C49.4855 25.7376 49.5137 25.6627 49.541 25.5987C49.5694 25.5318 49.5964 25.478 49.6187 25.4368C49.5053 25.4244 49.3946 25.4122 49.2854 25.4002C49.1271 25.7411 48.9181 26.4133 49.1851 27.2198L49.5258 27.2427C49.4668 27.0936 49.4257 26.9487 49.4012 26.8105Z" fill="#002E65"/>
<path d="M50.6736 26.7451C50.5062 26.7451 50.3725 26.766 50.2537 26.7946C50.214 26.8041 50.1695 26.8111 50.1346 26.823C50.2129 26.9252 50.3791 27.1238 50.5957 27.3145L51.2184 27.3564C51.0662 27.2823 50.9159 27.1766 50.7765 27.0519C50.8658 27.0195 50.9384 26.9458 50.9698 26.8489C51.0126 26.7167 50.9695 26.5708 50.8627 26.4865C50.8569 26.4818 50.3178 26.0473 50.0584 25.4852C49.9398 25.4722 49.8235 25.4595 49.7085 25.4467C49.7306 25.5095 49.751 25.573 49.779 25.633C50.0786 26.2753 50.6736 26.7451 50.6736 26.7451Z" fill="#002E65"/>
<path d="M56.0895 26.2648C56.1173 26.5972 56.0721 26.9984 55.8565 27.4316V27.4314C55.8565 27.4316 55.8565 27.4316 55.8565 27.4316C55.8565 27.4316 55.8565 27.2409 55.7006 27.0605C55.6455 27.197 55.54 27.4063 55.3563 27.6341L56.0536 27.6809C56.0855 27.6529 56.1142 27.6208 56.134 27.581C56.3943 27.0584 56.4378 26.5773 56.3955 26.1831C56.29 26.1714 56.1833 26.1597 56.0753 26.1478C56.0806 26.1862 56.0861 26.2244 56.0895 26.2648Z" fill="#002E65"/>
<path d="M49.7649 27.0605C49.7074 27.1271 49.6756 27.192 49.6528 27.2513L49.8628 27.2654C49.8456 27.2333 49.8279 27.2009 49.8141 27.172C49.7946 27.131 49.7782 27.0936 49.7649 27.0605Z" fill="#002E65"/>
<path d="M52.9937 19.2094L52.9937 19.5433C53.0439 19.5562 53.0938 19.5708 53.1411 19.5908C53.3697 19.6399 53.5978 19.6888 53.8249 19.7375C53.6198 19.4693 53.3299 19.2756 52.9937 19.2094Z" fill="#002E65"/>
<path d="M52.4718 19.2094C52.3293 19.2374 52.1973 19.2919 52.0735 19.3613C52.206 19.3898 52.3387 19.4183 52.4718 19.4469L52.4718 19.2094Z" fill="#002E65"/>
<path d="M53.0978 21.0826L53.0978 21.1698C53.1178 21.155 53.1341 21.1357 53.1522 21.1187C53.1597 21.1115 53.1675 21.105 53.1746 21.0975C53.149 21.0925 53.1235 21.0875 53.0978 21.0826Z" fill="#002E65"/>
<path d="M53.2499 21.6323C53.2013 21.6595 53.1505 21.6832 53.0978 21.7027L53.0978 22.1125H54.1297C54.1846 22.1125 54.2341 22.1356 54.2701 22.173C54.306 22.2104 54.3283 22.2619 54.3283 22.319V22.649C54.3283 22.706 54.306 22.7576 54.2702 22.795C54.2342 22.8324 54.1845 22.8555 54.1297 22.8555L53.7101 22.8555C53.8796 22.8872 54.0493 22.9196 54.2194 22.9529C54.3182 22.9684 54.4127 22.9831 54.5082 22.9981C54.5883 22.9042 54.6409 22.7841 54.6409 22.6491L54.6409 22.319C54.6409 22.026 54.4116 21.7876 54.1297 21.7876H53.5907C53.7653 21.6467 53.9025 21.4638 53.9965 21.2573C53.8898 21.2366 53.7831 21.2158 53.6763 21.1949C53.5756 21.3785 53.429 21.5315 53.2499 21.6323Z" fill="#002E65"/>
<path d="M51.1371 22.3189C51.1371 22.2904 51.1427 22.2634 51.1528 22.2386C51.1829 22.1645 51.2535 22.1125 51.3358 22.1125H52.3677V21.7027C51.9991 21.5662 51.722 21.229 51.6587 20.8179C51.6581 20.814 51.6583 20.8098 51.6577 20.8059C51.552 20.7858 51.4485 20.7662 51.3445 20.7464C51.375 21.1603 51.5667 21.5387 51.8748 21.7876H51.3358C51.0539 21.7876 50.8246 22.0259 50.8246 22.3189V22.3674C50.928 22.3831 51.0325 22.3993 51.1371 22.4154L51.1371 22.3189Z" fill="#002E65"/>
<path d="M52.3676 21.0681C52.3676 21.0249 52.3786 20.985 52.3913 20.9464C52.3146 20.9316 52.2372 20.9166 52.1612 20.9021C52.2054 21.005 52.2723 21.0945 52.3583 21.161C52.3617 21.1636 52.3642 21.1672 52.3676 21.1698V21.0681Z" fill="#002E65"/>
<path d="M52.3677 25.7396V24.0644C52.2635 24.0524 52.1593 24.0404 52.0551 24.0284L52.055 25.7052C52.1589 25.7166 52.263 25.7281 52.3677 25.7396Z" fill="#002E65"/>
<path d="M49.6712 25.348C49.6809 25.3819 49.6968 25.4135 49.7085 25.4467C49.8235 25.4595 49.9397 25.4724 50.0585 25.4854C50.0238 25.4105 49.9933 25.3337 49.9707 25.255C49.9364 25.1362 49.8401 25.0479 49.7224 25.0276C49.7053 25.0247 49.6881 25.0232 49.6711 25.0232C49.571 25.0232 49.4759 25.0731 49.4166 25.1595C49.4085 25.1714 49.3515 25.2577 49.2854 25.4002C49.3946 25.4122 49.5053 25.4244 49.6187 25.4369C49.6498 25.3795 49.6712 25.348 49.6712 25.348Z" fill="#002E65"/>
<path d="M53.0979 25.82C53.2022 25.8315 53.3063 25.8429 53.4105 25.8544V24.1861C53.3066 24.1739 53.2023 24.1616 53.0979 24.1494L53.0979 25.82Z" fill="#002E65"/>
<path d="M55.7943 25.0232C55.7774 25.0232 55.7602 25.0247 55.7431 25.0276C55.6253 25.048 55.529 25.1362 55.4948 25.255C55.4098 25.5507 55.2273 25.8209 55.0492 26.0348C55.1735 26.0485 55.2965 26.062 55.4188 26.0755C55.5168 25.941 55.6115 25.7938 55.6866 25.633C55.7294 25.5412 55.7661 25.446 55.7944 25.3481C55.7944 25.3481 55.8566 25.4388 55.9246 25.5987C55.9517 25.6627 55.9799 25.7377 56.0054 25.8226C56.0343 25.9187 56.0586 26.0287 56.0753 26.1478C56.1833 26.1597 56.2898 26.1714 56.3955 26.1831C56.3312 25.5841 56.0672 25.1862 56.0488 25.1595C55.9896 25.0732 55.8943 25.0232 55.7943 25.0232Z" fill="#002E65"/>
<path d="M53.8516 27.7869C54.0867 27.7869 54.3125 27.6997 54.5162 27.5777L53.2682 27.4938C53.4064 27.6712 53.615 27.7869 53.8516 27.7869Z" fill="#002E65"/>
<path d="M51.4968 28.6404C51.3477 28.5583 51.1836 28.4664 51.0117 28.3668C50.9627 28.3384 50.9161 28.3124 50.8653 28.2822C50.8333 28.2631 50.8065 28.2428 50.7762 28.2233C50.6588 28.1479 50.5526 28.0698 50.459 27.9901C50.4397 27.9737 50.419 27.9575 50.4008 27.9413C50.2787 27.8314 50.1761 27.7206 50.092 27.6141C49.9921 27.488 49.9191 27.3698 49.8628 27.2654L49.6528 27.2513C49.6447 27.2723 49.6336 27.2953 49.6285 27.3137C49.6187 27.3487 49.6139 27.3783 49.6114 27.3989C49.6089 27.4197 49.609 27.4316 49.609 27.4316C49.5773 27.3678 49.5507 27.305 49.5259 27.2428L49.1852 27.2199C49.2243 27.3379 49.2701 27.4577 49.3314 27.5809C49.3859 27.6905 49.4942 27.7565 49.609 27.7565C49.6335 27.7565 49.6582 27.7535 49.6829 27.7473C49.7135 27.7395 49.742 27.7273 49.7681 27.7113C49.9657 27.988 50.2644 28.2992 50.71 28.5641C50.9513 28.7076 51.1722 28.8294 51.3722 28.9395C51.3763 28.9417 51.3793 28.9436 51.3834 28.9457C51.6023 28.9615 51.845 28.9782 52.11 28.996C51.9339 28.8828 51.7316 28.7698 51.4968 28.6404Z" fill="#002E65"/>
<path d="M51.8261 27.3972C51.7609 27.4353 51.6905 27.462 51.6138 27.462C51.4846 27.462 51.3508 27.4208 51.2184 27.3564L50.5957 27.3145C50.871 27.5572 51.2296 27.7868 51.6138 27.7868C51.718 27.7868 51.8171 27.7649 51.9072 27.7253C51.9523 27.7054 51.9952 27.6812 52.0353 27.6531C52.0754 27.625 52.1128 27.593 52.1468 27.5575C52.181 27.522 52.2118 27.4832 52.2388 27.4416C52.2422 27.4366 52.2441 27.4305 52.2473 27.4255L51.8261 27.3972Z" fill="#002E65"/>
<path d="M55.2287 27.782C55.1222 27.8953 54.9954 28.0102 54.8447 28.1206C54.7693 28.1759 54.6879 28.2299 54.6002 28.2821C54.4856 28.3503 54.3755 28.4135 54.2703 28.4728C54.1284 28.5528 53.9985 28.6242 53.8738 28.693C53.6307 28.8271 53.4179 28.9468 53.2426 29.069C53.4247 29.0804 53.6105 29.092 53.7997 29.1036C53.8919 29.0513 53.9863 28.9984 54.0932 28.9395C54.2933 28.8292 54.5142 28.7075 54.7554 28.5641C55.1989 28.3004 55.4969 27.991 55.6946 27.7151C55.7214 27.7316 55.751 27.7443 55.7826 27.7523C55.8062 27.7583 55.83 27.7611 55.8535 27.7611C55.9276 27.7611 55.9973 27.7303 56.0536 27.6809L55.3563 27.6341C55.3171 27.683 55.2756 27.7321 55.2287 27.782Z" fill="#002E65"/>
<path d="M49.3761 26.6188C49.3708 26.5564 49.3684 26.4956 49.3687 26.4366C49.3685 26.4956 49.3708 26.5564 49.3761 26.6188Z" fill="#002E65"/>
<path d="M53.345 20.7792C53.3396 20.8045 53.3307 20.8279 53.3227 20.8519C53.3307 20.828 53.3396 20.8045 53.345 20.7792Z" fill="#002E65"/>
<path d="M52.7327 29.5645C52.7153 29.5645 52.698 29.5557 52.6877 29.5382C52.7083 29.5732 52.7571 29.5732 52.7778 29.5382C52.7675 29.5557 52.7502 29.5645 52.7327 29.5645Z" fill="#002E65"/>
<path d="M55.8565 27.4314V27.4316C56.0722 26.9984 56.1173 26.5972 56.0895 26.2648C56.1173 26.5972 56.0722 26.9984 55.8565 27.4314Z" fill="#002E65"/>
<path d="M50.1346 26.823C50.2129 26.9251 50.3791 27.1238 50.5957 27.3145C50.3791 27.1236 50.2129 26.9252 50.1346 26.823Z" fill="#002E65"/>
<path d="M53.1132 27.1614C53.1377 27.2864 53.1937 27.3984 53.2682 27.4939C53.1937 27.3984 53.1378 27.2864 53.1132 27.1614Z" fill="#002E65"/>
<path d="M53.2122 20.2189C53.1526 20.1452 53.0789 20.0848 52.9937 20.044C53.0789 20.0847 53.1526 20.1452 53.2122 20.2189Z" fill="#002E65"/>
<path d="M54.709 27.4484C54.6477 27.4947 54.583 27.5376 54.5162 27.5777C54.583 27.5377 54.6477 27.4947 54.709 27.4484Z" fill="#002E65"/>
<path d="M50.7762 28.2233C50.8065 28.2428 50.8333 28.2631 50.8653 28.2822C50.9161 28.3124 50.9627 28.3384 51.0117 28.3668C50.9627 28.3384 50.9162 28.3124 50.8653 28.2822C50.8335 28.2631 50.8065 28.2428 50.7762 28.2233Z" fill="#002E65"/>
<path d="M50.459 27.9901C50.4398 27.9737 50.419 27.9576 50.4008 27.9414C50.419 27.9576 50.4397 27.9737 50.459 27.9901Z" fill="#002E65"/>
<path d="M53.2682 27.4938C53.4064 27.6712 53.615 27.7869 53.8516 27.7869C53.6149 27.7869 53.4064 27.6712 53.2682 27.4938Z" fill="#002E65"/>
<path d="M4.40869 8.73178C3.55087 8.73178 3.17687 9.07381 3.17182 9.54035C3.14692 10.0482 3.58082 10.3437 4.54835 10.5562L5.3862 10.7427C7.6404 11.2454 8.56799 12.3805 8.57798 13.9975C8.56799 16.0913 7.01703 17.2523 4.42866 17.2523C1.76546 17.2523 0.029845 16.0602 0.0199809 13.3963H2.65323C2.6981 14.3707 3.32652 14.889 4.38872 14.889C5.27649 14.889 5.7353 14.5209 5.74528 13.9975C5.7353 13.5155 5.34626 13.2201 4.20924 12.9611L3.19179 12.7329C1.38147 12.3286 0.274284 11.4062 0.279336 9.74762C0.264299 7.72631 1.97994 6.36843 4.40869 6.36843C6.8823 6.36843 8.42833 7.74706 8.43831 9.83051H5.7851C5.73036 9.14132 5.30633 8.73178 4.40869 8.73178Z" fill="#002E65"/>
<path d="M9.98561 6.51358H12.7585V10.6598H16.4291V6.51358H19.202V17.1279H16.4291V12.9817H12.7585V17.1279H9.98561V6.51358Z" fill="#002E65"/>
<path d="M23.6417 17.128H20.8688V6.51359H23.6417V17.128Z" fill="#002E65"/>
<path d="M29.0593 11.7378C30.0317 11.7378 30.6153 11.1729 30.6153 10.2659C30.6153 9.3537 30.0317 8.81478 29.0593 8.81478H28.0819V11.7378H29.0593ZM25.309 6.51356H29.7176C31.9868 6.51356 33.5079 8.00633 33.5079 10.2659C33.5079 12.5515 31.9468 13.9769 29.6179 13.9769H28.0819V17.1279H25.309V6.51356Z" fill="#002E65"/>
<path d="M0 19.43H8.87726V21.7519H5.80505V30.0444H3.07208V21.7519H0V19.43Z" fill="#D7DF28"/>
<path d="M10.2648 19.43H17.626V21.7519H13.0378V23.5763H17.247V25.8981H13.0378V27.7224H17.6061V30.0444H10.2648V19.43Z" fill="#D7DF28"/>
<path d="M26.0756 23.4104C25.9957 22.4464 25.3874 21.7934 24.3201 21.7934C22.9236 21.7934 22.1655 22.8922 22.1655 24.7371C22.1655 26.686 22.9485 27.681 24.3002 27.681C25.3175 27.681 25.9359 27.116 26.0756 26.2092L28.8883 26.2299C28.7488 28.0335 27.2326 30.1895 24.2403 30.1895C21.4275 30.1895 19.3129 28.2667 19.3129 24.7371C19.3129 21.1922 21.4873 19.2849 24.2403 19.2849C26.8137 19.2849 28.6689 20.7775 28.8883 23.4104H26.0756Z" fill="#D7DF28"/>
<path d="M30.4953 19.43H33.2682V23.5763H36.9387V19.43H39.7116V30.0444H36.9387V25.8981H33.2682V30.0444H30.4953V19.43Z" fill="#D7DF28"/>
<path d="M2.78981 33.0349C1.65652 33.0349 0.74733 33.9667 0.74733 35.6883C0.74733 37.4097 1.65652 38.3416 2.83973 38.3416C3.92022 38.3416 4.67374 37.5908 4.69528 36.4001H3.01416V35.6883H5.44267V36.4001C5.44267 38.0406 4.35893 39.0922 2.83973 39.0922C1.14587 39.0922 6.05731e-05 37.785 6.05731e-05 35.6883C6.05731e-05 33.5916 1.15525 32.2842 2.78981 32.2842C4.13483 32.2842 5.16876 33.1644 5.40538 34.4458H4.6083C4.3374 33.5754 3.71139 33.0349 2.78981 33.0349Z" fill="#002E65"/>
<path d="M6.7669 32.3749H7.53907V38.2897H10.5034V39.0016H6.7669V32.3749Z" fill="#002E65"/>
<path d="M14.0182 33.0349C12.8599 33.0349 11.9506 33.9667 11.9506 35.6883C11.9506 37.4097 12.8599 38.3416 14.0182 38.3416C15.1765 38.3416 16.0855 37.4097 16.0855 35.6883C16.0855 33.9667 15.1765 33.0349 14.0182 33.0349ZM14.0182 39.0922C12.3868 39.0922 11.2036 37.785 11.2036 35.6883C11.2036 33.5916 12.3868 32.2842 14.0182 32.2842C15.6497 32.2842 16.8329 33.5916 16.8329 35.6883C16.8329 37.785 15.6497 39.0922 14.0182 39.0922Z" fill="#002E65"/>
<path d="M20.4361 38.2897C21.4453 38.2897 21.8311 37.8238 21.8311 37.2414C21.8311 36.5683 21.3082 35.9859 20.4738 35.9859H18.9044V38.2897H20.4361ZM20.3367 35.287C21.034 35.287 21.5821 34.834 21.5821 34.1351C21.5821 33.5527 21.2083 33.0868 20.3616 33.0868H18.9044V35.287H20.3367ZM18.1323 32.3749H20.3616C21.6943 32.3749 22.317 33.1645 22.317 34.1351C22.317 34.9893 21.8311 35.3647 21.2833 35.52V35.5847C21.8687 35.6235 22.566 36.193 22.566 37.2414C22.566 38.2381 21.9433 39.0016 20.4361 39.0016H18.1323V32.3749Z" fill="#002E65"/>
<path d="M27.0779 36.413L26.0567 33.4233H26.0069L24.9857 36.413H27.0779ZM23.2917 39.0017L25.6333 32.3749H26.4303L28.7719 39.0017H27.9623L27.3206 37.1249H24.7426L24.1012 39.0017H23.2917Z" fill="#002E65"/>
<path d="M29.7715 32.3749H30.5437V38.2897H33.508V39.0016H29.7715V32.3749Z" fill="#002E65"/>
</svg>
