<svg width="74" height="85" viewBox="0 0 74 85" fill="none" xmlns="http://www.w3.org/2000/svg">
<path fill-rule="evenodd" clip-rule="evenodd" d="M37 84.0954C37 84.0954 74 67.6231 74 36.7917C74 16.4722 57.4345 0 37 0C16.5655 0 0 16.4722 0 36.7917C0 67.6231 37 84.0954 37 84.0954ZM37 52.5601C45.7576 52.5601 52.8571 45.5005 52.8571 36.7922C52.8571 28.0838 45.7576 21.0243 37 21.0243C28.2423 21.0243 21.1428 28.0838 21.1428 36.7922C21.1428 45.5005 28.2423 52.5601 37 52.5601Z" fill="#002E65"/>
<ellipse cx="36.9978" cy="36.7923" rx="15.8571" ry="15.7679" fill="#D8E037"/>
<path d="M41.5833 39.7497L43.0042 41.1705C42.1242 42.7197 39.9517 43.9572 37.9167 44.2597V36.083H40.6667V34.2497H37.9167V33.168C38.98 32.783 39.75 31.7747 39.75 30.583C39.75 29.0705 38.5125 27.833 37 27.833C35.4875 27.833 34.25 29.0705 34.25 30.583C34.25 31.7747 35.02 32.783 36.0833 33.168V34.2497H33.3333V36.083H36.0833V44.2597C34.0483 43.9572 31.8758 42.7197 30.9958 41.1705L32.4167 39.7497L28.75 36.9997V39.7497C28.75 43.3063 33.26 46.1663 37 46.1663C40.74 46.1663 45.25 43.3063 45.25 39.7497V36.9997L41.5833 39.7497ZM37 29.6663C37.5042 29.6663 37.9167 30.0788 37.9167 30.583C37.9167 31.0872 37.5042 31.4997 37 31.4997C36.4958 31.4997 36.0833 31.0872 36.0833 30.583C36.0833 30.0788 36.4958 29.6663 37 29.6663Z" fill="#002E65"/>
</svg>
