<svg width="60" height="47" viewBox="0 0 60 47" fill="none" xmlns="http://www.w3.org/2000/svg">
  <path d="M46.4308 21.3681H45.9755C45.7573 21.3486 45.5994 21.0672 45.3692 21.2195C45.412 21.593 45.848 21.5785 46.1786 21.669H46.4308C46.8618 21.5616 47.1887 21.3549 47.6417 21.269C47.8304 21.2377 48.1757 21.3645 48.1486 21.1191C47.9442 20.916 47.6785 21.0309 47.3392 21.0187C47.0662 21.1663 46.7601 21.2786 46.4308 21.3681Z" fill="#002E65" />
  <path d="M43.9036 20.8206C44.2255 20.857 44.4165 20.7625 44.7106 20.7711C45.1453 20.7929 45.4551 20.9342 45.7733 21.0697H46.4307C46.8557 20.9597 47.2428 20.8074 47.6931 20.7202H48.2994C48.4707 20.7288 48.9495 20.9042 48.9555 20.6212C48.8933 20.4834 48.6825 20.4907 48.5015 20.4702C47.4864 20.2721 46.868 20.7929 45.9252 20.8206C45.6729 20.7675 45.5053 20.637 45.2664 20.5716C45.1255 20.6129 45.1366 20.5003 45.0154 20.5221H44.1067C43.9451 20.5957 43.6587 20.5462 43.4984 20.6212C43.3023 20.6588 43.0096 20.602 43.044 20.8689C43.2154 21.0637 43.6232 20.8279 43.9036 20.8206Z" fill="#002E65" />
  <path d="M43.4309 23.6403C43.4309 23.5049 43.5424 23.3962 43.6782 23.3962C43.8154 23.3962 43.9268 23.5049 43.9268 23.6403C43.9268 23.7757 43.8154 23.8844 43.6782 23.8844C43.5424 23.8844 43.4309 23.7757 43.4309 23.6403ZM43.0954 23.7625L42.8933 23.6139C42.9364 23.5389 43.0207 23.5062 43.1455 23.5145C43.1027 23.5713 43.0783 23.6453 43.0954 23.7625ZM44.3578 24.062C44.3932 23.9266 44.1202 24.0984 44.157 23.963C44.3297 23.9075 44.3333 23.6281 44.2564 23.4639C44.4581 23.4445 44.5856 23.6634 44.7633 23.5145C44.7532 23.1727 44.3554 23.2172 44.1068 23.1145H43.3978C43.2105 23.1786 43.0281 23.2149 42.8421 23.3153C42.7183 23.3794 42.4697 23.4494 42.4881 23.6634C42.6534 23.7985 42.8481 23.9075 42.994 24.062C43.1897 24.1492 43.3573 24.2688 43.5999 24.3111C43.9074 24.282 44.3872 24.4234 44.3578 24.062Z" fill="#002E65" />
  <path d="M42.1845 23.5617C42.3337 23.4082 42.3719 23.1473 42.5395 23.0142C43.1421 22.601 44.5781 22.7301 45.2175 23.0142C45.264 23.1509 45.3718 23.2269 45.4196 23.3636C45.5591 23.5158 45.2714 23.7975 45.5702 23.8108C45.7733 23.8121 45.7121 23.5522 45.7207 23.3636C45.6619 23.1568 45.5357 23.0168 45.4196 22.8642C45.4879 22.7483 45.6214 22.6988 45.5702 22.4656C45.422 22.277 45.1453 22.2189 44.8635 22.1671C43.928 22.1403 43.1003 22.2225 42.2862 22.3157C41.9372 22.6433 41.4166 23.0409 41.528 23.6621C41.603 23.7394 41.7867 23.7067 41.9335 23.7117C41.9225 23.888 42.1049 23.8761 42.1366 24.0102C42.2384 24.0644 42.3424 24.2507 42.4883 24.1103C42.5408 23.7767 42.2066 23.824 42.1845 23.5617Z" fill="#002E65" />
  <path d="M21.8759 28.8482C21.7511 28.9763 21.7082 29.3921 21.9776 29.3958C22.0803 29.2422 22.1402 28.8822 21.8759 28.8482Z" fill="#002E65" />
  <path d="M22.5334 28.8977C22.3925 28.9872 22.3704 29.4198 22.5836 29.4453C22.6937 29.3858 22.794 28.8772 22.5334 28.8977Z" fill="#002E65" />
  <path d="M24.9064 29.1999C24.7826 29.3244 24.7498 29.687 25.0081 29.6966C25.1707 29.6097 25.1426 29.1817 24.9064 29.1999Z" fill="#002E65" />
  <path d="M19.2996 26.6546C19.3083 26.8963 19.2334 27.0545 19.1993 27.253C21.0726 27.4317 22.8981 27.6576 24.7558 27.8524C24.6908 27.6021 24.5486 27.4257 24.452 27.2045C22.6974 27.0558 21.0786 26.7755 19.2996 26.6546Z" fill="#002E65" />
  <path d="M7.27441 27.5526V27.7025C7.40925 27.8838 7.77763 27.8379 8.03359 27.902C8.28821 27.8861 8.65057 27.9806 8.63853 27.7025C8.38257 27.4862 7.69064 27.4498 7.27441 27.5526Z" fill="#002E65" />
  <path d="M52.6951 23.0154C52.4759 22.8328 52.4599 22.4487 52.2909 22.2165C52.149 21.9761 52.0169 21.7235 51.8355 21.5194C52.2006 20.7264 52.1932 19.3145 52.0892 18.227C53.0096 19.1454 52.7001 21.3162 52.6951 23.0154ZM51.8355 25.2586C51.6615 26.0515 51.3029 26.6605 51.0262 27.3544L50.976 27.4522C50.9746 27.8475 50.8351 28.1097 50.8268 28.5001C50.6722 28.7309 50.6809 29.12 50.371 29.1999C49.7587 29.2022 49.7122 28.6513 49.3107 28.4505C48.9862 28.1715 48.6151 27.9416 48.1474 27.8029C47.686 27.8293 47.6565 28.2801 47.2376 28.3501C46.3242 28.5146 45.8247 28.0347 45.0655 27.902C44.7998 27.9551 44.6432 28.117 44.5111 28.3006C44.3458 28.4528 44.1373 28.5641 44.0554 28.7999C43.7137 29.0754 43.4444 29.4271 42.8947 29.4971C42.4661 29.5358 42.2543 29.363 41.9849 29.2481C41.4656 28.6959 41.3569 27.7398 41.1769 26.8541L41.1254 26.7028C40.5743 25.7034 40.327 24.4019 40.217 22.9646C40.3367 22.0534 40.7322 21.4117 41.1254 20.77C42.193 20.0302 43.688 19.7112 45.3693 19.5745C46.6109 19.5444 47.7509 19.6167 48.6519 19.9216C49.5824 20.1861 50.2767 20.6805 50.9271 21.2195C51.2771 21.6376 51.6003 22.0861 51.8857 22.566C51.9004 22.735 51.8489 22.9718 51.9372 23.0627C51.9004 23.7912 51.9091 24.566 51.8355 25.2586ZM45.117 29.5467L45.2676 29.4971C45.7183 29.3921 46.1884 29.6821 46.7344 29.6484C47.1423 29.6652 47.6823 29.2204 47.8954 29.6484C47.8904 29.9915 47.5083 29.9611 47.2376 30.0447C46.7809 29.9456 46.1432 30.0011 45.6718 30.0447C45.46 30.0569 45.46 29.8548 45.2676 29.8465C45.2431 29.7161 44.9895 29.6784 45.117 29.5467ZM48.6017 30.8449C47.6308 31.553 45.4171 31.3198 44.3076 30.8931C44.3163 30.7709 44.2293 30.7396 44.2073 30.6454C44.1986 30.2201 44.49 30.0942 44.6616 29.8465C44.9541 30.0411 45.1732 30.3069 45.5212 30.4446C46.5741 30.295 47.9577 30.7323 48.2993 29.8465C48.4672 30.1137 48.6312 30.3842 48.6017 30.8449ZM40.1664 20.8218C40.1802 20.3734 40.0748 20.0434 40.1139 19.5745C40.0112 19.0946 39.8667 18.6547 39.863 18.0771C39.9891 17.7531 40.3391 17.6494 40.5181 17.3786L40.5706 17.4294C40.321 18.302 40.4077 19.618 40.6208 20.4714C40.583 20.585 40.4679 20.6201 40.3662 20.6696L40.1664 20.8218ZM39.5592 30.5959C39.3966 29.7729 39.0904 29.0949 39.0536 28.1507C39.1038 27.2708 39.3229 26.5542 39.509 25.8075C39.4832 25.5981 39.3571 25.4917 39.3069 25.3081C39.2704 24.6809 39.1296 24.1515 39.1553 23.4626L39.1038 23.3153H39.2567C39.5227 23.4167 39.3524 23.9484 39.4578 24.2133C39.4477 24.5878 39.5495 24.8527 39.5592 25.2077C39.6107 25.3903 39.7184 25.5185 39.7626 25.7071C39.6609 26.571 39.3524 27.2322 39.3069 28.1507C39.4394 29.299 39.7392 30.2841 40.0651 31.2426C39.858 31.0636 39.7382 30.8013 39.5592 30.5959ZM39.0021 20.122C39.0375 19.5745 39.1235 19.0767 39.3069 18.6765L39.3571 18.726C39.4651 19.0668 39.52 19.4608 39.6094 19.8212C39.4943 20.9014 39.9449 21.8357 39.6609 22.7654C39.1443 22.1792 39.0964 21.1263 39.0021 20.122ZM40.9735 18.1761C41.037 17.4922 41.2662 16.9723 41.6825 16.6315L41.7313 16.681C41.5466 16.9459 41.4964 17.3482 41.4278 17.7276C41.4559 18.4651 41.4656 19.2191 41.6309 19.8212C41.5222 19.9975 41.2428 20.0048 41.1254 20.1729C40.9467 19.6339 40.9771 18.8882 40.9735 18.1761ZM41.9849 17.6276C42.0793 17.1236 42.2359 16.68 42.5909 16.432V16.4816C42.3891 16.9459 42.4932 17.7144 42.3891 18.2765V19.0754C42.3975 19.3509 42.4319 19.6494 42.1857 19.6725C41.9836 19.4248 42.0977 18.8627 41.9849 18.5255V17.6276ZM43.4494 19.2736C43.333 19.3608 43.0941 19.3218 42.9951 19.4248C42.8395 18.6392 43.0342 17.7666 42.9951 16.9314C43.076 16.6956 43.2018 16.5024 43.2975 16.2811C43.4334 16.1493 43.6378 16.0853 43.7519 15.9317L43.8031 15.9839C43.6659 16.1807 43.6488 16.4951 43.5508 16.7306C43.5301 17.5936 43.4113 18.3551 43.4494 19.2736ZM44.8145 15.9317C44.7717 15.9898 44.7473 16.0671 44.763 16.182C44.6663 16.3042 44.7473 16.6014 44.6616 16.7306V17.4294C44.5599 17.9103 44.6332 18.5665 44.6114 19.1263C44.3565 19.09 44.2588 19.2082 44.0065 19.1745C44.0443 17.8644 43.9025 16.3815 44.6114 15.7335H44.763C44.9701 15.719 44.7546 15.8025 44.8145 15.9317ZM45.8247 15.6344C45.6644 16.7065 45.7587 18.0298 45.5714 19.0754H45.1672C45.1267 18.0153 45.1548 16.6051 45.4195 15.684C45.5443 15.6913 45.6644 15.6913 45.7219 15.6344H45.8247ZM46.6842 19.0754C46.4577 19.1141 46.3781 19.0077 46.1787 19.0259C46.2302 17.8812 46.2238 16.6764 46.3781 15.6344C46.5424 15.6235 46.5935 15.7226 46.7836 15.684C46.7859 16.8505 46.7993 18.0239 46.6842 19.0754ZM48.0483 15.8326C48.0055 16.9737 47.9737 18.1216 47.8449 19.1745C47.6723 19.1127 47.3919 19.1577 47.2376 19.0754C47.3136 18.0021 47.3199 16.8587 47.3393 15.7335C47.616 15.7263 47.8205 15.7903 48.0483 15.8326ZM48.8052 17.6276V18.2765C48.7302 18.4347 48.8052 18.7419 48.7021 18.8746C48.6887 19.0767 48.7463 19.3499 48.5014 19.3231C48.2063 19.3086 48.4585 18.91 48.4525 18.726C48.4672 18.2597 48.494 17.8026 48.5516 17.3786V15.9317C48.6666 15.9693 48.8099 15.9776 48.9066 16.0321C48.9263 16.2679 48.8895 16.4502 48.8554 16.6315C48.8503 16.9736 48.8835 17.3568 48.8052 17.6276ZM49.6647 19.6725C49.5249 19.762 49.3425 19.549 49.1578 19.5226C49.3669 18.5497 49.388 17.3904 49.4111 16.2316C49.5667 16.1952 49.5607 16.3184 49.7149 16.2811C49.923 17.3108 49.7296 18.6051 49.6647 19.6725ZM50.3209 16.6315C50.5119 16.6424 50.5353 16.8201 50.725 16.8297C50.8278 17.9621 50.8144 19.3218 50.5216 20.2224C50.3992 20.128 50.2439 20.0665 50.1178 19.9734C50.3553 19.0259 50.3209 17.8112 50.3209 16.6315ZM42.0351 15.8848C42.885 15.0605 44.1129 14.6106 45.6718 14.4865C46.906 14.4828 48.0373 14.5793 48.9066 14.9346C49.4222 15.0241 49.7514 15.2986 50.169 15.4845C50.4838 15.7893 50.906 15.9862 51.0787 16.432C50.7752 16.2652 50.4958 16.0757 50.169 15.9317C49.8728 15.7917 49.5249 15.7045 49.2592 15.5331C48.5111 15.3927 47.8071 15.2054 46.9867 15.1341C44.9798 15.0337 43.3892 15.3408 42.0351 15.8848ZM51.4327 17.3786C51.6003 17.4799 51.4852 17.8584 51.5846 18.0275V20.272C51.5454 20.4833 51.5207 20.7069 51.4829 20.9196C51.4645 21.1604 51.3323 20.8133 51.2296 20.8218C51.2075 20.6769 51.0128 20.7023 50.976 20.5715C51.2513 19.6808 51.4377 18.4843 51.2808 17.33L51.4327 17.3786ZM54.1094 28.5001C53.5851 25.9524 53.9234 22.5937 54.3115 20.1729C54.2245 17.9152 52.859 16.9182 51.8355 15.5849L51.685 15.4845C49.907 14.1806 47.3273 13.6681 44.1069 13.789L43.955 13.8385C42.1991 13.9012 40.8928 14.4052 39.7124 15.035C38.2603 16.0975 37.4459 17.7871 37.0835 19.9216C37.1742 21.2799 37.6821 22.2251 38.0435 23.3153C38.3202 25.104 37.8989 26.8782 37.7912 28.5991C38.0508 29.4912 38.5638 30.1329 39.0536 30.7941C39.5287 31.4744 39.9938 32.1623 40.6208 32.6904C41.7424 33.8747 43.0061 34.9213 44.2575 35.9801C44.9628 36.315 45.8039 36.5168 46.3292 37.0257C46.4517 37.2553 46.5042 37.5525 46.5815 37.8256C46.704 38.0542 46.7013 38.4046 46.9352 38.5241C47.5475 38.4482 47.6823 37.897 48.1474 37.6757C48.4549 37.2807 48.8296 36.9518 49.1578 36.5796C49.8126 35.8461 50.4557 35.1003 51.0262 34.2833C51.603 33.4735 52.1246 32.6082 52.7466 31.8407C53.0782 31.4879 53.3576 31.0804 53.7052 30.7445C53.9759 30.3106 54.451 30.0833 54.6651 29.5975C54.4938 29.2181 54.2135 28.9459 54.1094 28.5001Z" fill="#002E65" />
  <path d="M27.8879 45.1076C27.9795 45.0134 28.1341 44.9831 28.1903 44.8576C28.2502 44.3496 27.8327 44.3123 27.736 43.9592C27.5228 43.5534 27.4104 43.0504 27.2314 42.6118C27.0956 42.1296 27.0688 41.5421 26.776 41.2158C26.4883 41.1084 26.2962 41.2775 26.1701 41.4661C26.2839 42.2346 26.4957 42.908 26.7258 43.5606C26.8189 43.917 26.9795 44.2083 27.13 44.5068C27.3271 44.7618 27.4643 45.0739 27.8879 45.1076Z" fill="#002E65" />
  <path d="M47.6418 26.605C47.9687 26.71 47.9821 27.4062 47.5916 27.4521C47.697 27.2576 47.6174 26.8794 47.6418 26.605ZM51.0262 22.665C50.7936 22.4969 50.6357 22.2551 50.3697 22.1161C50.1164 22.0861 49.8581 22.0606 49.6119 22.0183C48.7021 22.0329 47.7054 21.9615 47.2376 22.4173C47.1557 22.7122 47.3992 22.6904 47.4411 22.8655C47.245 23.0058 47.2035 23.2971 47.0861 23.5157C47.1115 24.7704 47.2095 25.9524 47.3895 27.0545C47.3076 27.289 47.3417 27.6384 47.1373 27.752C47.0392 27.822 46.9328 27.8825 46.7836 27.9019C46.4356 27.8438 46.2877 27.5938 45.9752 27.5043C45.7574 27.4026 45.3987 27.4389 45.3693 27.1549C45.3288 26.7586 45.6667 26.5518 45.5212 26.206C44.839 26.0105 44.4974 26.5518 44.1571 26.854C43.9647 27.0135 43.7629 27.1645 43.6502 27.4039C43.4849 27.5671 43.2119 27.7956 43.2962 28.0506C43.6562 28.105 43.5936 27.7461 43.8031 27.6506C43.8998 27.4498 44.0835 27.3312 44.2059 27.1549C44.5539 26.8986 44.7804 26.5205 45.2676 26.4068C45.2174 26.7041 45.0374 26.8781 45.0645 27.2553C45.2077 27.5793 45.5102 27.7461 45.9752 27.752C46.1957 27.9997 46.4821 28.1823 46.9854 28.151C47.233 28.0796 47.3527 27.8825 47.5401 27.752C47.7924 27.7507 47.8904 27.5984 48.047 27.5043C48.1327 27.3217 48.1731 27.0944 48.1474 26.8032C48.0888 26.5495 47.8389 26.4769 47.7937 26.206C47.6174 25.3999 47.5438 24.491 47.3394 23.7139C47.4387 23.3103 47.6003 22.9744 47.9456 22.8159C48.6887 22.7059 49.6109 22.7799 50.3697 22.8159C50.5424 22.9441 50.6504 23.1363 50.7762 23.3153C50.8231 23.5825 50.8535 23.8675 51.2293 23.812C51.4093 23.743 51.4277 23.3889 51.2808 23.2644C51.2614 22.9986 51.074 22.9031 51.0262 22.665Z" fill="#002E65" />
  <path d="M24.7056 27.3024C24.9017 27.4619 24.9137 28.0613 25.3105 27.8523C25.1683 27.6432 25.0864 27.1115 24.7056 27.3024Z" fill="#002E65" />
  <path d="M48.5516 24.5093C48.5111 24.3993 48.3753 24.3848 48.2993 24.3111C48.1046 24.2021 48.0337 23.9739 47.7938 23.9122L47.6934 23.8613C47.692 23.9607 47.5535 23.9244 47.5917 24.0608C47.779 24.2266 47.9785 24.3788 48.1474 24.5588C48.2625 24.6143 48.3692 24.6724 48.4512 24.7596C48.6165 24.7679 48.7768 24.8755 48.8039 24.6592C48.8122 24.5179 48.6814 24.5152 48.5516 24.5093Z" fill="#002E65" />
  <path d="M49.765 23.9618C49.8262 23.8191 49.8262 23.6536 49.765 23.5146C49.8961 23.5665 49.9523 23.6936 50.119 23.7128C50.043 23.8386 49.9215 23.9182 49.765 23.9618ZM49.1982 23.8845C49.061 23.8845 48.9496 23.7745 48.9496 23.6391C48.9496 23.505 49.061 23.3951 49.1982 23.3951C49.334 23.3951 49.4454 23.505 49.4454 23.6391C49.4454 23.7745 49.334 23.8845 49.1982 23.8845ZM50.2705 23.5618C50.0868 23.3105 49.7563 23.2052 49.411 23.1133H48.7548C48.5564 23.2501 48.1512 23.1834 48.1476 23.5146C48.3249 23.6619 48.451 23.4419 48.6518 23.4614C48.6227 23.581 48.5808 23.6873 48.6016 23.8614L48.805 24.1104C48.9593 24.0922 48.8907 24.293 49.0058 24.3112H49.7148C49.853 24.2326 49.9952 24.1553 50.1691 24.1104C50.2645 23.8891 50.5596 23.865 50.573 23.5618C50.48 23.4664 50.3883 23.5473 50.2705 23.5618Z" fill="#002E65" />
  <path d="M25.2602 27.3024C25.3777 27.5551 25.4181 27.8777 25.7156 27.9514C25.6069 27.6951 25.6018 27.3315 25.2602 27.3024Z" fill="#002E65" />
  <path d="M55.4734 35.3831C55.2994 35.0386 55.1331 34.6856 54.9176 34.386C54.8564 34.1938 54.7326 34.067 54.6653 33.8857C54.4964 33.7516 54.4974 33.5581 54.6653 33.4372C54.8601 33.2922 54.8818 33.6644 55.019 33.7371C55.1562 33.8481 55.2994 33.9557 55.4232 34.0852C55.7879 34.1744 55.9913 34.4224 56.3831 34.4838C56.524 34.6083 56.6745 34.7232 56.8301 34.8355C56.5962 35.499 56.3342 36.1516 56.0465 36.7887C55.8933 36.2824 55.6778 35.8362 55.4734 35.3831ZM52.9462 33.8857C52.7783 34.3015 52.443 34.5515 52.2911 34.9818C52.0181 35.2949 51.8391 35.7008 51.6323 36.0806C51.1926 36.791 50.9109 37.6603 50.5218 38.4238C50.2314 38.3442 49.8238 38.3815 49.4615 38.3743C49.3621 38.4433 49.1711 38.4215 49.0573 38.4737C48.5136 38.6355 48.0519 38.8783 47.6932 39.2227C47.5058 39.3859 47.2733 39.5057 47.1361 39.7207C47.0591 39.8271 46.9547 39.907 46.8838 40.0193C46.7503 40.0338 46.7774 40.3129 46.6305 40.1692C46.5141 39.0536 46.3635 37.973 45.9239 37.1777C45.1905 36.8032 44.2245 36.6606 43.197 36.5796C42.8641 36.4251 42.4723 36.3293 42.0841 36.2279C40.9589 35.2804 39.8702 34.2929 38.75 33.3368C38.1989 32.8523 37.6492 32.3616 37.0824 31.889C36.8238 31.6304 36.5056 31.4286 36.2754 31.1422C36.007 30.9342 35.6617 30.776 35.5162 30.3939C35.5687 29.8185 36.0194 29.5758 36.2252 29.0983C36.5019 28.7251 36.7113 28.2825 36.9305 27.8522C37.065 26.4357 37.2574 25.0796 37.2855 23.5618C37.2831 23.3986 37.1998 23.3141 37.2353 23.1146C36.7859 21.848 36.4062 19.9312 36.7799 18.3271C37.3845 17.2951 38.1133 16.3839 38.8517 15.4833C39.5824 14.577 40.3098 13.6645 41.2269 12.9393C43.1568 12.2517 45.4832 11.9554 47.9455 11.7936C48.7672 11.8141 49.5665 11.855 50.2193 12.0413C50.763 12.3712 51.2318 12.7725 51.6838 13.1906C51.8675 13.4409 52.0877 13.6559 52.2911 13.8881C52.4734 14.1417 52.7023 14.3472 52.8458 14.6348C53.2621 15.0893 53.5976 15.6223 53.9061 16.1808C54.2672 16.6907 54.5245 17.3 54.7644 17.9259C54.7717 18.0712 54.7386 18.2548 54.8159 18.3271C54.7814 20.5861 54.6764 22.7787 54.7155 25.1087C54.8182 26.1543 55.035 27.0886 55.3214 27.9513C55.4476 28.4093 55.6189 28.8205 55.7745 29.2469C55.9669 29.624 56.1077 30.0507 56.3831 30.3443C56.181 30.7274 55.7845 30.9186 55.4734 31.1928C55.1622 31.4672 54.8808 31.773 54.5636 32.0412C53.9821 32.6129 53.4591 33.245 52.9462 33.8857ZM30.0085 32.4897C28.2171 32.5151 26.2605 32.6201 24.5524 32.4378C20.976 32.2793 17.5157 32.0052 14.1447 31.6426C13.9537 31.6003 13.9757 31.3414 13.8924 31.1928L13.8422 31.0432C17.3159 31.4055 20.8094 31.7463 24.452 31.9411C27.0578 32.1684 30.1444 32.1053 32.8897 32.0412C33.3956 32.0729 33.7884 31.9966 34.2538 31.9907H34.9628C35.2124 31.8916 35.2308 32.0594 35.3656 32.1898C33.677 32.3847 31.7571 32.3533 30.0085 32.4897ZM10.0527 28.5497C7.33551 28.2716 4.77792 27.8403 1.71677 27.9007C1.4839 27.9803 1.62376 27.6953 1.46449 27.7026L1.2624 27.4027L1.00878 27.155C1.00878 27.0473 0.735763 26.9677 0.857218 26.9047C6.80184 26.7864 11.8478 27.5599 17.2781 27.9513C17.5756 27.7954 17.5585 27.329 17.6823 27.0037C18.1206 27.0351 18.5281 27.0982 18.9949 27.1041C19.297 27.0351 19.1515 26.5252 19.3512 26.3548C21.4558 26.6038 23.5179 26.8951 25.6642 27.1041C25.951 27.6999 26.0905 28.4457 26.574 28.8482C26.9303 28.9628 27.3823 28.9823 27.8364 28.9992C27.9294 29.3245 28.101 29.5699 28.1904 29.8972C28.3644 30.1389 28.3985 30.522 28.6471 30.6937C29.8543 30.8133 31.2013 30.7978 32.4858 30.8437C32.9569 30.7928 33.3671 30.9827 33.6977 30.7941C34.0222 30.6815 33.9158 30.1462 34.0517 29.8466C34.0467 29.3932 34.1497 29.0464 34.1521 28.5992C34.037 28.0153 33.8058 27.5454 33.6977 26.9532C33.5461 26.9433 33.7469 26.7478 33.6977 26.9532C34.0222 27.515 34.2538 28.1679 34.5562 28.7492C34.5355 29.021 34.6479 29.1587 34.6064 29.4463C34.6958 29.624 34.5733 29.5699 34.5562 29.7462L34.4559 30.1448C34.4361 30.4642 34.5305 30.6706 34.5562 30.9428C31.4891 31.0296 28.7157 30.8268 26.0192 30.5451C20.6565 29.9203 15.368 29.2218 10.0527 28.5497ZM9.59833 30.9428C9.13693 30.8978 8.75115 30.7819 8.33593 30.6937C8.25395 30.5329 8.29444 30.3638 8.38612 30.2452C8.77424 30.2912 9.52974 30.312 9.75023 30.5947C9.80176 30.8123 9.64618 30.8232 9.59833 30.9428ZM7.62828 30.4447C7.42485 30.6297 7.14446 30.4229 6.8189 30.4447C6.60209 30.3252 6.18821 30.4024 6.06207 30.1947C6.0256 30.0435 6.11359 30.0134 6.11359 29.8972L6.21296 29.8466C6.75901 29.9071 7.3944 29.8767 7.67846 30.1947C7.71995 30.3361 7.60753 30.3238 7.62828 30.4447ZM4.34429 30.1448C4.29176 30.0048 4.29176 29.9384 4.34429 29.7971C4.62468 29.7148 5.22593 29.7148 5.50631 29.7971L5.55651 29.8972C5.64082 30.4398 4.61364 30.2634 4.34429 30.1448ZM7.37599 26.2048C7.61589 26.2256 7.79724 26.1893 7.98227 26.1553C8.71301 26.1457 9.38285 26.0744 10.1544 26.1071V26.8033C9.18712 26.6642 8.1412 26.5979 7.07252 26.5543C7.09795 26.3634 7.10297 26.1517 7.37599 26.2048ZM11.9237 26.7042H12.3767C12.6116 26.6206 13.0084 26.6956 13.2363 26.6051C13.879 26.6074 14.3946 26.4852 15.0545 26.5047C15.2308 26.5457 15.2505 26.4297 15.4084 26.4552C15.7708 26.4466 16.1787 26.4852 16.4688 26.4043C16.8288 26.3779 17.3049 26.4638 17.5806 26.3548H18.5405C18.6299 26.367 18.7938 26.3052 18.7436 26.4552C18.6335 26.6679 18.3655 26.4733 18.1363 26.5047C17.8499 26.5384 17.7178 26.4212 17.43 26.4552C17.1396 26.6183 17.1286 27.0569 17.0258 27.4027C15.2284 27.231 13.3892 27.1028 11.6186 26.9047C11.5978 26.7161 11.8488 26.7996 11.9237 26.7042ZM20.006 25.9063C19.7845 25.8604 19.5212 25.8544 19.2997 25.8062C18.7794 25.8267 18.1732 25.759 17.7325 25.8558H16.8739C16.6976 25.8171 16.6792 25.9307 16.5203 25.9063C15.7183 25.8957 14.9969 25.9644 14.2478 26.0057C13.9476 25.9776 13.7957 26.0939 13.4896 26.0562C13.3123 26.0163 13.2939 26.1312 13.1346 26.1071C13.0305 26.0757 12.7843 26.1857 12.8321 26.0057C12.8017 25.7772 13.071 25.8435 13.2363 25.8062C13.3624 25.7481 13.5324 25.7349 13.6903 25.7081C13.9389 25.5681 14.4228 25.6649 14.7008 25.5572C15.4499 25.5476 16.1358 25.4786 16.8238 25.4086H17.8339C18.4291 25.2986 19.2261 25.3855 19.9046 25.359C19.9046 25.574 20.0221 25.6744 20.006 25.9063ZM12.8321 24.3111L12.9325 24.1612C13.5803 24.0525 14.1042 23.8204 14.8524 23.8108C15.4817 23.6668 16.2252 23.6381 16.8739 23.5135C18.2357 23.5327 19.7026 23.4482 20.9158 23.6126C21.5133 23.8531 22.2555 23.9535 22.8346 24.212C22.4733 24.252 21.8931 24.078 21.4718 24.0113C20.9649 23.9462 20.4922 23.8494 20.006 23.7612C17.5023 23.8349 15.1317 24.0357 12.8321 24.3111ZM19.1465 22.9151H19.4001L19.2997 22.9647H18.8453C18.6372 22.9369 18.5171 22.821 18.2882 22.8137C18.4987 22.7242 18.9029 22.8715 19.1465 22.9151ZM19.6022 22.6651C19.4111 22.7024 19.3609 22.6047 19.198 22.6143C19.2666 22.4184 19.2703 22.1549 19.2997 21.9158H19.5506C19.634 22.1017 19.5935 22.4075 19.6022 22.6651ZM18.8942 21.419C19.1087 21.4055 19.2532 21.4649 19.4001 21.5181C19.5543 21.5326 19.7454 21.5082 19.7537 21.669C19.383 21.669 19.1244 21.5591 18.8942 21.419C18.837 21.2678 18.6275 21.4732 18.8942 21.419ZM19.4503 20.9197C19.4222 20.7579 19.4844 20.6865 19.5005 20.5716V21.2196C19.2689 21.2219 19.4968 21.0442 19.4503 20.9197ZM19.0461 19.9722C19.4171 19.9735 19.7183 20.0399 20.006 20.1208C19.7293 20.4434 19.2753 20.1376 19.0461 19.9722ZM22.7844 22.3666V23.6126C22.3729 23.5036 21.9838 23.3719 21.5722 23.2632C21.599 22.9587 21.6813 22.7061 21.773 22.4643C22.1464 22.4656 22.4134 22.3639 22.7844 22.3666ZM22.1772 21.669C22.4539 21.5723 22.8396 21.5881 23.0879 21.4696H23.2398C23.2826 21.5918 23.3047 21.7354 23.289 21.9158C23.1528 21.8371 22.924 21.8467 22.7844 21.7671C22.3793 21.7476 22.0852 21.8408 21.7241 21.8672C21.5783 21.889 21.5649 22.0449 21.3701 22.0171C21.3936 21.6568 21.8954 21.7694 22.1772 21.669ZM22.2799 24.5588H22.3816C22.6242 24.6011 22.5542 24.9528 22.5837 25.2078C22.2103 25.26 22.3043 24.8524 22.2799 24.5588ZM21.4203 24.4102H21.5722C21.6823 24.5516 21.7864 24.9069 21.6739 25.1087C21.4033 25.0605 21.3762 24.6143 21.4203 24.4102ZM20.4102 24.2616C20.6662 24.258 20.7615 24.8319 20.5621 24.9601C20.3282 24.9251 20.3282 24.4465 20.4102 24.2616ZM22.8346 25.7081C22.8811 25.8944 22.9437 26.0648 23.0377 26.2048C22.2739 26.263 21.3554 26.0381 20.5621 25.9571C20.5828 25.719 20.4885 25.5972 20.4604 25.4086C21.2905 25.47 22.0069 25.6441 22.8346 25.7081ZM23.0879 22.8643C23.0735 22.6965 23.0073 22.5779 23.0377 22.3666C23.1334 22.388 23.1639 22.4739 23.289 22.4643V23.9112C22.9621 23.8217 23.1284 23.2414 23.0879 22.8643ZM23.5938 25.3082V26.1071C23.4188 25.8472 23.3378 25.4944 23.1896 25.2078C23.382 25.1837 23.5128 25.2223 23.5938 25.3082ZM30.0085 29.4972C29.9242 29.6303 29.8934 29.8126 29.8078 29.9467C29.4146 29.9843 29.1664 29.8803 28.7977 29.8972C28.7023 29.7898 28.7157 29.5771 28.5942 29.4972C29.0094 29.3559 29.5006 29.5685 30.0085 29.4972ZM30.414 29.9952C30.2595 30.0326 30.2304 29.9457 30.1102 29.9467C30.1728 29.8258 30.2377 29.7039 30.2621 29.5481H30.4652C30.4923 29.7413 30.3746 29.7908 30.414 29.9952ZM31.1217 29.9952H30.7169V29.5963H31.1217V29.9952ZM31.7276 30.0435H31.374C31.3348 29.8575 31.4352 29.8067 31.4242 29.6471H31.7778C31.7999 29.8176 31.7571 29.9249 31.7276 30.0435ZM32.2837 30.0435H32.0301C32.002 29.7849 32.0191 29.5685 32.3339 29.6471C32.3289 29.7908 32.3607 29.9734 32.2837 30.0435ZM29.4036 29.1987C29.2396 28.8096 29.4073 28.4311 29.5043 28.0507C29.601 27.6722 29.6596 27.2564 29.8078 26.9047C29.8432 26.4565 30.0246 26.1543 30.0614 25.7081C30.2046 25.3673 30.2056 24.8874 30.414 24.6107C30.8386 24.4971 31.3887 24.508 31.8795 24.4611C32.0903 24.6665 32.0254 25.1464 32.1318 25.4568C32.2299 26.5556 32.3864 27.6022 32.536 28.6488C32.4306 28.8278 32.4868 29.166 32.3841 29.3473C31.3897 29.2977 30.393 29.2505 29.4036 29.1987ZM29.8566 24.1103C30.6048 24.033 31.3874 23.9921 32.2335 24.0113C32.6411 25.5196 33.1433 26.936 33.5461 28.4506H32.7879C32.6718 27.7666 32.6364 27.0051 32.4858 26.3548C32.4085 25.6322 32.4085 24.8369 32.1318 24.3111C32.0033 24.3412 31.9886 24.1916 31.8795 24.1612C31.3934 24.0307 30.6931 24.2784 30.1604 24.212C29.5163 24.5383 29.4906 25.4773 29.1001 26.0562C28.8736 26.7802 28.5136 27.3713 28.2921 28.1025H27.6343C28.3667 26.7633 29.143 25.4664 29.8566 24.1103ZM32.9389 30.0953H32.5862C32.5323 29.7763 32.6534 29.6303 32.99 29.6967C33.0255 29.8816 32.9057 29.9107 32.9389 30.0953ZM33.2423 29.7462H33.4959C33.4812 29.8985 33.5033 30.0857 33.344 30.0953C33.153 30.1353 33.2805 29.8585 33.2423 29.7462ZM33.5461 29.3968C33.2156 29.4236 32.9716 29.3654 32.6876 29.3473C32.7331 29.16 32.7304 28.9242 32.7879 28.7492H33.5973C33.6355 29.0196 33.5167 29.1359 33.5461 29.3968ZM57.234 33.5776L57.1704 33.7939C57.0663 33.7067 56.9415 33.6172 56.7859 33.5872C56.9452 33.5677 57.0934 33.5667 57.234 33.5776ZM28.0398 37.0764L27.8879 37.1777L27.6343 37.4268C27.4459 37.5707 27.278 37.7388 27.1301 37.9248C26.7235 38.1715 26.4699 38.5691 26.0694 38.8214C24.8465 38.9631 24.1619 39.6339 22.8862 39.7207C21.7827 39.5781 21.2062 38.9159 20.0562 38.8214C18.7828 38.8614 18.1547 39.5371 17.0258 39.7207H16.9241C15.7598 39.6217 15.1354 38.9909 14.0457 38.8214C12.9459 38.8532 12.3778 39.409 11.4717 39.6289C10.9929 38.8568 10.5559 38.0566 10.1628 37.2322C10.2889 37.2686 10.4187 37.3022 10.5583 37.3254C12.0338 37.4026 12.6655 36.646 13.8422 36.4274C15.0973 36.5529 15.6718 37.3508 17.076 37.3254C18.1818 37.1708 18.8259 36.5592 19.9558 36.4274C21.0359 36.5423 21.6505 37.114 22.6339 37.3254C24.2061 37.3835 24.8612 36.5351 26.2705 36.4274C26.9795 36.4769 27.5058 36.7065 27.9896 36.9773C28.1181 36.9759 28.0509 37.0146 28.0398 37.0764ZM25.2604 40.6673C24.8636 40.8582 24.5156 41.0963 24.3001 41.4662C24.1961 41.6775 24.3038 42.1029 24.1997 42.312C23.7711 42.4896 23.3465 42.6673 22.6841 42.6118C21.8232 42.4147 21.2219 41.9602 20.36 41.7634C18.9373 41.6739 18.2919 42.3506 17.2266 42.6118C15.8882 42.6696 15.2994 41.9883 14.2478 41.7634C13.7763 41.7367 13.4063 41.808 13.077 41.9193C12.6143 41.3331 12.1807 40.7228 11.7732 40.0956C12.4808 39.872 13.0342 39.4972 13.8422 39.3717C15.0545 39.4717 15.6607 40.1692 16.8739 40.2683C18.2073 40.1884 18.7721 39.3499 20.2095 39.3717C21.2182 39.5708 21.8305 40.1643 22.9363 40.2683C23.8852 40.2066 24.4888 39.8053 25.2604 39.5708C25.0887 39.8548 25.2273 40.3033 25.2604 40.6673ZM33.0001 0C19.0083 0 7.47269 10.5561 6.12597 24.0221C6.24107 24.004 6.34981 23.9921 6.46491 23.9739C6.95977 23.9148 7.44826 23.9026 7.92572 23.9317C9.2972 11.4623 19.9963 1.75236 33.0001 1.75236C46.9317 1.75236 58.2247 12.9056 58.2247 26.657C58.2247 28.8565 57.9332 30.9887 57.3909 33.0214L57.1409 32.9877C56.6083 32.9128 56.2362 33.2017 55.8273 33.0881C55.7634 32.9346 55.641 32.8401 55.6253 32.6383C55.6032 32.2843 55.9351 32.2806 56.0793 32.0897C56.2533 31.9302 56.4015 31.744 56.6367 31.6426C56.9071 31.2449 57.4056 31.0719 57.4936 30.4956C57.5364 29.8694 57.1092 29.7099 56.9378 29.2977C56.7665 28.8856 56.611 28.4579 56.4333 28.0507C56.169 27.1491 55.902 26.2484 55.7745 25.2078C55.7685 23.0542 55.7795 20.922 55.8762 18.8747C55.8591 18.4771 55.832 18.0903 55.7745 17.7267C55.2592 15.9935 54.2501 14.7451 53.3012 13.4383C52.1857 12.3121 51.3238 10.9356 49.2079 10.7975C47.5794 10.7675 46.0316 10.8183 44.7107 11.0951C43.2803 11.2619 41.964 11.5396 40.8217 11.9931L40.7224 12.0413C39.5359 12.9006 38.6506 14.0562 37.7399 15.1837C37.2731 15.7567 36.8592 16.3294 36.4246 16.9301C36.001 17.52 35.6166 18.1762 35.5664 19.125C35.5296 20.8074 35.7942 22.1912 36.2252 23.4131C36.2325 24.8997 36.0097 26.1589 35.9214 27.5526C35.6851 28.0008 35.4145 28.4156 35.1635 28.8482C34.5231 27.335 33.8141 25.8921 33.1419 24.4102C32.9546 24.1975 32.8311 23.9184 32.5862 23.7612C31.637 23.7563 30.6894 23.7527 29.8078 23.8108C29.4785 24.1007 29.323 24.5648 29.1001 24.9601C28.8662 25.3432 28.6163 25.7118 28.4437 26.1553C28.1536 26.4852 28.0127 26.9605 27.7347 27.3023C27.6761 27.544 27.5095 27.6781 27.4335 27.9007C27.2438 28.013 27.3392 28.4083 27.0297 28.3997C26.5422 28.4156 26.6891 27.8026 26.4211 27.6022C26.3364 27.2395 26.1578 26.9664 26.0192 26.6547C25.346 26.5034 24.5404 26.4852 23.8461 26.3548V25.5572C23.7701 25.2818 24.0699 25.3795 24.0492 25.1582C23.9281 24.5298 23.8973 23.8108 23.7959 23.1628C23.7785 22.7979 23.6928 22.5006 23.6942 22.1149C23.6012 21.8431 23.6795 21.3996 23.4921 21.2196C22.7992 21.1251 22.1661 21.5 21.3701 21.4696C21.1864 21.5868 21.1386 21.8371 21.0677 22.0654C20.8535 22.0545 20.7103 22.1126 20.5621 22.1671C20.5487 22.3953 20.7274 22.4343 20.8646 22.5138C20.8803 22.747 20.7652 22.8487 20.7652 23.0637C20.5082 23.1014 20.3637 23.0251 20.3098 22.8643C20.2854 22.672 19.8923 22.8451 19.8545 22.6651V22.0654C19.8053 21.7367 20.2583 21.8986 20.2596 21.6172C20.3393 21.2714 19.8444 21.495 19.8545 21.2196V20.5211C20.0124 20.4448 20.175 20.3721 20.36 20.3216C20.4162 20.1439 20.8264 20.3179 20.8144 20.0712C20.7384 19.7149 20.0944 19.919 19.8053 19.7717V18.5762C19.8053 18.1894 19.8983 17.7304 19.6022 17.5791C19.3559 17.5527 19.4968 17.909 19.4001 18.0276V18.6257C19.3094 18.9342 19.3609 19.386 19.2997 19.7222C18.9189 19.6482 18.3398 19.4682 17.9858 19.6726C17.9895 20.0012 18.3214 20.0049 18.4903 20.1716C18.6998 20.2816 18.9484 20.3506 19.0963 20.5211C19.0534 20.7106 19.012 20.9015 18.9949 21.1192C18.6998 21.0951 18.4549 21.0224 18.1865 20.9692C17.8767 20.9788 17.5033 20.9246 17.3798 21.1192C17.3698 21.5459 17.7726 21.5604 18.0862 21.669C18.211 21.7622 18.3324 21.8563 18.5405 21.8672C18.5981 22.0086 18.8908 21.9204 18.8453 22.1671C18.7316 22.1876 18.8246 22.4125 18.7938 22.5138C18.2541 22.5561 17.4508 22.2153 16.8238 22.4643C16.8154 22.6238 16.8228 22.7652 16.9241 22.8137C16.8679 22.9429 17.239 22.8946 17.076 22.9647C15.6336 23.1701 14.0785 23.2645 12.8321 23.6622L12.7304 23.7117C12.4942 23.8445 12.275 23.9944 12.1255 24.212C11.9077 24.363 11.636 24.4597 11.6186 24.8101C11.5771 25.1355 12.0228 24.9769 12.1255 25.1582C12.1723 25.4931 12.2212 25.8267 12.3276 26.1071C12.1047 26.2534 11.648 26.1675 11.3676 26.257C11.0628 26.3366 11.3027 26.9568 10.8105 26.8541C10.5974 26.8479 10.7627 26.4707 10.7102 26.3052C10.7115 26.0889 10.7272 25.8558 10.6586 25.7081C10.3197 25.4618 9.59966 25.5899 9.04257 25.5572C8.35935 25.4518 7.73233 25.2864 7.022 25.2078C6.74161 25.1014 6.40636 25.0519 6.01188 25.0592C5.72179 24.9915 5.26876 24.8874 5.10214 25.1087V25.4568C5.12188 25.8194 5.67763 25.654 5.9105 25.8062C6.11359 25.9717 6.59741 25.8604 6.61815 26.2048L6.56796 26.3052C6.59607 26.6147 6.19925 26.4852 6.01188 26.4552C5.77432 26.4225 5.40594 26.5192 5.2527 26.4043C4.68959 26.4297 4.20343 26.3779 3.68817 26.3548C2.6312 26.3597 1.53777 26.3293 0.554748 26.4043C0.323214 26.4261 0.135843 26.4889 0 26.6051V26.9047C0.375742 27.1646 0.599917 27.5754 0.959934 27.8522C0.9954 28.0216 0.773905 27.9344 0.756841 28.0507C1.68599 29.0451 2.70849 29.948 3.68817 30.8942C3.96219 31.4045 4.25362 31.8989 4.59657 32.3398C4.70431 32.6337 4.92714 32.8124 5.05194 33.0881C5.155 33.1836 5.21723 33.3226 5.30557 33.4372L5.45479 33.7371L7.29536 33.6136C7.53024 33.5604 7.78754 33.5303 8.08365 33.5376C9.0854 33.7453 9.70874 34.3269 10.8105 34.4343C12.1208 34.3983 12.7207 33.6585 13.9426 33.5376C15.0705 33.6885 15.6999 34.3292 16.8739 34.4343C18.1916 34.3547 18.7597 33.5376 20.1579 33.5376C21.2135 33.7093 21.8098 34.3329 22.9363 34.4343C24.173 34.3425 24.8709 33.7163 26.0192 33.5376C27.4703 33.465 28.0154 34.2929 29.252 34.4343C29.7944 34.3933 30.2903 34.2738 30.7677 34.0852C31.0076 33.9907 31.3348 33.8543 31.6765 33.7371C31.8919 33.6621 32.084 33.5521 32.2837 33.5376C32.6046 33.5109 32.8897 33.6017 33.2423 33.6862C33.3611 33.7949 33.1553 33.8107 33.0918 33.8857C33.1162 34.0416 32.9559 34.0175 32.9389 34.1347C32.8064 34.2675 32.7414 34.4706 32.5862 34.5842C31.4841 35.075 30.3515 35.5367 29.252 36.0311C28.9348 36.1493 28.8 36.4479 28.4952 36.5796C27.905 36.3597 27.3957 36.0671 26.7272 35.9294C25.1854 35.8243 24.458 36.5169 23.289 36.7778H22.6841C21.8232 36.5796 21.2219 36.1252 20.36 35.9294C18.9373 35.8389 18.2919 36.5156 17.2266 36.7778C15.8882 36.8346 15.2994 36.1556 14.2478 35.9294C12.6327 35.8326 12.1967 36.8974 10.5583 36.7778C10.306 36.7187 10.0758 36.6378 9.85295 36.5496C9.56888 35.9016 9.30824 35.2418 9.07938 34.5674C8.94588 34.501 8.81974 34.4478 8.68122 34.4052C8.15592 34.2506 7.66006 34.352 7.21305 34.5733C8.68122 39.2227 11.4105 43.3285 14.9969 46.5H17.7753C16.1663 45.2972 14.7128 43.9061 13.4394 42.3641C13.5679 42.3252 13.7004 42.2892 13.8422 42.2637C15.107 42.3955 15.6875 43.2027 17.1262 43.1617C18.1916 42.9827 18.844 42.3955 19.9558 42.2637C20.3453 42.2697 20.6698 42.4219 21.0161 42.5623C21.3591 42.7023 21.7191 42.8886 22.0778 43.0131C22.6399 43.2027 23.4138 43.2535 24.0492 42.9114C24.1472 43.1495 23.9244 44.4042 23.8324 45.2731L23.8484 45.3154L23.9267 45.4907C24.1251 45.5875 24.3419 45.638 24.5464 45.5703C24.6923 45.5208 24.7582 45.4035 24.8341 45.2949C24.9934 44.531 25.0657 43.5967 25.1085 43.3117C25.2052 42.8401 25.2969 42.3651 25.3106 41.8143C25.5321 41.7502 25.6642 41.5989 25.8663 41.5157C26.0878 41.4698 26.2019 41.3162 26.3207 41.1676C26.3512 40.805 26.2826 40.5414 26.2705 40.2188C26.2705 39.9348 26.5445 39.9239 26.6255 39.7207C26.7811 39.5916 26.9782 39.5031 27.0799 39.3208C27.3736 39.0609 27.7005 38.8373 27.9394 38.5232C28.5675 38.0288 29.1319 37.4763 29.7061 36.9277C30.3418 36.7223 30.9025 36.4456 31.4754 36.1807C32.0903 35.9571 32.6595 35.6866 33.2423 35.4313C33.5093 35.1958 33.6907 34.8755 33.8998 34.5842C34.5024 34.3306 35.0779 34.0502 35.7183 33.8362C36.0341 34.8223 36.5788 35.5803 37.1851 36.2788C37.0516 36.5651 36.7933 36.7246 36.5765 36.9277C36.4135 37.1791 36.2399 37.4268 36.0217 37.6262C35.8946 37.9152 35.6718 38.1111 35.5162 38.3743C35.3486 38.6078 35.188 38.8482 35.0106 39.0705C34.6958 39.5758 34.3873 40.0847 34.0517 40.5682C33.9416 40.8763 33.7188 41.0695 33.5973 41.3658C33.42 41.5904 33.2313 41.802 33.0918 42.0643C32.9569 42.2806 32.4858 42.1657 32.536 42.5623C32.525 42.8064 32.804 42.7641 33.0416 42.7618C33.1627 42.6505 33.2999 42.5537 33.4458 42.4632C33.6304 42.1802 33.8339 41.917 34.0517 41.6653C34.3823 41.0586 34.752 40.4955 35.112 39.9202C35.8749 38.8132 36.5852 37.6494 37.5378 36.7283C38.1648 37.3399 38.6874 38.0543 39.5593 38.4238C39.8886 39.5275 40.2463 40.6055 40.6183 41.6653C40.7532 42.2469 40.9857 42.7314 41.1242 43.3117C41.2269 43.558 41.3126 43.8239 41.3775 44.1092C41.5271 44.3097 41.4253 44.7595 41.8319 44.7073C42.1491 44.6472 41.9972 44.2338 41.9336 44.0079C41.8282 43.7806 41.7683 43.5049 41.6823 43.2608C41.5036 42.7691 41.3922 42.2165 41.1754 41.7634C40.9097 40.696 40.4995 39.7729 40.2168 38.7224C40.7726 39.0028 41.3407 39.2749 41.7315 39.7207C41.9557 41.31 42.0768 43.0045 43.1468 43.7598C43.6269 43.917 44.1007 44.0802 44.5109 44.3087C44.7301 44.456 44.5758 44.9745 44.9138 45.0059C45.2724 45.0376 45.2443 44.6218 45.166 44.3583C45.0643 44.1261 44.8953 43.9619 44.7107 43.8094C44.2918 43.5607 43.7481 43.4312 43.2964 43.2113C42.4723 42.4137 42.5188 40.7541 42.1845 39.4707C41.8061 38.8664 41.0713 38.6101 40.4691 38.2233C39.7086 37.9912 39.0953 37.6167 38.6496 37.0764C37.6321 36.1193 36.7468 35.0314 36.1736 33.6354C36.2262 33.4722 36.3905 33.4167 36.5263 33.3368C36.629 33.2377 36.6745 33.0832 36.8301 33.0373C38.407 34.4224 39.989 35.8039 41.5782 37.1777C42.0815 37.2626 42.4954 37.4367 42.9437 37.5754C43.7296 37.6649 44.4999 37.7676 45.166 37.9743C45.499 39.2567 45.7047 40.6673 45.7733 42.2129C45.7646 42.4897 45.7024 42.7096 45.6706 42.9622V44.3583C45.6348 44.8441 45.7318 45.1971 46.126 45.2562H46.2277C46.6329 45.2562 46.7724 44.9963 46.7332 44.5564V43.3612C46.7701 42.9986 46.8718 42.6977 46.835 42.2637C47.1337 41.1795 47.8046 40.4618 48.5517 39.8188C48.8147 39.7125 49.0255 39.5563 49.3096 39.4707L49.4615 39.4212C49.945 39.3921 50.3358 39.4562 50.7764 39.4707L50.8754 39.4212C51.4486 39.2713 51.5637 38.6692 51.7852 38.1751C52.0181 37.6903 52.2018 37.155 52.4918 36.7283C52.9362 35.7543 53.5461 34.9432 54.1092 34.0852C54.762 35.0882 55.3532 36.1493 55.6754 37.4776L55.6741 37.5744C53.9306 41.0973 51.3703 44.1538 48.2355 46.5H51.0016C56.5216 41.6184 60 34.531 60 26.657C60 11.9581 47.8856 0 33.0001 0Z" fill="#002E65" />
  <path d="M12.7109 19.722C12.547 20.1751 12.8039 20.5668 13.2044 20.7095C13.6648 20.8713 13.9941 20.8049 14.1962 20.2464C14.3638 19.7847 14.1299 19.4089 13.7261 19.2676C13.2667 19.1057 12.9117 19.1708 12.7109 19.722Z" fill="#002E65" />
  <path d="M15.472 14.5975L15.3693 14.7379L13.7456 13.5737L13.8841 13.3855C14.043 13.1701 14.3271 13.2365 14.8366 13.6005C15.5701 14.1262 15.63 14.3825 15.472 14.5975ZM13.072 13.0697L12.9596 13.222L12.5909 13.7237C12.4882 13.864 12.6287 13.9654 12.6287 13.9654L17.4274 17.4028C17.9908 16.6352 18.0018 16.622 17.861 16.5216L16.0954 15.2574L16.1318 15.2078L16.2128 15.0847C16.5936 15.0929 17.3404 15.2346 18.4559 16.0018C18.5981 15.8386 18.7242 15.6828 18.8159 15.5573C19.0926 15.1814 19.0705 15.1233 18.9374 15.0265C17.8389 14.294 16.977 14.1758 16.4919 14.1903C16.4771 13.7431 16.2151 13.2474 15.5246 12.7534C14.3676 11.9241 13.7174 12.1912 13.072 13.0697Z" fill="#002E65" />
  <path d="M20.3379 12.839C20 13.1362 19.7538 13.0058 19.378 12.589L16.4122 9.29432C15.6557 9.95649 15.6557 9.95649 15.7768 10.0919L18.5981 13.2257C19.2422 13.9401 19.913 14.3982 20.9355 13.5025C21.4903 13.0154 21.773 12.514 21.8356 12.2746L17.943 7.95016C17.2009 8.60177 17.2009 8.60177 17.322 8.73717L20.6478 12.4305C20.6036 12.549 20.4885 12.7072 20.3379 12.839Z" fill="#002E65" />
  <path d="M21.6873 6.48899C21.975 6.32716 22.3153 6.25582 22.4331 6.27036C22.487 6.03092 22.4415 5.83045 22.3608 5.68778C22.2089 5.42423 21.8526 5.41696 21.0874 5.84465C20.1923 6.34533 20.0073 7.07157 20.3941 7.74596C20.5828 8.07589 20.8388 8.34769 21.4511 8.61025L22.6656 9.13702C23.1284 9.33418 23.3157 9.48511 23.4616 9.74007C23.6647 10.0918 23.6563 10.394 23.2388 10.6262C22.9657 10.7794 22.6325 10.8279 22.3913 10.7735C22.3742 11.042 22.4538 11.321 22.5492 11.4865C22.6998 11.7487 23.1481 11.8141 23.8313 11.4323C24.9331 10.8184 24.8046 9.94913 24.375 9.20109C24.1301 8.7734 23.8497 8.49532 23.219 8.23408L21.9627 7.72053C21.61 7.56101 21.44 7.43783 21.3065 7.20565C21.156 6.94343 21.3149 6.69705 21.6873 6.48899Z" fill="#002E65" />
  <path d="M25.9422 4.71716C26.2568 4.61445 26.6047 4.61082 26.7171 4.64583C26.8179 4.42488 26.8128 4.21682 26.7603 4.06094C26.667 3.77559 26.3193 3.69699 25.4832 3.96912C24.5049 4.28584 24.1803 4.96255 24.4252 5.69738C24.545 6.05736 24.7424 6.37408 25.2885 6.74892L26.3745 7.5006C26.7884 7.78462 26.9413 7.96957 27.0357 8.24765C27.1632 8.63174 27.0956 8.92435 26.6402 9.07297C26.3427 9.16841 26.0058 9.15157 25.7793 9.05249C25.7107 9.31108 25.7328 9.60105 25.793 9.78237C25.8884 10.0677 26.3156 10.2186 27.0601 9.97821C28.2613 9.58916 28.3091 8.71166 28.0371 7.8946C27.8818 7.42926 27.6637 7.10164 27.0956 6.72349L25.9667 5.97644C25.6545 5.75286 25.5113 5.59962 25.4266 5.34565C25.3313 5.0603 25.5371 4.84761 25.9422 4.71716Z" fill="#002E65" />
  <path d="M30.5033 8.91465L29.5765 3.13378C28.6115 3.28504 28.5955 3.28735 28.6604 3.70447L29.5484 9.23864C30.5217 9.08639 30.5314 9.08507 30.5033 8.91465Z" fill="#002E65" />
  <path d="M33.1408 5.90402C33.2462 5.44958 33.3378 4.82473 33.4114 4.28343C33.4519 4.82704 33.5165 5.45685 33.6025 5.91492L33.7504 6.71745L32.9571 6.70061L33.1408 5.90402ZM32.4769 8.76474L32.7563 7.56589L33.9147 7.59L34.173 8.96421C34.4239 8.98601 34.6076 8.98965 34.7388 8.99196C35.1306 9.00054 35.2015 8.94242 35.1771 8.83013L33.8498 2.95149C33.7273 2.92243 33.5546 2.91021 33.388 2.90658C33.1615 2.90295 33.0206 2.9515 32.9915 3.07964L31.4106 8.88826C31.6358 8.91831 31.8981 8.93284 32.0303 8.93515C32.4207 8.94374 32.4488 8.88429 32.4769 8.76474Z" fill="#002E65" />
  <path d="M40.185 7.76892C40.3392 7.31217 40.2646 6.96044 39.7025 6.7755C39.2397 6.62325 38.8479 6.88415 38.7131 7.28443C38.5589 7.74118 38.6325 8.06516 39.2043 8.25242C39.6744 8.4083 40.0491 8.16887 40.185 7.76892Z" fill="#002E65" />
  <path d="M28.7584 15.9499C28.99 15.6418 29.1208 15.2356 29.3828 14.9565C30.595 14.4489 31.7032 13.8432 32.8541 13.2765C32.6902 13.5014 32.4402 13.6441 32.2298 13.8264C31.9973 13.9849 31.7975 14.1758 31.5355 14.3049C31.1093 14.6603 30.6124 14.9469 30.147 15.2647C29.9449 15.5886 29.7026 15.8763 29.5226 16.2254C29.3717 16.339 29.3252 16.5543 29.1747 16.6689C29.1305 16.9024 28.9067 16.9543 28.9324 17.2515C28.996 17.4038 29.1673 17.4533 29.3828 17.4582C29.5494 17.5223 29.7552 17.5464 29.9375 17.595C29.8776 17.6832 29.7097 17.665 29.5909 17.6987C29.4932 17.7604 29.3744 17.8027 29.2433 17.8341C29.0264 17.9394 28.7046 17.9431 28.4118 17.9708L28.2368 17.9368C27.9441 17.7472 27.8096 17.4005 27.474 17.2515C27.1949 17.2624 26.8359 17.4365 26.7797 17.1138C26.8372 16.8393 27.2695 16.9361 27.474 16.807C27.5168 16.6425 27.4482 16.4648 27.3699 16.3271C27.3381 16.1299 27.2695 15.9681 27.1959 15.8122C26.8556 15.2805 26.4772 14.7874 26.154 14.2362C26.1356 14.0308 26.0242 13.7587 26.1199 13.5509C26.4565 14.0186 26.8105 14.4671 27.1604 14.9215C27.31 15.1742 27.479 15.4087 27.6811 15.6078C27.753 15.73 27.8878 15.7927 27.9601 15.9163L28.0983 16.0877L28.2027 16.2254C28.1853 16.477 27.8109 16.7683 28.1341 16.9434C28.369 16.9143 28.4021 16.6848 28.4794 16.4985C28.5918 16.3344 28.6848 16.1517 28.7584 15.9499ZM31.2561 17.2865C31.3997 17.2697 31.2561 17.3724 31.2561 17.4246L31.1193 17.561C31.0604 17.6746 30.9319 17.7182 30.8413 17.8004C30.6295 17.7581 30.4849 17.6505 30.251 17.63C30.5853 17.5127 30.9135 17.3919 31.2561 17.2865ZM28.1341 15.5728C28.0555 15.4546 27.9357 15.3806 27.8561 15.2647C27.6784 15.0506 27.5328 14.8053 27.3699 14.5794C27.0172 14.1517 26.6843 13.7032 26.3621 13.2428C26.2678 13.076 26.3939 12.8534 26.1895 12.7629C25.8285 12.7497 25.8612 13.1256 25.7378 13.3465V14.0995L25.7719 14.2022C26.0744 15.082 26.775 15.5655 27.0564 16.4648C27.0554 16.588 26.8727 16.5338 26.8142 16.6002L26.5702 16.7379C26.4652 16.8274 26.4247 16.982 26.3976 17.1501C26.2704 17.2637 26.0095 17.2456 26.0513 17.526C26.1309 17.7291 26.4859 17.595 26.5702 17.4923C26.7235 17.7145 27.0591 17.7218 27.3699 17.63C27.5536 17.6868 27.5817 17.8995 27.7507 17.9708C27.8547 18.1085 27.9762 18.2294 28.1682 18.2803C28.8478 18.4253 29.4149 18.164 29.9044 18.0058H30.251C30.4996 18.0131 30.5876 18.1762 30.8058 18.2126C31.0848 18.1316 31.2588 17.9503 31.4301 17.7664C31.5834 17.5986 31.7878 17.3701 31.7095 17.0811C31.6212 16.8225 31.141 16.9084 30.9453 17.0124C30.6796 17.0811 30.4471 17.1828 30.1811 17.2515C29.8716 17.2492 29.6842 17.126 29.3828 17.1138C29.6829 16.5312 30.0918 16.0563 30.425 15.5041C30.6428 15.4087 30.8215 15.2647 31.0152 15.1269L31.2561 14.9565L31.3615 14.8875L31.397 14.8538L31.6051 14.7511C31.7216 14.6689 31.828 14.5529 31.9531 14.4753C32.4503 14.1236 32.9498 13.7722 33.3416 13.3115C33.3574 13.1546 33.4296 13.0565 33.4788 12.9343C33.5143 12.8462 33.5534 12.6625 33.4102 12.6612V12.6275H33.2362C32.5908 13.0057 31.9016 13.3419 31.2234 13.6873C30.5743 14.0295 29.8763 14.3244 29.2091 14.6484C28.8454 14.9397 28.6507 15.3978 28.4449 15.8472C28.2783 15.8195 28.2515 15.6501 28.1341 15.5728Z" fill="#002E65" />
</svg>