<svg width="80" height="63" viewBox="0 0 80 63" fill="none" xmlns="http://www.w3.org/2000/svg">
<path d="M61.9078 29.1314H61.3006C61.0098 29.1054 60.7992 28.7303 60.4923 28.9333C60.5494 29.4313 61.1307 29.4119 61.5714 29.5326H61.9078C62.4824 29.3895 62.9183 29.1138 63.5223 28.9993C63.7739 28.9575 64.2343 29.1266 64.1982 28.7994C63.9256 28.5286 63.5714 28.6818 63.119 28.6655C62.755 28.8624 62.3468 29.0121 61.9078 29.1314Z" fill="white"/>
<path d="M58.5381 28.4015C58.9673 28.4499 59.222 28.324 59.6142 28.3354C60.1937 28.3645 60.6068 28.553 61.031 28.7335H61.9077C62.4742 28.5869 62.9904 28.3839 63.5909 28.2676H64.3992C64.6276 28.2791 65.266 28.5129 65.2741 28.1355C65.1911 27.9519 64.91 27.9616 64.6687 27.9343C63.3152 27.6701 62.4907 28.3645 61.2336 28.4015C60.8972 28.3306 60.6737 28.1566 60.3552 28.0695C60.1674 28.1245 60.1821 27.9743 60.0206 28.0034H58.8089C58.5934 28.1016 58.2116 28.0355 57.9979 28.1355C57.7365 28.1857 57.3461 28.11 57.3921 28.4658C57.6205 28.7256 58.1643 28.4112 58.5381 28.4015Z" fill="white"/>
<path d="M57.9079 32.161C57.9079 31.9805 58.0565 31.8356 58.2376 31.8356C58.4205 31.8356 58.5691 31.9805 58.5691 32.161C58.5691 32.3416 58.4205 32.4864 58.2376 32.4864C58.0565 32.4864 57.9079 32.3416 57.9079 32.161ZM57.4605 32.324L57.191 32.1258C57.2486 32.0258 57.361 31.9823 57.5274 31.9933C57.4703 32.069 57.4377 32.1676 57.4605 32.324ZM59.1437 32.7234C59.191 32.5428 58.8269 32.7718 58.876 32.5913C59.1062 32.5173 59.1111 32.1447 59.0085 31.9259C59.2775 31.8999 59.4475 32.1919 59.6844 31.9933C59.671 31.5375 59.1406 31.5969 58.8091 31.46H57.8638C57.6139 31.5454 57.3708 31.5939 57.1228 31.7277C56.9577 31.8132 56.6262 31.9065 56.6508 32.1919C56.8712 32.372 57.1308 32.5173 57.3253 32.7234C57.5863 32.8396 57.8098 32.999 58.1332 33.0554C58.5432 33.0166 59.1829 33.2051 59.1437 32.7234Z" fill="white"/>
<path d="M56.246 32.0563C56.445 31.8515 56.4958 31.5036 56.7193 31.3262C57.5228 30.7753 59.4375 30.9475 60.29 31.3262C60.3521 31.5085 60.4957 31.6098 60.5595 31.7921C60.7455 31.9951 60.3619 32.3707 60.7602 32.3883C61.031 32.3901 60.9494 32.0435 60.961 31.7921C60.8825 31.5164 60.7143 31.3297 60.5595 31.1263C60.6505 30.9717 60.8285 30.9057 60.7602 30.5948C60.5626 30.3433 60.1937 30.2658 59.8181 30.1967C58.5707 30.161 57.467 30.2707 56.3816 30.3948C55.9163 30.8317 55.2221 31.3619 55.3707 32.1901C55.4706 32.2932 55.7156 32.2496 55.9114 32.2562C55.8967 32.4913 56.1398 32.4755 56.1822 32.6543C56.3178 32.7265 56.4566 32.9748 56.6511 32.7877C56.7211 32.3429 56.2754 32.4059 56.246 32.0563Z" fill="white"/>
<path d="M29.1678 39.1049C29.0014 39.2757 28.9443 39.8301 29.3034 39.835C29.4404 39.6302 29.5202 39.1502 29.1678 39.1049Z" fill="white"/>
<path d="M30.0445 39.1709C29.8567 39.2902 29.8273 39.8671 30.1114 39.901C30.2582 39.8217 30.392 39.1436 30.0445 39.1709Z" fill="white"/>
<path d="M33.2085 39.5738C33.0434 39.7398 32.9997 40.2233 33.3441 40.2361C33.5609 40.1202 33.5234 39.5495 33.2085 39.5738Z" fill="white"/>
<path d="M25.7328 36.1801C25.7444 36.5024 25.6445 36.7133 25.599 36.978C28.0968 37.2162 30.5308 37.5174 33.0077 37.7772C32.9211 37.4434 32.7315 37.2083 32.6026 36.9132C30.2632 36.7151 28.1048 36.3412 25.7328 36.1801Z" fill="white"/>
<path d="M9.69921 37.3774V37.5773C9.879 37.819 10.3702 37.7578 10.7115 37.8433C11.0509 37.8221 11.5341 37.9481 11.518 37.5773C11.1768 37.2889 10.2542 37.2404 9.69921 37.3774Z" fill="white"/>
<path d="M70.2601 31.3279C69.9679 31.0844 69.9465 30.5722 69.7212 30.2627C69.5321 29.9421 69.3558 29.6052 69.114 29.3331C69.6008 28.2758 69.591 26.3933 69.4522 24.9433C70.6795 26.1679 70.2668 29.0623 70.2601 31.3279ZM69.114 34.3187C68.8821 35.376 68.4038 36.188 68.0349 37.1132L67.968 37.2435C67.9662 37.7706 67.7802 38.1202 67.769 38.6407C67.5629 38.9485 67.5745 39.4672 67.1614 39.5738C66.345 39.5769 66.283 38.8424 65.7476 38.5747C65.3149 38.2026 64.8202 37.8961 64.1965 37.7111C63.5813 37.7464 63.542 38.3474 62.9835 38.4408C61.7656 38.6601 61.0995 38.0203 60.0873 37.8432C59.7331 37.9141 59.5243 38.1299 59.3481 38.3747C59.1277 38.5777 58.8498 38.7261 58.7405 39.0406C58.285 39.4078 57.9259 39.8768 57.1929 39.9701C56.6214 40.0216 56.339 39.7913 55.9799 39.6381C55.2875 38.9018 55.1425 37.627 54.9025 36.446L54.8338 36.2443C54.0991 34.9119 53.7694 33.1764 53.6226 31.2601C53.7823 30.0451 54.3096 29.1895 54.8338 28.334C56.2574 27.3476 58.2506 26.9222 60.4924 26.7399C62.1479 26.6998 63.6679 26.7963 64.8692 27.2027C66.1099 27.5554 67.0356 28.2146 67.9028 28.9333C68.3695 29.4907 68.8004 30.0887 69.181 30.7286C69.2006 30.954 69.1319 31.2697 69.2497 31.3908C69.2006 32.3622 69.2122 33.3953 69.114 34.3187ZM60.156 40.0362L60.3568 39.9701C60.9577 39.8301 61.5845 40.2167 62.3125 40.1718C62.8564 40.1943 63.5764 39.6011 63.8606 40.1718C63.8539 40.6293 63.3444 40.5888 62.9835 40.7002C62.3746 40.5681 61.5243 40.6421 60.8957 40.7002C60.6133 40.7165 60.6133 40.447 60.3568 40.436C60.3242 40.2621 59.986 40.2119 60.156 40.0362ZM64.8023 41.7672C63.5077 42.7113 60.5562 42.4004 59.0769 41.8315C59.0885 41.6685 58.9725 41.6267 58.943 41.5012C58.9314 40.934 59.32 40.7663 59.5488 40.436C59.9388 40.6954 60.231 41.0499 60.6949 41.2335C62.0989 41.034 63.9436 41.617 64.399 40.436C64.623 40.7923 64.8416 41.1529 64.8023 41.7672ZM53.5553 28.4031C53.5736 27.8051 53.433 27.3652 53.4852 26.7399C53.3483 26.1001 53.1555 25.5135 53.1506 24.7434C53.3188 24.3114 53.7855 24.1731 54.0241 23.812L54.0942 23.8798C53.7614 25.0432 53.8769 26.798 54.1611 27.9359C54.1107 28.0874 53.9572 28.134 53.8216 28.2001L53.5553 28.4031ZM52.7456 41.4352C52.5287 40.3378 52.1205 39.4338 52.0715 38.1748C52.1384 37.0017 52.4306 36.0462 52.6786 35.0506C52.6443 34.7714 52.4761 34.6296 52.4092 34.3848C52.3606 33.5485 52.1727 32.8427 52.2071 31.9241L52.1384 31.7277H52.3423C52.6969 31.8629 52.4699 32.5719 52.6104 32.925C52.597 33.4244 52.7326 33.7775 52.7456 34.2509C52.8143 34.4944 52.9579 34.6653 53.0168 34.9167C52.8812 36.0686 52.4699 36.9502 52.4092 38.1748C52.5858 39.7059 52.9856 41.0195 53.4201 42.2974C53.1439 42.0587 52.9842 41.7091 52.7456 41.4352ZM52.0028 27.47C52.0501 26.7399 52.1647 26.0763 52.4092 25.5426L52.4761 25.6086C52.6202 26.0631 52.6934 26.5884 52.8125 27.0688C52.659 28.5092 53.2599 29.755 52.8812 30.9945C52.1924 30.2129 52.1286 28.8091 52.0028 27.47ZM54.6313 24.8755C54.7161 23.9635 55.0216 23.2704 55.5766 22.816L55.6418 22.882C55.3955 23.2352 55.3286 23.7715 55.2371 24.2775C55.2746 25.2608 55.2875 26.2661 55.5079 27.0688C55.3629 27.304 54.9904 27.3137 54.8338 27.5378C54.5956 26.8192 54.6362 25.8249 54.6313 24.8755ZM55.9799 24.144C56.1057 23.4721 56.3145 22.8807 56.7878 22.55V22.616C56.5188 23.2352 56.6576 24.2599 56.5188 25.0093V26.0745C56.53 26.4418 56.5759 26.8399 56.2476 26.8707C55.9781 26.5404 56.1302 25.7909 55.9799 25.3414V24.144ZM57.9326 26.3387C57.7773 26.455 57.4588 26.403 57.3267 26.5404C57.1193 25.4928 57.3789 24.3294 57.3267 23.2158C57.4347 22.9014 57.6024 22.6438 57.73 22.3488C57.9111 22.1731 58.1837 22.0876 58.3359 21.8829L58.4041 21.9524C58.2212 22.2149 58.1984 22.6341 58.0677 22.9481C58.0401 24.0987 57.8817 25.1141 57.9326 26.3387ZM59.7527 21.8829C59.6956 21.9604 59.663 22.0634 59.684 22.2166C59.5551 22.3796 59.6631 22.7759 59.5488 22.9481V23.8798C59.4132 24.521 59.5109 25.396 59.4819 26.1423C59.142 26.0939 59.0117 26.2515 58.6753 26.2066C58.7258 24.4598 58.5366 22.4826 59.4819 21.6187H59.684C59.9602 21.5993 59.6729 21.7107 59.7527 21.8829ZM61.0995 21.4866C60.8859 22.9159 61.0117 24.6804 60.7618 26.0745H60.2229C60.1689 24.661 60.2064 22.7807 60.5593 21.5526C60.7257 21.5623 60.8859 21.5623 60.9626 21.4866H61.0995ZM62.2456 26.0745C61.9436 26.126 61.8374 25.9843 61.5715 26.0085C61.6402 24.4822 61.6318 22.8758 61.8374 21.4866C62.0565 21.472 62.1247 21.6041 62.3781 21.5526C62.3812 23.1079 62.3991 24.6725 62.2456 26.0745ZM64.0644 21.7508C64.0073 23.2722 63.965 24.8028 63.7932 26.2066C63.563 26.1243 63.1892 26.1842 62.9835 26.0745C63.0848 24.6434 63.0933 23.1189 63.1191 21.6187C63.4881 21.609 63.7606 21.6944 64.0644 21.7508ZM65.0736 24.144V25.0093C64.9736 25.2203 65.0736 25.6298 64.9362 25.8068C64.9183 26.0763 64.995 26.4405 64.6685 26.4048C64.275 26.3854 64.6114 25.8539 64.6034 25.6086C64.623 24.9869 64.6587 24.3774 64.7354 23.812V21.8829C64.8889 21.9331 65.0798 21.9441 65.2087 22.0167C65.2351 22.3311 65.186 22.5742 65.1405 22.816C65.1338 23.2722 65.178 23.783 65.0736 24.144ZM66.2196 26.8707C66.0332 26.99 65.79 26.706 65.5438 26.6708C65.8226 25.3735 65.8507 23.8279 65.8815 22.2827C66.0889 22.2343 66.0809 22.3985 66.2866 22.3488C66.564 23.7218 66.3062 25.4475 66.2196 26.8707ZM67.0945 22.816C67.3492 22.8305 67.3804 23.0674 67.6334 23.0802C67.7703 24.5901 67.7525 26.403 67.3621 27.6039C67.1989 27.4779 66.9919 27.396 66.8237 27.2718C67.1404 26.0085 67.0945 24.3889 67.0945 22.816ZM56.0468 21.8203C57.18 20.7212 58.8172 20.1215 60.8957 19.9559C62.5414 19.9511 64.0497 20.0796 65.2087 20.5535C65.8962 20.6728 66.3352 21.0387 66.8919 21.2866C67.3117 21.6931 67.8747 21.9555 68.1049 22.55C67.7003 22.3276 67.3278 22.0749 66.8919 21.8829C66.4971 21.6962 66.0332 21.5799 65.6789 21.3514C64.6814 21.1642 63.7428 20.9145 62.6489 20.8194C59.9731 20.6856 57.8523 21.0951 56.0468 21.8203ZM68.5769 23.812C68.8004 23.9472 68.647 24.4518 68.7795 24.6773V27.6699C68.7273 27.9517 68.6943 28.2498 68.6438 28.5334C68.6193 28.8544 68.4431 28.3916 68.3061 28.4031C68.2767 28.2098 68.017 28.2437 67.968 28.0693C68.3351 26.8817 68.5836 25.2863 68.3744 23.7473L68.5769 23.812ZM72.1459 38.6407C71.4468 35.2439 71.8978 30.7655 72.4153 27.5378C72.2993 24.5276 70.4787 23.1982 69.114 21.4205L68.9133 21.2866C66.5426 19.5481 63.1031 18.8647 58.8092 19.0259L58.6066 19.0919C56.2654 19.1756 54.5238 19.8476 52.9499 20.6873C51.0137 22.1039 49.9279 24.3567 49.4447 27.2027C49.5656 29.0138 50.2428 30.2741 50.7246 31.7277C51.0936 34.1126 50.5319 36.4782 50.3883 38.7728C50.7345 39.9622 51.4184 40.8178 52.0715 41.6994C52.705 42.6065 53.3251 43.5237 54.1611 44.2278C55.6565 45.8069 57.3415 47.2024 59.0099 48.6141C59.9504 49.0606 61.0719 49.3297 61.7723 50.0083C61.9356 50.3143 62.0056 50.7106 62.1087 51.0748C62.2719 51.3795 62.2684 51.8467 62.5802 52.0061C63.3966 51.9049 63.5764 51.1699 64.1965 50.8749C64.6065 50.3482 65.1061 49.9096 65.5438 49.4134C66.4168 48.4354 67.2743 47.4411 68.0349 46.3516C68.804 45.2719 69.4995 44.1182 70.3288 43.0948C70.7709 42.6245 71.1434 42.0812 71.6069 41.6333C71.9679 41.0547 72.6013 40.7517 72.8869 40.104C72.6584 39.598 72.2846 39.2352 72.1459 38.6407Z" fill="white"/>
<path d="M37.1838 60.784C37.3061 60.6585 37.5122 60.618 37.5871 60.4507C37.667 59.7734 37.1102 59.7237 36.9813 59.2529C36.6971 58.7118 36.5472 58.0411 36.3085 57.4563C36.1274 56.8134 36.0917 56.03 35.7014 55.595C35.3177 55.4519 35.0616 55.6773 34.8935 55.9288C35.0451 56.9535 35.3275 57.8513 35.6345 58.7214C35.7585 59.1966 35.9726 59.585 36.1734 59.983C36.4361 60.323 36.619 60.7391 37.1838 60.784Z" fill="white"/>
<path d="M63.5224 36.114C63.9583 36.254 63.9761 37.1822 63.4555 37.2435C63.596 36.9841 63.4899 36.4799 63.5224 36.114ZM68.0349 30.8606C67.7249 30.6365 67.5143 30.3141 67.1596 30.1288C66.8219 30.0887 66.4775 30.0548 66.1492 29.9984C64.9362 30.0178 63.6072 29.9227 62.9835 30.5304C62.8742 30.9236 63.199 30.8945 63.2548 31.1279C62.9933 31.3151 62.938 31.7034 62.7814 31.995C62.8153 33.6678 62.946 35.2438 63.1861 36.7133C63.0768 37.0259 63.1223 37.4918 62.8497 37.6433C62.719 37.7366 62.5771 37.8172 62.3781 37.8432C61.9142 37.7657 61.717 37.4324 61.3003 37.313C61.0099 37.1774 60.5317 37.2258 60.4924 36.8471C60.4384 36.3187 60.889 36.0431 60.6949 35.582C59.7853 35.3213 59.3298 36.0431 58.8761 36.446C58.6196 36.6587 58.3506 36.8599 58.2002 37.1792C57.9799 37.3967 57.6158 37.7014 57.7283 38.0414C58.2083 38.114 58.1249 37.6354 58.4041 37.5081C58.5331 37.2404 58.778 37.0823 58.9412 36.8471C59.4052 36.5054 59.7072 36.0012 60.3568 35.8498C60.2899 36.2461 60.0499 36.4781 60.086 36.981C60.2769 37.413 60.6802 37.6354 61.3003 37.6433C61.5943 37.9735 61.9762 38.2171 62.6471 38.1752C62.9773 38.0801 63.137 37.8172 63.3868 37.6433C63.7232 37.6415 63.8539 37.4385 64.0627 37.313C64.1769 37.0695 64.2309 36.7666 64.1965 36.3782C64.1184 36.04 63.7852 35.9431 63.725 35.582C63.4899 34.5071 63.3917 33.2953 63.1191 32.2592C63.2516 31.7211 63.4671 31.2732 63.9275 31.0619C64.9183 30.9152 66.1478 31.0139 67.1596 31.0619C67.3898 31.2327 67.5339 31.489 67.7017 31.7277C67.7641 32.0839 67.8047 32.4639 68.3057 32.3899C68.5457 32.2979 68.5702 31.8259 68.3744 31.6598C68.3485 31.3054 68.0987 31.1781 68.0349 30.8606Z" fill="white"/>
<path d="M32.9408 37.0438C33.2022 37.2565 33.2183 38.0557 33.7474 37.777C33.5578 37.4983 33.4485 36.7893 32.9408 37.0438Z" fill="white"/>
<path d="M64.7355 33.3196C64.6815 33.173 64.5004 33.1536 64.3991 33.0554C64.1395 32.9101 64.0449 32.6058 63.725 32.5235L63.5912 32.4557C63.5894 32.5882 63.4047 32.5398 63.4556 32.7217C63.7054 32.9427 63.9713 33.1457 64.1966 33.3857C64.35 33.4597 64.4923 33.5372 64.6016 33.6534C64.822 33.6644 65.0357 33.808 65.0718 33.5196C65.083 33.3311 64.9086 33.3276 64.7355 33.3196Z" fill="white"/>
<path d="M66.3533 32.5897C66.4349 32.3994 66.4349 32.1788 66.3533 31.9934C66.5282 32.0626 66.6031 32.2321 66.8253 32.2576C66.724 32.4254 66.5621 32.5315 66.3533 32.5897ZM65.5976 32.4866C65.4146 32.4866 65.2661 32.34 65.2661 32.1594C65.2661 31.9807 65.4146 31.834 65.5976 31.834C65.7787 31.834 65.9272 31.9807 65.9272 32.1594C65.9272 32.34 65.7787 32.4866 65.5976 32.4866ZM67.0274 32.0564C66.7824 31.7213 66.3417 31.5808 65.8813 31.4584H65.0065C64.7419 31.6407 64.2017 31.5518 64.1967 31.9934C64.4332 32.1898 64.6014 31.8966 64.869 31.9225C64.8302 32.0819 64.7745 32.2237 64.8021 32.4558L65.0734 32.7878C65.279 32.7636 65.1876 33.0313 65.341 33.0555H66.2864C66.4706 32.9507 66.6602 32.8477 66.8922 32.7878C67.0193 32.4928 67.4128 32.4606 67.4306 32.0564C67.3066 31.9291 67.1844 32.037 67.0274 32.0564Z" fill="white"/>
<path d="M33.6803 37.0438C33.8369 37.3807 33.8909 37.8109 34.2875 37.9091C34.1425 37.5674 34.1358 37.0826 33.6803 37.0438Z" fill="white"/>
<path d="M73.9645 47.8181C73.7325 47.3588 73.5108 46.8881 73.2235 46.4887C73.1418 46.2324 72.9768 46.0633 72.8871 45.8216C72.6618 45.6428 72.6632 45.3847 72.8871 45.2236C73.1467 45.0303 73.1757 45.5265 73.3586 45.6234C73.5415 45.7714 73.7325 45.9149 73.8976 46.0875C74.3838 46.2064 74.6551 46.5371 75.1775 46.619C75.3653 46.785 75.566 46.9383 75.7735 47.088C75.4616 47.9727 75.1123 48.8428 74.7287 49.6922C74.5243 49.0172 74.237 48.4223 73.9645 47.8181ZM70.595 45.8216C70.371 46.376 69.924 46.7093 69.7215 47.2831C69.3574 47.7005 69.1188 48.2417 68.843 48.7481C68.2569 49.6953 67.8812 50.8543 67.3624 51.8724C66.9752 51.7663 66.4318 51.816 65.9486 51.8063C65.8161 51.8983 65.5614 51.8693 65.4097 51.9389C64.6848 52.1546 64.0691 52.4783 63.5909 52.9376C63.3411 53.1551 63.031 53.3149 62.8481 53.6016C62.7455 53.7434 62.6063 53.85 62.5117 53.9997C62.3337 54.0191 62.3699 54.3912 62.174 54.1996C62.0188 52.7121 61.818 51.2713 61.2318 50.2109C60.2539 49.7116 58.966 49.5214 57.596 49.4135C57.1521 49.2074 56.6297 49.0797 56.1122 48.9445C54.6119 47.6811 53.1602 46.3645 51.6666 45.0897C50.9319 44.4437 50.1989 43.7894 49.4432 43.1592C49.0983 42.8144 48.6741 42.5454 48.3671 42.1636C48.0094 41.8862 47.549 41.6753 47.3549 41.1658C47.4249 40.3987 48.0259 40.075 48.3002 39.4383C48.6692 38.9407 48.9484 38.3506 49.2407 37.7769C49.42 35.8882 49.6765 34.0801 49.714 32.0563C49.7109 31.8388 49.5998 31.7261 49.6471 31.4601C49.0479 29.7714 48.5416 27.2156 49.0399 25.0768C49.846 23.7007 50.8177 22.4858 51.8023 21.285C52.7766 20.0767 53.7464 18.86 54.9692 17.893C57.5424 16.9762 60.6443 16.5812 63.9273 16.3654C65.0229 16.3927 66.0887 16.4473 66.9591 16.6957C67.684 17.1356 68.309 17.6706 68.9117 18.2281C69.1567 18.5619 69.4502 18.8485 69.7215 19.1581C69.9646 19.4963 70.2697 19.7702 70.4611 20.1537C71.0161 20.7596 71.4635 21.4704 71.8749 22.215C72.3562 22.8949 72.6993 23.7073 73.0191 24.5418C73.029 24.7355 72.9848 24.9804 73.0879 25.0768C73.0419 28.0888 72.9018 31.0123 72.954 34.1189C73.091 35.513 73.3801 36.7588 73.7619 37.909C73.9301 38.5197 74.1585 39.068 74.366 39.6364C74.6225 40.1393 74.8103 40.7083 75.1775 41.0997C74.908 41.6105 74.3794 41.8655 73.9645 42.231C73.5496 42.5969 73.1744 43.0047 72.7515 43.3622C71.9761 44.1245 71.2789 44.9673 70.595 45.8216ZM40.0114 43.9602C37.6229 43.9941 35.014 44.1342 32.7365 43.8911C27.968 43.6797 23.3542 43.3142 18.8596 42.8307C18.6049 42.7744 18.6343 42.4291 18.5232 42.231L18.4563 42.0315C23.0879 42.5146 27.7458 42.969 32.6027 43.2288C36.0771 43.5318 40.1925 43.4477 43.8529 43.3622C44.5274 43.4045 45.0512 43.3028 45.6717 43.2949H46.617C46.9498 43.1628 46.9744 43.3864 47.1542 43.5604C44.9026 43.8202 42.3428 43.7784 40.0114 43.9602ZM13.4036 38.7069C9.78067 38.3361 6.37056 37.761 2.28903 37.8416C1.97854 37.9477 2.16501 37.5677 1.95266 37.5774L1.68321 37.1776L1.34504 36.8473C1.34504 36.7037 0.981017 36.5976 1.14296 36.5135C9.06913 36.3559 15.797 37.3872 23.0375 37.909C23.4341 37.7011 23.4113 37.0794 23.5764 36.6456C24.1608 36.6874 24.7042 36.7715 25.3265 36.7795C25.7294 36.6874 25.5353 36.0075 25.8016 35.7803C28.6077 36.1124 31.3571 36.5007 34.219 36.7795C34.6013 37.5739 34.7873 38.5682 35.432 39.1049C35.9071 39.2578 36.5098 39.2837 37.1152 39.3062C37.2392 39.7399 37.4681 40.0671 37.5872 40.5035C37.8192 40.8258 37.8647 41.3366 38.1961 41.5656C39.8057 41.725 41.6018 41.7043 43.3144 41.7655C43.9426 41.6977 44.4895 41.9509 44.9303 41.6995C45.363 41.5493 45.2211 40.8355 45.4023 40.4361C45.3956 39.8315 45.533 39.3692 45.5361 38.7729C45.3826 37.9944 45.0744 37.3678 44.9303 36.5782C44.7282 36.565 44.9958 36.3043 44.9303 36.5782C45.363 37.3273 45.6717 38.1978 46.075 38.9728C46.0473 39.3353 46.1972 39.5189 46.1419 39.9024C46.261 40.1393 46.0978 40.0671 46.075 40.3022L45.9412 40.8338C45.9148 41.2596 46.0406 41.5348 46.075 41.8976C41.9854 42.0134 38.2876 41.7431 34.6923 41.3675C27.5419 40.5343 20.4906 39.603 13.4036 38.7069ZM12.7978 41.8976C12.1826 41.8377 11.6682 41.6832 11.1146 41.5656C11.0053 41.3512 11.0593 41.1257 11.1815 40.9676C11.699 41.0288 12.7063 41.0566 13.0003 41.4335C13.069 41.7237 12.8616 41.7382 12.7978 41.8976ZM10.171 41.2336C9.89979 41.4802 9.52595 41.2045 9.09187 41.2336C8.80279 41.0742 8.25095 41.1772 8.08276 40.9002C8.03413 40.6986 8.15146 40.6585 8.15146 40.5035L8.28395 40.4361C9.01202 40.5167 9.85919 40.4762 10.2379 40.9002C10.2933 41.0887 10.1434 41.0724 10.171 41.2336ZM5.79239 40.8338C5.72235 40.647 5.72235 40.5585 5.79239 40.3701C6.16624 40.2604 6.96791 40.2604 7.34175 40.3701L7.40868 40.5035C7.5211 41.227 6.15152 40.9918 5.79239 40.8338ZM9.83466 35.5804C10.1545 35.6082 10.3963 35.5597 10.643 35.5144C11.6173 35.5016 12.5105 35.4065 13.5392 35.4501V36.3783C12.2495 36.1929 10.8549 36.1044 9.43003 36.0463C9.46393 35.7918 9.47062 35.5095 9.83466 35.5804ZM15.8983 36.2462H16.5023C16.8155 36.1348 17.3446 36.2348 17.6484 36.1141C18.5054 36.1172 19.1929 35.9543 20.0726 35.9802C20.3077 36.0348 20.334 35.8803 20.5446 35.9142C21.0277 35.9027 21.5716 35.9543 21.9583 35.8464C22.4384 35.8112 23.0732 35.9256 23.4408 35.7803H24.7207C24.8398 35.7966 25.0584 35.7143 24.9915 35.9142C24.8447 36.1978 24.4874 35.9384 24.1818 35.9802C23.7999 36.0252 23.6237 35.8688 23.24 35.9142C22.8528 36.1317 22.8381 36.7165 22.7011 37.1776C20.3046 36.9486 17.8523 36.7777 15.4914 36.5135C15.4638 36.2621 15.7984 36.3735 15.8983 36.2462ZM26.6747 35.1823C26.3794 35.1211 26.0283 35.1132 25.7329 35.0489C25.0392 35.0762 24.2309 34.9859 23.6433 35.115H22.4986C22.2635 35.0634 22.239 35.2149 22.027 35.1823C20.9577 35.1682 19.9959 35.2598 18.997 35.3149C18.5969 35.2775 18.3943 35.4325 17.9861 35.3823C17.7497 35.329 17.7251 35.4822 17.5128 35.4501C17.374 35.4082 17.0457 35.5549 17.1095 35.3149C17.0689 35.0102 17.428 35.0987 17.6484 35.0489C17.8166 34.9714 18.0432 34.9538 18.2538 34.9181C18.5853 34.7314 19.2303 34.8604 19.6011 34.7169C20.5999 34.7041 21.5145 34.6121 22.4317 34.5187H23.7785C24.5721 34.3721 25.6348 34.4879 26.5395 34.4527C26.5395 34.7393 26.6961 34.8732 26.6747 35.1823ZM17.1095 33.0555L17.2433 32.8555C18.107 32.7107 18.8056 32.4011 19.8032 32.3883C20.6423 32.1963 21.6336 32.158 22.4986 31.992C24.3143 32.0176 26.2701 31.9048 27.8877 32.1241C28.6845 32.4447 29.6739 32.5786 30.4462 32.9234C29.9644 32.9766 29.1908 32.7446 28.6291 32.6556C27.9533 32.5689 27.3229 32.4399 26.6747 32.3223C23.3364 32.4205 20.1757 32.6882 17.1095 33.0555ZM25.5286 31.1941H25.8668L25.7329 31.2602H25.1271C24.8496 31.2232 24.6895 31.0686 24.3843 31.0589C24.6649 30.9396 25.2038 31.136 25.5286 31.1941ZM26.1362 30.8608C25.8815 30.9105 25.8146 30.7802 25.5973 30.793C25.6888 30.5318 25.6937 30.1804 25.7329 29.8616H26.0675C26.1786 30.1095 26.1246 30.5173 26.1362 30.8608ZM25.1923 29.1993C25.4782 29.1813 25.6709 29.2605 25.8668 29.3314C26.0724 29.3508 26.3272 29.3182 26.3383 29.5327C25.844 29.5327 25.4992 29.386 25.1923 29.1993C25.116 28.9977 24.8367 29.2716 25.1923 29.1993ZM25.9337 28.5335C25.8962 28.3178 25.9792 28.2226 26.0006 28.0694V28.9334C25.6919 28.9365 25.9957 28.6995 25.9337 28.5335ZM25.3948 27.2702C25.8895 27.2719 26.291 27.3605 26.6747 27.4683C26.3058 27.8986 25.7004 27.4908 25.3948 27.2702ZM30.3793 30.4627V32.1241C29.8305 31.9788 29.3117 31.8031 28.763 31.6582C28.7987 31.2522 28.9084 30.9154 29.0306 30.593C29.5285 30.5948 29.8845 30.4592 30.3793 30.4627ZM29.5696 29.5327C29.9385 29.4037 30.4529 29.4248 30.7839 29.2667H30.9864C31.0435 29.4296 31.073 29.6212 31.052 29.8616C30.8704 29.7568 30.5653 29.7696 30.3793 29.6635C29.839 29.6375 29.4469 29.7617 28.9655 29.7969C28.771 29.826 28.7532 30.0338 28.4935 29.9968C28.5247 29.5164 29.1939 29.6665 29.5696 29.5327ZM29.7065 33.3857H29.8421C30.1656 33.4421 30.0723 33.9111 30.1116 34.251C29.6137 34.3206 29.7391 33.7772 29.7065 33.3857ZM28.5604 33.1876H28.763C28.9097 33.376 29.0485 33.8498 28.8986 34.1189C28.5377 34.0546 28.5015 33.4597 28.5604 33.1876ZM27.2136 32.9894C27.5549 32.9846 27.682 33.7499 27.4161 33.9207C27.1043 33.8741 27.1043 33.236 27.2136 32.9894ZM30.4462 34.9181C30.5082 35.1665 30.5916 35.3937 30.717 35.5804C29.6985 35.6579 28.4739 35.358 27.4161 35.2502C27.4438 34.9327 27.318 34.7702 27.2805 34.5187C28.3873 34.6006 29.3425 34.8327 30.4462 34.9181ZM30.7839 31.1263C30.7647 30.9026 30.6764 30.7445 30.717 30.4627C30.8446 30.4913 30.8852 30.6058 31.052 30.593V32.5222C30.6161 32.4029 30.8379 31.6292 30.7839 31.1263ZM31.4584 34.3849V35.4501C31.2251 35.1035 31.1171 34.6332 30.9195 34.251C31.176 34.2189 31.3505 34.2704 31.4584 34.3849ZM40.0114 39.9702C39.899 40.1477 39.8579 40.3908 39.7437 40.5695C39.2195 40.6197 38.8885 40.481 38.3969 40.5035C38.2697 40.3604 38.2876 40.0768 38.1256 39.9702C38.6793 39.7818 39.3342 40.0653 40.0114 39.9702ZM40.5521 40.6343C40.346 40.684 40.3072 40.5682 40.147 40.5695C40.2304 40.4084 40.317 40.2459 40.3495 40.038H40.6203C40.6565 40.2956 40.4994 40.3617 40.5521 40.6343ZM41.4956 40.6343H40.9558V40.1023H41.4956V40.6343ZM42.3035 40.6986H41.832C41.7798 40.4506 41.9136 40.3828 41.8989 40.1702H42.3704C42.3999 40.3974 42.3428 40.5405 42.3035 40.6986ZM43.045 40.6986H42.7068C42.6693 40.3538 42.6921 40.0653 43.1119 40.1702C43.1052 40.3617 43.1476 40.6052 43.045 40.6986ZM39.2048 39.5722C38.9862 39.0534 39.2097 38.5488 39.3391 38.0415C39.468 37.5369 39.5461 36.9825 39.7437 36.5135C39.791 35.916 40.0328 35.513 40.0819 34.9181C40.2728 34.4637 40.2741 33.8239 40.5521 33.4549C41.1182 33.3034 41.8516 33.3179 42.5061 33.2554C42.7871 33.5293 42.7006 34.1691 42.8424 34.583C42.9731 36.0481 43.1819 37.4435 43.3813 38.839C43.2408 39.0776 43.3158 39.5286 43.1788 39.7703C41.8529 39.7043 40.524 39.6413 39.2048 39.5722ZM39.8088 32.7877C40.8064 32.6847 41.8498 32.6301 42.9781 32.6556C43.5214 34.6667 44.191 36.5553 44.7282 38.5748H43.7173C43.5625 37.6628 43.5152 36.6474 43.3144 35.7803C43.2114 34.8168 43.2114 33.7565 42.8424 33.0555C42.6711 33.0955 42.6515 32.8961 42.5061 32.8555C41.8579 32.6816 40.9241 33.0119 40.2139 32.9234C39.3551 33.3584 39.3208 34.6103 38.8002 35.3823C38.4981 36.3475 38.0181 37.1357 37.7228 38.1106H36.8457C37.8223 36.325 38.8573 34.5958 39.8088 32.7877ZM43.9185 40.7677H43.4483C43.3764 40.3423 43.5379 40.1477 43.9867 40.2362C44.034 40.4828 43.8743 40.5215 43.9185 40.7677ZM44.3231 40.3022H44.6613C44.6416 40.5053 44.6711 40.7549 44.4587 40.7677C44.204 40.821 44.374 40.452 44.3231 40.3022ZM44.7282 39.8364C44.2874 39.872 43.9622 39.7945 43.5834 39.7703C43.6441 39.5206 43.6405 39.2062 43.7173 38.9728H44.7964C44.8473 39.3335 44.6889 39.4885 44.7282 39.8364ZM76.3119 45.4107L76.2272 45.6991C76.0884 45.5829 75.922 45.4636 75.7146 45.4235C75.9269 45.3975 76.1246 45.3962 76.3119 45.4107ZM37.3864 50.0758L37.1839 50.2109L36.8457 50.543C36.5946 50.735 36.3706 50.9591 36.1734 51.207C35.6314 51.5359 35.2932 52.0661 34.7592 52.4026C33.1287 52.5915 32.2159 53.4858 30.5149 53.6016C29.0436 53.4114 28.2749 52.5285 26.7416 52.4026C25.0437 52.4558 24.2063 53.3568 22.7011 53.6016H22.5655C21.013 53.4695 20.1806 52.6285 18.7276 52.4026C17.2612 52.4448 16.5037 53.1859 15.2956 53.4792C14.6572 52.4497 14.0746 51.3827 13.5504 50.2836C13.7186 50.332 13.8916 50.377 14.0777 50.4078C16.0451 50.5108 16.8873 49.502 18.4563 49.2105C20.1297 49.3778 20.8957 50.4417 22.768 50.4078C24.2425 50.2017 25.1012 49.3862 26.6078 49.2105C28.0478 49.3637 28.8674 50.126 30.1785 50.4078C32.2748 50.4853 33.1483 49.354 35.0274 49.2105C35.9727 49.2765 36.6744 49.5826 37.3195 49.9436C37.4908 49.9419 37.4011 49.9934 37.3864 50.0758ZM33.6805 54.8637C33.1514 55.1182 32.6875 55.4357 32.4002 55.9289C32.2614 56.2107 32.4051 56.7778 32.2663 57.0566C31.6949 57.2935 31.1287 57.5304 30.2454 57.4564C29.0976 57.1935 28.2959 56.5876 27.1467 56.3252C25.2498 56.2058 24.3892 57.1081 22.9688 57.4564C21.1843 57.5335 20.3992 56.625 18.997 56.3252C18.3684 56.2895 17.875 56.3846 17.4361 56.533C16.8191 55.7514 16.2409 54.9376 15.6975 54.1014C16.6411 53.8033 17.3789 53.3035 18.4563 53.1362C20.0726 53.2696 20.881 54.1996 22.4986 54.3317C24.2764 54.2251 25.0294 53.1071 26.9459 53.1362C28.291 53.4017 29.1074 54.193 30.5818 54.3317C31.847 54.2494 32.6518 53.7143 33.6805 53.4017C33.4517 53.7804 33.6364 54.3784 33.6805 54.8637ZM44.0001 0.640625C25.3444 0.640625 9.96359 14.7154 8.16796 32.6702C8.32143 32.6459 8.46642 32.6301 8.61988 32.6059C9.27969 32.527 9.93102 32.5107 10.5676 32.5495C12.3963 15.9238 26.6618 2.97711 44.0001 2.97711C62.5755 2.97711 77.6329 17.8481 77.6329 36.1832C77.6329 39.116 77.2443 41.9588 76.5212 44.6692L76.1879 44.6243C75.4777 44.5243 74.9816 44.9096 74.4365 44.7581C74.3512 44.5534 74.188 44.4274 74.167 44.1584C74.1376 43.6863 74.5801 43.6815 74.7724 43.427C75.0044 43.2143 75.202 42.9659 75.5156 42.8307C75.8761 42.3005 76.5408 42.0698 76.6581 41.3014C76.7152 40.4665 76.1455 40.2538 75.9171 39.7043C75.6887 39.1547 75.4813 38.5845 75.2444 38.0415C74.892 36.8394 74.5359 35.6385 74.366 34.251C74.3579 31.3795 74.3727 28.5366 74.5016 25.8069C74.4788 25.2767 74.4427 24.7611 74.366 24.2763C73.679 21.9653 72.3335 20.3008 71.0683 18.5584C69.5809 17.0568 68.4317 15.2214 65.6105 15.0373C63.4392 14.9973 61.3755 15.0651 59.6142 15.4341C57.7071 15.6565 55.952 16.0268 54.429 16.6314L54.2965 16.6957C52.7146 17.8415 51.5341 19.3822 50.3198 20.8856C49.6975 21.6496 49.1456 22.4131 48.5661 23.2141C48.0013 24.0006 47.4887 24.8756 47.4218 26.1407C47.3728 28.3838 47.7256 30.2289 48.3002 31.8582C48.31 33.8402 48.0129 35.5192 47.8952 37.3775C47.5802 37.975 47.2193 38.5281 46.8847 39.1049C46.0308 37.0873 45.0855 35.1634 44.1893 33.1876C43.9394 32.904 43.7748 32.5319 43.4483 32.3223C42.1826 32.3157 40.9192 32.3108 39.7437 32.3883C39.3047 32.775 39.0973 33.3936 38.8002 33.9207C38.4883 34.4315 38.1551 34.923 37.9249 35.5144C37.5381 35.9543 37.3503 36.5879 36.9796 37.0437C36.9015 37.366 36.6793 37.5448 36.5781 37.8416C36.3251 37.9913 36.4522 38.5184 36.0396 38.507C35.3896 38.5281 35.5854 37.7108 35.2281 37.4435C35.1152 36.96 34.877 36.5959 34.6923 36.1802C33.7947 35.9785 32.7205 35.9543 31.7948 35.7803V34.7169C31.6935 34.3496 32.0932 34.48 32.0656 34.1849C31.9041 33.347 31.863 32.3883 31.7279 31.5244C31.7047 31.0378 31.5905 30.6415 31.5922 30.1272C31.4682 29.7647 31.5726 29.1734 31.3228 28.9334C30.3989 28.8074 29.5548 29.3072 28.4935 29.2667C28.2486 29.423 28.1848 29.7568 28.0902 30.0611C27.8047 30.0466 27.6138 30.1241 27.4161 30.1967C27.3983 30.501 27.6365 30.553 27.8194 30.6591C27.8404 30.97 27.6869 31.1056 27.6869 31.3923C27.3443 31.4425 27.1516 31.3407 27.0798 31.1263C27.0472 30.87 26.523 31.1008 26.4726 30.8608V30.0611C26.407 29.623 27.0111 29.8387 27.0129 29.4635C27.119 29.0025 26.4592 29.3006 26.4726 28.9334V28.002C26.6832 27.9003 26.9 27.8034 27.1467 27.7361C27.2216 27.4992 27.7686 27.7312 27.7525 27.4023C27.6512 26.9271 26.7925 27.1993 26.407 27.0029V25.4088C26.407 24.8932 26.531 24.2811 26.1362 24.0794C25.8079 24.0442 25.9957 24.5193 25.8668 24.6774V25.4749C25.7459 25.8862 25.8146 26.4886 25.7329 26.9368C25.2253 26.8382 24.453 26.5982 23.981 26.8708C23.9859 27.3089 24.4285 27.3138 24.6538 27.5361C24.9331 27.6828 25.2645 27.7748 25.4617 28.002C25.4046 28.2548 25.3493 28.5093 25.3265 28.7995C24.9331 28.7674 24.6065 28.6705 24.2487 28.5996C23.8356 28.6124 23.3377 28.5401 23.1731 28.7995C23.1597 29.3684 23.6969 29.3878 24.1149 29.5327C24.2813 29.6569 24.4432 29.7824 24.7207 29.7969C24.7974 29.9854 25.1878 29.8678 25.1271 30.1967C24.9754 30.224 25.0995 30.5239 25.0584 30.6591C24.3388 30.7155 23.2677 30.261 22.4317 30.593C22.4205 30.8057 22.4303 30.9942 22.5655 31.0589C22.4906 31.2311 22.9853 31.1668 22.768 31.2602C20.8448 31.5341 18.7713 31.66 17.1095 32.1902L16.9739 32.2562C16.6589 32.4332 16.3667 32.6332 16.1673 32.9234C15.8769 33.1246 15.5146 33.2536 15.4914 33.7208C15.4361 34.1546 16.0303 33.9432 16.1673 34.1849C16.2298 34.6315 16.2949 35.0762 16.4368 35.4501C16.1396 35.6451 15.5307 35.5307 15.1568 35.65C14.7504 35.7561 15.0703 36.5831 14.4141 36.4461C14.1299 36.4378 14.3503 35.9349 14.2802 35.7143C14.282 35.4258 14.303 35.115 14.2115 34.9181C13.7596 34.5896 12.7996 34.7605 12.0568 34.7169C11.1458 34.5764 10.3098 34.3558 9.36266 34.251C8.98882 34.1092 8.54181 34.0432 8.01584 34.0528C7.62905 33.9626 7.02501 33.8239 6.80285 34.1189V34.583C6.82917 35.0665 7.57017 34.8459 7.88067 35.0489C8.15146 35.2695 8.79654 35.1211 8.8242 35.5804L8.75729 35.7143C8.79476 36.1269 8.26566 35.9543 8.01584 35.9142C7.69909 35.8706 7.20792 35.9996 7.0036 35.8464C6.25278 35.8803 5.60458 35.8112 4.91756 35.7803C3.50827 35.7869 2.05036 35.7464 0.739665 35.8464C0.430951 35.8754 0.181124 35.9591 0 36.1141V36.5135C0.50099 36.8601 0.79989 37.4079 1.27991 37.7769C1.3272 38.0028 1.03187 37.8865 1.00912 38.0415C2.24799 39.3674 3.61132 40.5713 4.91756 41.8329C5.28293 42.5132 5.67149 43.1724 6.12876 43.7603C6.27241 44.1522 6.56952 44.3904 6.73593 44.7581C6.87333 44.8854 6.95631 45.0708 7.07409 45.2236L7.27306 45.6234L9.72714 45.4587C10.0403 45.3878 10.3834 45.3478 10.7782 45.3574C12.1139 45.6344 12.945 46.4099 14.4141 46.553C16.1611 46.505 16.9609 45.5186 18.5902 45.3574C20.094 45.5587 20.9332 46.4129 22.4986 46.553C24.2554 46.4469 25.0129 45.3574 26.8772 45.3574C28.2847 45.5864 29.0797 46.4178 30.5818 46.553C32.2306 46.4306 33.1612 45.5957 34.6923 45.3574C36.6271 45.2606 37.3539 46.3645 39.0027 46.553C39.7259 46.4984 40.387 46.339 41.0236 46.0875C41.3435 45.9616 41.7798 45.7797 42.2353 45.6234C42.5226 45.5234 42.7786 45.3768 43.045 45.3574C43.4728 45.3218 43.8529 45.4429 44.3231 45.5556C44.4815 45.7005 44.2071 45.7216 44.1223 45.8216C44.1549 46.0294 43.9412 45.9973 43.9185 46.1536C43.7418 46.3306 43.6553 46.6014 43.4483 46.7529C41.9788 47.4073 40.4686 48.0229 39.0027 48.6821C38.5798 48.8397 38.4 49.2378 37.9936 49.4135C37.2066 49.1202 36.5276 48.7301 35.6363 48.5464C33.5806 48.4064 32.6107 49.3298 31.052 49.6777H30.2454C29.0976 49.4135 28.2959 48.8076 27.1467 48.5464C25.2498 48.4258 24.3892 49.328 22.9688 49.6777C21.1843 49.7534 20.3992 48.8481 18.997 48.5464C16.8436 48.4174 16.2623 49.8371 14.0777 49.6777C13.7413 49.5989 13.4344 49.491 13.1373 49.3734C12.7585 48.5094 12.411 47.6296 12.1058 46.7304C11.9278 46.6419 11.7597 46.571 11.575 46.5142C10.8746 46.3081 10.2134 46.4433 9.6174 46.7384C11.575 52.9376 15.2139 58.412 19.9959 62.6406H23.7004C21.5551 61.0369 19.6171 59.1821 17.9192 57.1262C18.0905 57.0742 18.2672 57.0262 18.4563 56.9923C20.1426 57.168 20.9167 58.2442 22.835 58.1896C24.2554 57.9509 25.1253 57.168 26.6078 56.9923C27.1271 57.0002 27.5598 57.2032 28.0215 57.3904C28.4788 57.5771 28.9588 57.8254 29.4371 57.9914C30.1865 58.2442 31.2184 58.312 32.0656 57.8558C32.1963 58.1733 31.8992 59.8462 31.7765 61.0047L31.7979 61.0611L31.9023 61.2949C32.1668 61.4239 32.4559 61.4913 32.7285 61.401C32.923 61.335 33.0109 61.1787 33.1122 61.0338C33.3245 60.0153 33.4209 58.7695 33.478 58.3895C33.6069 57.7607 33.7291 57.1275 33.7474 56.393C34.0428 56.3075 34.219 56.1059 34.4884 55.9949C34.7838 55.9337 34.9359 55.7289 35.0943 55.5308C35.1349 55.0473 35.0434 54.6959 35.0274 54.2657C35.0274 53.887 35.3927 53.8724 35.5007 53.6016C35.7081 53.4294 35.9709 53.3114 36.1065 53.0684C36.4982 52.7218 36.9341 52.4237 37.2526 52.0049C38.0899 51.3457 38.8425 50.609 39.6081 49.8776C40.4557 49.6037 41.2034 49.2347 41.9672 48.8815C42.7871 48.5834 43.546 48.2228 44.3231 47.8824C44.6791 47.5684 44.9209 47.1413 45.1997 46.7529C46.0032 46.4147 46.7705 46.0409 47.6244 45.7555C48.0455 47.0704 48.7718 48.081 49.5801 49.0123C49.4021 49.3941 49.0577 49.6068 48.7687 49.8776C48.5514 50.2127 48.3199 50.543 48.029 50.8089C47.8595 51.1942 47.5624 51.4554 47.3549 51.8063C47.1314 52.1176 46.9173 52.4382 46.6808 52.7346C46.261 53.4083 45.8497 54.0869 45.4023 54.7315C45.2555 55.1424 44.9584 55.4 44.7964 55.795C44.56 56.0944 44.3084 56.3767 44.1223 56.7263C43.9426 57.0147 43.3144 56.8615 43.3813 57.3904C43.3666 57.7158 43.7387 57.6594 44.0554 57.6563C44.2169 57.5079 44.3998 57.3789 44.5943 57.2583C44.8406 56.8809 45.1118 56.5299 45.4023 56.1944C45.843 55.3855 46.336 54.6347 46.816 53.8676C47.8332 52.3915 48.7803 50.8398 50.0504 49.6116C50.8864 50.4272 51.5832 51.3796 52.7458 51.8724C53.1848 53.344 53.6617 54.7813 54.1578 56.1944C54.3375 56.9698 54.6476 57.6158 54.8323 58.3895C54.9692 58.718 55.0834 59.0725 55.17 59.4529C55.3694 59.7202 55.2338 60.32 55.7758 60.2504C56.1987 60.1703 55.9962 59.619 55.9114 59.3178C55.7709 59.0148 55.6911 58.6471 55.5764 58.3217C55.3382 57.666 55.1896 56.9293 54.9005 56.3252C54.5463 54.902 53.9994 53.6712 53.6224 52.2704C54.3634 52.6443 55.1209 53.0071 55.642 53.6016C55.9409 55.7206 56.1024 57.98 57.5291 58.9871C58.1692 59.1967 58.8009 59.4142 59.3479 59.7189C59.6401 59.9153 59.4344 60.6067 59.885 60.6485C60.3633 60.6908 60.3258 60.1364 60.2214 59.785C60.0858 59.4754 59.8605 59.2566 59.6142 59.0531C59.0557 58.7215 58.3307 58.5489 57.7285 58.2556C56.6297 57.1922 56.6917 54.9795 56.246 53.2683C55.7415 52.4624 54.7618 52.1207 53.9588 51.6051C52.9448 51.2955 52.127 50.7962 51.5328 50.0758C50.1762 48.7996 48.9957 47.3491 48.2315 45.4878C48.3016 45.2702 48.5206 45.1963 48.7017 45.0897C48.8387 44.9576 48.8994 44.7515 49.1068 44.6903C51.2094 46.5371 53.3186 48.3791 55.4377 50.2109C56.1086 50.3241 56.6605 50.5562 57.2583 50.7411C58.3062 50.8605 59.3332 50.9974 60.2214 51.2731C60.6653 52.9829 60.9396 54.8637 61.0311 56.9245C61.0195 57.2935 60.9365 57.5868 60.8941 57.9236V59.785C60.8464 60.4327 60.9758 60.9035 61.5013 60.9823H61.6369C62.1772 60.9823 62.3632 60.6357 62.311 60.0492V58.4556C62.3601 57.9721 62.4957 57.5709 62.4466 56.9923C62.845 55.5466 63.7395 54.5898 64.7356 53.7324C65.0863 53.5906 65.3673 53.3823 65.7461 53.2683L65.9486 53.2022C66.5933 53.1635 67.1143 53.2489 67.7019 53.2683L67.8339 53.2022C68.5981 53.0023 68.7516 52.1996 69.0469 51.5408C69.3574 50.8944 69.6023 50.1806 69.9891 49.6116C70.5816 48.313 71.3948 47.2316 72.1457 46.0875C73.016 47.4249 73.8043 48.8397 74.2339 50.6108L74.2321 50.7398C71.9074 55.437 68.4937 59.5124 64.3141 62.6406H68.0021C75.3622 56.1319 80 46.682 80 36.1832C80 16.5847 63.8474 0.640625 44.0001 0.640625Z" fill="white"/>
<path d="M16.9479 26.9366C16.7293 27.5408 17.0719 28.063 17.6059 28.2532C18.2198 28.469 18.6588 28.3805 18.9282 27.6359C19.1517 27.0203 18.8399 26.5192 18.3014 26.3307C17.6889 26.1149 17.2156 26.2017 16.9479 26.9366Z" fill="white"/>
<path d="M20.6294 20.104L20.4924 20.2911L18.3274 18.7389L18.5121 18.4879C18.724 18.2008 19.1028 18.2893 19.7822 18.7746C20.7601 19.4756 20.8399 19.8173 20.6294 20.104ZM17.4294 18.0669L17.2795 18.2699L16.7879 18.9388C16.6509 19.126 16.8383 19.2612 16.8383 19.2612L23.2365 23.8443C23.9877 22.8209 24.0025 22.8033 23.8146 22.6695L21.4605 20.9838L21.5091 20.9178L21.6171 20.7535C22.1248 20.7645 23.1205 20.9534 24.6078 21.9763C24.7974 21.7588 24.9656 21.551 25.0879 21.3836C25.4568 20.8825 25.4274 20.805 25.2498 20.676C23.7852 19.6993 22.636 19.5417 21.9891 19.561C21.9695 18.9648 21.6202 18.3039 20.6994 17.6451C19.1567 16.5394 18.2899 16.8956 17.4294 18.0669Z" fill="white"/>
<path d="M27.1173 17.7593C26.6667 18.1556 26.3383 17.9817 25.8374 17.426L21.883 13.0331C20.8743 13.9159 20.8743 13.9159 21.0358 14.0965L24.7975 18.2749C25.6562 19.2274 26.5507 19.8382 27.914 18.644C28.6537 17.9944 29.0307 17.326 29.1141 17.0067L23.924 11.2408C22.9345 12.1096 22.9345 12.1096 23.096 12.2902L27.5304 17.2146C27.4715 17.3727 27.318 17.5836 27.1173 17.7593Z" fill="white"/>
<path d="M28.9164 9.29261C29.3 9.07684 29.7537 8.98172 29.9108 9.0011C29.9826 8.68185 29.9219 8.41456 29.8144 8.22433C29.6119 7.87293 29.1368 7.86324 28.1165 8.43349C26.9231 9.10106 26.6764 10.0694 27.1921 10.9686C27.4438 11.4085 27.785 11.7709 28.6014 12.121L30.2208 12.8233C30.8378 13.0862 31.0876 13.2874 31.2821 13.6274C31.5529 14.0964 31.5418 14.4993 30.985 14.8088C30.621 15.0132 30.1767 15.0779 29.855 15.0052C29.8323 15.3632 29.9384 15.7353 30.0656 15.9559C30.2663 16.3056 30.8641 16.3928 31.7751 15.8837C33.2442 15.0651 33.0729 13.9061 32.5 12.9087C32.1735 12.3385 31.7996 11.9677 30.9587 11.6194L29.2835 10.9347C28.8133 10.722 28.5867 10.5577 28.4087 10.2482C28.2079 9.89853 28.4199 9.57003 28.9164 9.29261Z" fill="white"/>
<path d="M34.5897 6.93017C35.009 6.79323 35.473 6.78838 35.6229 6.83506C35.7571 6.54047 35.7505 6.26305 35.6804 6.0552C35.5559 5.67475 35.0924 5.56994 33.9776 5.93279C32.6731 6.35508 32.2404 7.25735 32.567 8.23712C32.7267 8.7171 32.9899 9.1394 33.7179 9.63919L35.166 10.6414C35.7179 11.0201 35.9218 11.2667 36.0476 11.6375C36.2175 12.1496 36.1274 12.5398 35.5203 12.7379C35.1237 12.8652 34.6744 12.8427 34.3724 12.7106C34.2809 13.0554 34.3104 13.442 34.3907 13.6838C34.5178 14.0642 35.0875 14.2655 36.0801 13.9449C37.6817 13.4262 37.7455 12.2562 37.3828 11.1668C37.1758 10.5463 36.8849 10.1095 36.1274 9.60528L34.6222 8.60922C34.206 8.3111 34.0151 8.10678 33.9022 7.76816C33.775 7.3877 34.0494 7.10411 34.5897 6.93017Z" fill="white"/>
<path d="M40.671 12.5268L39.4353 4.81899C38.1487 5.02067 38.1273 5.02376 38.2138 5.57991L39.3978 12.9588C40.6956 12.7558 40.7085 12.7541 40.671 12.5268Z" fill="white"/>
<path d="M44.1877 8.51265C44.3282 7.90674 44.4504 7.0736 44.5486 6.35187C44.6026 7.07668 44.6887 7.91642 44.8033 8.52719L45.0005 9.59723L43.9428 9.57477L44.1877 8.51265ZM43.3026 12.3269L43.6751 10.7285L45.2195 10.7606L45.5639 12.5929C45.8985 12.622 46.1435 12.6268 46.3183 12.6299C46.8407 12.6413 46.9353 12.5638 46.9028 12.4141L45.133 4.57595C44.9697 4.5372 44.7395 4.52091 44.5174 4.51606C44.2153 4.51122 44.0275 4.57595 43.9887 4.74681L41.8808 12.4916C42.181 12.5317 42.5308 12.5511 42.707 12.5542C43.2276 12.5656 43.2651 12.4863 43.3026 12.3269Z" fill="white"/>
<path d="M53.5799 10.9992C53.7856 10.3902 53.6861 9.92121 52.9366 9.67462C52.3197 9.47162 51.7973 9.81949 51.6175 10.3532C51.4118 10.9622 51.51 11.3942 52.2724 11.6439C52.8992 11.8517 53.3988 11.5324 53.5799 10.9992Z" fill="white"/>
<path d="M38.3446 21.9072C38.6533 21.4964 38.8277 20.9548 39.177 20.5827C40.7933 19.9058 42.2709 19.0982 43.8055 18.3426C43.5869 18.6425 43.2537 18.8327 42.9731 19.0758C42.663 19.2872 42.3967 19.5417 42.0474 19.7139C41.479 20.1877 40.8165 20.5699 40.196 20.9935C39.9265 21.4255 39.6035 21.809 39.3635 22.2745C39.1623 22.426 39.1003 22.7131 38.8996 22.8659C38.8407 23.1772 38.5422 23.2463 38.5766 23.6426C38.6613 23.8456 38.8897 23.9117 39.177 23.9183C39.3992 24.0037 39.6736 24.0359 39.9167 24.1006C39.8369 24.2182 39.6129 24.1939 39.4545 24.2389C39.3243 24.3212 39.1659 24.3776 38.991 24.4194C38.7019 24.5599 38.2728 24.5647 37.8824 24.6017L37.6491 24.5564C37.2587 24.3036 37.0794 23.8412 36.6319 23.6426C36.2599 23.6572 35.7812 23.8892 35.7063 23.459C35.783 23.0931 36.3594 23.2221 36.6319 23.0499C36.689 22.8306 36.5976 22.5937 36.4932 22.4101C36.4508 22.1472 36.3594 21.9314 36.2612 21.7236C35.8075 21.0146 35.303 20.3572 34.872 19.6223C34.8475 19.3484 34.6989 18.9855 34.8265 18.7085C35.2753 19.3321 35.7473 19.9301 36.2139 20.536C36.4133 20.8728 36.6386 21.1855 36.9081 21.451C37.004 21.614 37.1838 21.6976 37.2802 21.8623L37.4644 22.0908L37.6036 22.2745C37.5804 22.61 37.0812 22.9984 37.5121 23.2318C37.8253 23.193 37.8695 22.887 37.9725 22.6386C38.1224 22.4198 38.2464 22.1763 38.3446 21.9072ZM41.6749 23.6893C41.8662 23.6668 41.6749 23.8038 41.6749 23.8734L41.4924 24.0552C41.4139 24.2067 41.2426 24.2648 41.1217 24.3745C40.8393 24.3181 40.6466 24.1746 40.3347 24.1473C40.7804 23.9909 41.218 23.8298 41.6749 23.6893ZM37.5121 21.4043C37.4073 21.2467 37.2476 21.1481 37.1414 20.9935C36.9045 20.7082 36.7105 20.381 36.4932 20.0798C36.023 19.5095 35.5791 18.9115 35.1495 18.2977C35.0237 18.0753 35.1919 17.7785 34.9193 17.6579C34.4379 17.6403 34.4817 18.1414 34.317 18.436V19.44L34.3625 19.5769C34.7658 20.75 35.7 21.3947 36.0752 22.5937C36.0739 22.758 35.8303 22.6858 35.7522 22.7743L35.427 22.9579C35.2869 23.0772 35.2329 23.2833 35.1968 23.5074C35.0273 23.6589 34.6793 23.6347 34.7351 24.0086C34.8412 24.2794 35.3146 24.1006 35.427 23.9636C35.6313 24.26 36.0788 24.2697 36.4932 24.1473C36.7381 24.223 36.7756 24.5066 37.0009 24.6017C37.1396 24.7853 37.3016 24.9465 37.5576 25.0143C38.4637 25.2076 39.2199 24.8593 39.8725 24.6484H40.3347C40.6662 24.6581 40.7835 24.8756 41.0744 24.924C41.4464 24.8162 41.6784 24.5744 41.9068 24.3291C42.1112 24.1054 42.3837 23.8007 42.2793 23.4154C42.1616 23.0706 41.5214 23.1851 41.2604 23.3238C40.9062 23.4154 40.5961 23.551 40.2415 23.6426C39.8288 23.6395 39.579 23.4753 39.177 23.459C39.5772 22.6822 40.1224 22.049 40.5667 21.3128C40.8571 21.1855 41.0953 20.9935 41.3537 20.8099L41.6749 20.5827L41.8154 20.4906L41.8627 20.4457L42.1402 20.3088C42.2954 20.1991 42.4373 20.0446 42.6041 19.9411C43.267 19.4721 43.9331 19.0036 44.4555 18.3893C44.4765 18.1801 44.5728 18.0493 44.6384 17.8864C44.6857 17.7688 44.7379 17.524 44.547 17.5222V17.4773H44.315C43.4544 17.9815 42.5354 18.4298 41.6311 18.8904C40.7657 19.3466 39.8351 19.7398 38.9455 20.1718C38.4606 20.5602 38.2009 21.171 37.9266 21.7703C37.7044 21.7333 37.6687 21.5074 37.5121 21.4043Z" fill="white"/>
</svg>
