<?xml version="1.0" standalone="no"?>
<!DOCTYPE svg PUBLIC "-//W3C//DTD SVG 20010904//EN"
 "http://www.w3.org/TR/2001/REC-SVG-20010904/DTD/svg10.dtd">
<svg version="1.0" xmlns="http://www.w3.org/2000/svg"
 width="260.000000pt" height="260.000000pt" viewBox="0 0 260.000000 260.000000"
 preserveAspectRatio="xMidYMid meet">
<metadata>
Created by potrace 1.14, written by Peter Selinger 2001-2017
</metadata>
<g transform="translate(0.000000,260.000000) scale(0.100000,-0.100000)"
fill="#000000" stroke="none">
<path d="M1548 2206 c-59 -21 -88 -45 -105 -83 -16 -40 -11 -86 12 -117 14
-19 15 -19 22 0 62 166 351 155 934 -36 100 -33 183 -60 185 -60 2 0 4 17 4
38 l0 39 -72 22 c-290 89 -633 184 -714 197 -82 13 -229 13 -266 0z"/>
<path d="M1640 2046 c-54 -17 -80 -37 -101 -79 l-20 -38 22 -45 21 -45 26 40
c36 56 84 75 187 73 133 -1 235 -23 570 -122 283 -84 257 -80 253 -34 l-3 38
-165 54 c-161 52 -477 138 -536 146 -16 2 -49 7 -74 10 -90 12 -146 13 -180 2z"/>
<path d="M125 1942 c-68 -22 -115 -80 -115 -140 0 -15 9 -41 20 -59 25 -42 65
-62 160 -80 25 -4 60 -30 60 -44 0 -17 -33 -39 -58 -39 -35 0 -72 26 -72 49 0
16 -8 18 -57 17 -55 -1 -58 -2 -59 -26 -1 -36 33 -94 69 -115 19 -11 58 -20
103 -23 125 -8 194 44 194 147 0 58 -42 103 -117 125 -32 9 -69 20 -83 24 -54
16 -25 78 32 68 13 -3 26 -5 30 -5 4 -1 10 -10 13 -21 5 -17 15 -20 66 -20
l59 0 -6 28 c-12 49 -38 82 -79 102 -41 20 -118 25 -160 12z"/>
<path d="M434 1935 c-3 -6 -3 -109 -2 -230 l3 -220 58 -1 57 -1 1 31 c0 17 2
57 2 90 l2 59 73 1 c41 0 76 -3 79 -8 3 -5 5 -45 5 -90 l-1 -82 59 0 c48 0 60
3 61 15 3 96 0 431 -4 438 -3 5 -29 8 -59 8 l-53 -1 -2 -44 c-1 -25 -2 -66 -2
-91 l-1 -45 -72 2 c-40 1 -76 2 -80 3 -3 0 -7 38 -7 83 0 44 -3 84 -6 87 -11
10 -107 7 -111 -4z"/>
<path d="M904 1715 l1 -230 60 -1 60 -1 0 223 c0 122 -4 226 -8 231 -5 4 -32
8 -61 8 l-53 0 1 -230z"/>
<path d="M1103 1941 c-12 -9 -11 -445 2 -452 5 -4 33 -6 60 -5 l50 1 0 68 0
67 50 1 c66 1 79 4 116 26 49 28 71 77 66 146 -4 64 -25 101 -76 131 -25 14
-55 19 -146 21 -63 1 -118 -1 -122 -4z m198 -106 c18 -12 29 -54 19 -79 -10
-27 -56 -47 -85 -36 -18 7 -21 16 -19 61 1 30 3 57 3 60 1 8 67 3 82 -6z"/>
<path d="M1715 1855 c-50 -13 -95 -51 -95 -82 0 -8 10 -28 21 -45 l21 -29 27
29 c59 68 174 70 425 10 62 -14 90 -17 95 -10 11 18 71 39 97 34 30 -5 74 -49
74 -73 0 -14 17 -23 73 -39 39 -12 85 -25 101 -31 44 -14 46 -12 46 30 l0 40
-87 26 c-49 14 -108 32 -133 40 -77 24 -281 73 -373 90 -115 21 -230 25 -292
10z"/>
<path d="M1783 1690 c-63 -14 -84 -50 -58 -99 15 -30 16 -30 34 -12 42 42 134
39 360 -8 79 -17 146 -29 148 -27 2 2 -12 13 -31 24 -20 12 -38 32 -42 47 -4
17 -15 27 -33 31 -14 3 -39 10 -56 14 -16 5 -46 11 -65 14 -19 3 -46 8 -60 11
-46 9 -164 12 -197 5z"/>
<path d="M2325 1565 l-39 -24 27 -10 c15 -6 38 -13 50 -15 12 -2 42 -9 67 -16
25 -7 54 -14 65 -16 51 -10 68 -14 86 -19 16 -6 19 -1 19 32 l0 39 -107 27
c-60 15 -112 27 -118 26 -5 0 -28 -11 -50 -24z"/>
<path d="M1835 1520 c-40 -15 -48 -35 -30 -70 12 -24 21 -30 33 -24 38 17 162
12 283 -12 68 -13 125 -24 126 -24 1 0 -5 -14 -14 -31 -14 -28 -18 -30 -52
-24 -156 30 -292 38 -311 19 -6 -6 -5 -21 2 -40 10 -29 15 -31 57 -31 44 1
165 -10 206 -18 11 -2 30 -4 42 -4 12 -1 24 -9 28 -21 4 -13 15 -20 32 -20 19
0 24 -4 19 -16 -3 -9 -6 -17 -6 -20 0 -2 -6 -2 -12 1 -31 10 -307 32 -318 25
-7 -5 -8 -40 -1 -70 0 -3 27 -6 59 -6 31 -1 78 -2 104 -3 l47 -1 -1 -41 0 -41
-101 4 -101 3 -7 -32 c-6 -31 -4 -33 20 -33 172 -3 291 -18 323 -41 28 -20 28
-20 49 0 12 11 25 19 28 17 3 -2 63 -7 134 -11 l127 -6 0 34 0 34 -67 2 c-94
2 -104 7 -93 36 5 12 6 26 2 30 -7 7 109 -2 141 -11 16 -5 18 0 15 33 -2 30
-7 38 -23 39 -11 1 -40 4 -65 8 -25 3 -69 8 -99 12 -30 3 -62 8 -70 9 -9 2
-19 4 -23 4 -3 1 -5 9 -4 18 3 18 45 34 74 28 14 -2 100 -16 190 -30 21 -3 23
0 20 27 -3 33 -16 40 -91 51 -18 3 -62 11 -98 17 l-67 13 1 34 c1 25 5 32 16
28 9 -2 67 -15 129 -28 l112 -24 0 39 c0 21 -2 38 -4 38 -2 0 -63 14 -136 30
-73 17 -140 30 -149 30 -23 0 -21 -52 2 -78 22 -24 22 -56 0 -77 -13 -14 -14
-18 -3 -25 7 -4 19 -6 26 -3 6 2 15 0 18 -5 7 -12 -18 -34 -35 -30 -11 2 -15
-19 -17 -93 -2 -79 0 -98 14 -110 13 -11 20 -11 42 2 15 8 27 21 27 29 0 20
30 61 38 53 27 -26 -20 -95 -88 -130 -16 -9 -33 -20 -37 -26 -7 -12 -102 44
-135 80 -23 24 -31 67 -15 77 9 5 41 -43 39 -59 0 -5 11 -17 25 -25 22 -12 29
-12 42 -1 13 11 16 34 16 111 0 86 -2 97 -17 97 -36 0 -42 3 -37 18 4 8 17 15
30 15 28 0 30 6 9 26 -20 21 -19 60 3 76 10 7 17 23 16 36 -1 12 -2 32 -3 44
0 12 -4 19 -7 16 -3 -4 -19 -2 -36 3 -140 40 -350 66 -393 49z m406 -408 c9
-4 15 -19 15 -37 -1 -23 -6 -31 -23 -33 -17 -2 -23 2 -23 14 0 10 -10 28 -22
41 l-21 23 29 -1 c16 0 36 -3 45 -7z m129 -27 c-6 -8 -9 -19 -6 -24 4 -6 -2
-15 -13 -21 -21 -11 -33 -1 -38 29 -3 24 6 31 39 31 26 0 28 -2 18 -15z"/>
<path d="M3 1374 c-2 -7 -3 -29 -1 -50 l3 -39 60 0 60 0 3 -178 c1 -105 6
-178 12 -179 6 0 33 -2 60 -3 l50 -1 0 178 c0 162 2 178 18 179 9 1 40 2 67 3
l50 1 0 48 c0 26 -2 48 -5 48 -3 1 -88 2 -189 3 -132 1 -185 -2 -188 -10z"/>
<path d="M451 1375 c-6 -8 -8 -420 -2 -446 0 -3 72 -5 159 -5 l157 0 -2 40
c-1 21 -4 44 -6 50 -3 7 -38 11 -96 11 -50 -1 -91 2 -92 5 -6 37 -3 70 5 71 6
1 47 2 91 3 l80 1 3 48 c2 33 -1 47 -10 48 -7 1 -49 2 -93 3 l-79 1 -1 38 c-2
42 -8 40 118 40 42 0 77 2 78 6 5 45 3 84 -5 89 -18 11 -297 8 -305 -3z"/>
<path d="M968 1375 c-79 -30 -129 -116 -129 -218 0 -77 12 -119 47 -164 51
-67 165 -94 250 -58 51 21 73 42 95 90 28 62 26 65 -40 65 -52 0 -61 -3 -66
-21 -8 -25 -57 -48 -90 -41 -57 11 -91 108 -65 187 24 72 107 88 145 28 19
-30 24 -32 78 -33 66 0 69 7 38 77 -28 60 -84 94 -163 99 -40 2 -77 -2 -100
-11z"/>
<path d="M1324 1376 c-2 -6 -3 -110 -2 -231 l3 -220 58 -1 57 0 0 88 c0 63 4
88 13 89 15 1 129 1 139 0 4 -1 9 -40 10 -88 l3 -88 57 -1 57 -2 3 136 c2 76
1 180 -2 232 l-5 94 -45 1 c-71 1 -70 2 -70 -94 l0 -87 -77 0 -78 1 -5 90 -5
89 -53 2 c-32 0 -56 -4 -58 -10z"/>
<path d="M2260 1326 c0 -16 2 -18 9 -7 8 12 12 12 25 2 14 -12 16 -11 16 7 0
14 -7 20 -25 20 -19 0 -25 -6 -25 -22z"/>
<path d="M1862 891 l-29 -36 111 0 c61 0 162 -4 224 -8 63 -4 185 -10 273 -13
l159 -6 0 35 0 34 -82 3 c-46 1 -108 3 -138 5 -30 1 -138 6 -240 10 -102 4
-199 8 -217 10 -26 2 -37 -4 -61 -34z"/>
<path d="M75 816 c-108 -47 -93 -261 20 -282 75 -14 135 32 138 104 l2 37 -52
3 c-43 2 -53 0 -53 -12 0 -15 16 -20 53 -17 38 4 13 -60 -32 -78 -24 -11 -35
-10 -64 4 -69 33 -73 164 -5 205 17 10 38 16 47 13 38 -12 60 -27 64 -44 6
-21 37 -26 37 -6 0 7 -7 23 -16 35 -30 44 -90 60 -139 38z"/>
<path d="M570 822 c-76 -23 -109 -158 -59 -238 23 -38 80 -61 125 -50 92 24
125 180 53 255 -16 17 -35 32 -42 33 -36 4 -64 4 -77 0z m104 -65 c46 -70 15
-179 -54 -192 -31 -6 -79 21 -90 51 -26 68 1 160 50 170 14 3 30 7 35 9 16 4
44 -14 59 -38z"/>
<path d="M808 822 c-21 -4 -20 0 -22 -152 -1 -63 2 -120 6 -126 5 -7 35 -10
75 -8 60 2 71 6 91 30 28 32 24 79 -7 105 -18 15 -18 16 0 38 25 30 19 70 -12
93 -23 17 -94 28 -131 20z m109 -40 c11 -7 16 -25 14 -54 -1 -18 -41 -34 -81
-34 -23 1 -25 5 -28 49 l-3 47 43 0 c24 0 48 -4 55 -8z m19 -139 c25 -35 2
-72 -46 -74 -14 0 -35 -2 -47 -3 -21 -2 -23 2 -23 44 0 26 3 50 7 53 12 13 96
-3 109 -20z"/>
<path d="M295 678 l0 -142 73 -1 c75 -1 85 2 89 22 2 9 -15 12 -58 10 -33 -2
-63 2 -67 7 -3 6 -6 62 -6 125 -1 96 -4 116 -16 119 -13 2 -16 -17 -15 -140z"/>
<path d="M1105 808 c-60 -171 -95 -271 -95 -273 0 -2 7 -2 17 -1 9 2 23 21 32
42 16 40 16 40 68 39 29 0 54 -3 55 -5 2 -3 12 -23 21 -44 13 -27 21 -36 29
-28 7 7 -4 50 -37 146 -39 110 -51 136 -67 136 -10 0 -21 -6 -23 -12z m63
-153 c-4 -4 -40 -7 -64 -6 l-20 1 20 64 21 64 23 -60 c12 -34 21 -62 20 -63z"/>
<path d="M1290 677 l0 -143 80 0 c69 0 80 3 80 18 0 14 -9 17 -52 16 -29 0
-58 0 -64 1 -7 1 -10 44 -10 126 1 113 0 125 -16 125 -16 0 -18 -13 -18 -143z"/>
<path d="M1764 785 c-27 -11 -84 -59 -84 -70 0 -3 206 -4 458 -2 l457 2 3 33
3 32 -128 1 c-70 0 -182 2 -248 4 -417 14 -430 14 -461 0z"/>
<path d="M1702 667 c-45 -9 -71 -40 -59 -71 6 -14 10 -14 42 0 31 13 102 14
473 12 l437 -3 3 30 3 30 -398 3 c-219 2 -411 5 -428 6 -16 1 -49 -2 -73 -7z"/>
<path d="M1745 550 c-65 -9 -78 -27 -55 -70 9 -17 13 -17 38 -4 23 11 112 14
448 17 l419 4 0 28 0 29 -405 1 c-223 0 -423 -2 -445 -5z"/>
<path d="M1808 440 c-57 -7 -64 -13 -43 -34 15 -14 62 -16 426 -16 l409 0 0
28 0 27 -372 0 c-205 0 -394 -2 -420 -5z"/>
</g>
</svg>
